STARTFONT 2.1
COMMENT
COMMENT Converted from OpenType font "ChivoMono-Bold.ttf" by "otf2bdf 3.0".
COMMENT
FONT -FreeType-chivo mono-Bold-R-Normal--33-240-100-100-P-167-ISO10646-1
SIZE 24 100 100
FONTBOUNDINGBOX 26 51 -2 -13
STARTPROPERTIES 19
FOUNDRY "FreeType"
FAMILY_NAME "chivo mono"
WEIGHT_NAME "Bold"
SLANT "R"
SETWIDTH_NAME "Normal"
ADD_STYLE_NAME ""
PIXEL_SIZE 33
POINT_SIZE 240
RESOLUTION_X 100
RESOLUTION_Y 100
SPACING "P"
AVERAGE_WIDTH 167
CHARSET_REGISTRY "ISO10646"
CHARSET_ENCODING "1"
FONT_ASCENT 31
FONT_DESCENT 8
COPYRIGHT "Copyright 2018 The Chivo Project Authors (https://github.com/Omnibus-Type/Chivo)"
_OTF_FONTFILE "ChivoMono-Bold.ttf"
_OTF_PSNAME "ChivoMono-Bold"
ENDPROPERTIES
CHARS 642
STARTCHAR 000D
ENCODING 13
SWIDTH 600 0
DWIDTH 20 0
BBX 0 0 0 0
BITMAP
ENDCHAR
STARTCHAR 0020
ENCODING 32
SWIDTH 600 0
DWIDTH 20 0
BBX 0 0 0 0
BITMAP
ENDCHAR
STARTCHAR 0021
ENCODING 33
SWIDTH 600 0
DWIDTH 20 0
BBX 6 23 7 0
BITMAP
FC
FC
FC
FC
FC
FC
FC
7C
78
78
78
78
78
78
78
78
00
00
FC
FC
FC
FC
FC
ENDCHAR
STARTCHAR 0022
ENCODING 34
SWIDTH 600 0
DWIDTH 20 0
BBX 10 10 5 13
BITMAP
F3C0
F3C0
F3C0
F3C0
F3C0
F3C0
F3C0
E1C0
6180
6180
ENDCHAR
STARTCHAR 0023
ENCODING 35
SWIDTH 600 0
DWIDTH 20 0
BBX 20 23 0 0
BITMAP
01E1C0
01C1C0
01C3C0
01C380
03C380
03C380
7FFFF0
7FFFF0
7FFFF0
7FFFF0
070700
070F00
070F00
0F0E00
FFFFE0
FFFFE0
FFFFE0
1E1C00
1E1C00
1C1C00
1C3C00
1C3C00
3C3800
ENDCHAR
STARTCHAR 0024
ENCODING 36
SWIDTH 600 0
DWIDTH 20 0
BBX 18 27 1 -2
BITMAP
01E000
01C000
01C000
0FFC00
1FFF00
3FFF00
7F3F80
7C0F80
7C0780
7C0000
7F8000
7FF000
3FFE00
1FFF00
07FF80
00FFC0
000FC0
F80FC0
F807C0
FC0FC0
7FFF80
7FFF80
3FFF00
0FFC00
01C000
01C000
01E000
ENDCHAR
STARTCHAR 0025
ENCODING 37
SWIDTH 600 0
DWIDTH 20 0
BBX 20 23 0 0
BITMAP
3C0070
7F00E0
F701C0
E38180
E38380
E38700
E38E00
E38C00
E39C00
F72000
7F0000
1C0380
0007E0
004FF0
019C70
031C70
071C70
0E1C70
1C1C70
1C1C70
380E70
700FE0
F007C0
ENDCHAR
STARTCHAR 0026
ENCODING 38
SWIDTH 600 0
DWIDTH 20 0
BBX 19 23 1 0
BITMAP
07C000
1FC000
3FC000
7FC000
7E0000
FC0780
FC0780
7C0F80
7C0F80
3FFFE0
1FFFE0
1FFFE0
3FFFE0
7F0F80
FC0F80
F80F80
F80F80
F80F80
FC0F80
FFFF80
7FFF80
3FFF80
07FF80
ENDCHAR
STARTCHAR 0027
ENCODING 39
SWIDTH 600 0
DWIDTH 20 0
BBX 4 10 8 13
BITMAP
F0
F0
F0
F0
F0
F0
F0
60
60
60
ENDCHAR
STARTCHAR 0028
ENCODING 40
SWIDTH 600 0
DWIDTH 20 0
BBX 8 28 7 -5
BITMAP
07
0E
1E
3C
3C
78
78
78
F8
F0
F0
F0
F0
F0
F0
F0
F0
F0
F0
F0
78
78
78
3C
3C
1C
1E
0F
ENDCHAR
STARTCHAR 0029
ENCODING 41
SWIDTH 600 0
DWIDTH 20 0
BBX 8 28 5 -5
BITMAP
E0
70
78
3C
3C
1E
1E
1E
1F
0F
0F
0F
0F
0F
0F
0F
0F
0F
0F
0F
1E
1E
1E
3C
3C
38
78
F0
ENDCHAR
STARTCHAR 002A
ENCODING 42
SWIDTH 600 0
DWIDTH 20 0
BBX 14 14 3 9
BITMAP
0780
0780
0780
8304
F31C
FFFC
FFFC
0FC0
0FC0
1FE0
3CE0
7CF8
3860
0840
ENDCHAR
STARTCHAR 002B
ENCODING 43
SWIDTH 600 0
DWIDTH 20 0
BBX 18 17 1 0
BITMAP
01E000
01E000
01E000
01E000
01E000
01E000
01E000
FFFFC0
FFFFC0
FFFFC0
01E000
01E000
01E000
01E000
01E000
01E000
01E000
ENDCHAR
STARTCHAR 002C
ENCODING 44
SWIDTH 600 0
DWIDTH 20 0
BBX 6 12 7 -6
BITMAP
FC
FC
FC
FC
FC
FC
1C
18
38
38
70
F0
ENDCHAR
STARTCHAR 002D
ENCODING 45
SWIDTH 600 0
DWIDTH 20 0
BBX 8 4 6 7
BITMAP
FF
FF
FF
FF
ENDCHAR
STARTCHAR 002E
ENCODING 46
SWIDTH 600 0
DWIDTH 20 0
BBX 6 5 7 0
BITMAP
FC
FC
FC
FC
FC
ENDCHAR
STARTCHAR 002F
ENCODING 47
SWIDTH 600 0
DWIDTH 20 0
BBX 20 29 0 -6
BITMAP
0000F0
0001E0
0001C0
0003C0
000380
000780
000700
000F00
001E00
001E00
003C00
003800
007800
007000
00F000
00E000
01E000
03C000
03C000
078000
078000
0F0000
0E0000
1E0000
1C0000
3C0000
780000
780000
F00000
ENDCHAR
STARTCHAR 0030
ENCODING 48
SWIDTH 600 0
DWIDTH 20 0
BBX 18 23 1 0
BITMAP
07F800
1FFE00
3FFF00
3FFF00
7E1F80
7C0F80
FC0FC0
FC0FC0
FC0FC0
FC0FC0
FC0FC0
FC0FC0
FC0FC0
FC0FC0
FC0FC0
FC0FC0
FC0FC0
7C0F80
7E1F80
3FFF00
3FFF00
1FFE00
07F800
ENDCHAR
STARTCHAR 0031
ENCODING 49
SWIDTH 600 0
DWIDTH 20 0
BBX 17 23 2 0
BITMAP
00E000
03E000
3FE000
FFE000
FFE000
FFE000
03E000
03E000
03E000
03E000
03E000
03E000
03E000
03E000
03E000
03E000
03E000
03E000
03E000
FFFF80
FFFF80
FFFF80
FFFF80
ENDCHAR
STARTCHAR 0032
ENCODING 50
SWIDTH 600 0
DWIDTH 20 0
BBX 18 23 1 0
BITMAP
07F800
1FFE00
3FFF00
3FFF80
7E1F80
7C0F80
780F80
780FC0
000F80
001F80
001F80
007F00
00FE00
01FC00
07F800
0FE000
1FC000
3F0000
7FFFC0
7FFFC0
7FFFC0
FFFFC0
FFFFC0
ENDCHAR
STARTCHAR 0033
ENCODING 51
SWIDTH 600 0
DWIDTH 20 0
BBX 18 23 1 0
BITMAP
07F800
1FFE00
3FFF00
7FFF80
7C1F80
780F80
780F80
000F80
001F80
007F00
03FE00
03FE00
03FF00
001F80
000F80
000FC0
F80FC0
F80FC0
FC1FC0
7FFF80
7FFF00
3FFE00
0FFC00
ENDCHAR
STARTCHAR 0034
ENCODING 52
SWIDTH 600 0
DWIDTH 20 0
BBX 18 23 1 0
BITMAP
03E000
07C000
07C000
078E00
0F8E00
0F8E00
1F1E00
1F1E00
1E3E00
3C3E00
3C3E00
783E00
783E00
F03E00
FFFFC0
FFFFC0
FFFFC0
FFFFC0
003E00
003E00
003E00
003E00
003E00
ENDCHAR
STARTCHAR 0035
ENCODING 53
SWIDTH 600 0
DWIDTH 20 0
BBX 18 23 1 0
BITMAP
3FFF00
3FFF00
3FFF00
3FFF00
3FFF00
3C0000
3C0000
3C0000
3DFC00
7FFE00
7FFF00
7FFF80
7C1F80
000F80
000FC0
000FC0
F80FC0
FC0F80
7C1F80
7FFF80
3FFF00
1FFE00
07F800
ENDCHAR
STARTCHAR 0036
ENCODING 54
SWIDTH 600 0
DWIDTH 20 0
BBX 17 23 2 0
BITMAP
07F000
1FFC00
3FFE00
7FFF00
FC3F00
F81F00
F80F00
F80000
F84000
FBFC00
FFFE00
FFFF00
FC1F00
F81F80
F80F80
F80F80
F80F80
F81F80
FC1F00
7FFF00
3FFE00
1FFC00
0FF800
ENDCHAR
STARTCHAR 0037
ENCODING 55
SWIDTH 600 0
DWIDTH 20 0
BBX 17 23 2 0
BITMAP
FFFF80
FFFF80
FFFF80
FFFF00
FFFE00
003E00
007C00
007800
00F800
01F000
01F000
03E000
03E000
07C000
07C000
0FC000
0F8000
0F8000
1F8000
1F8000
1F8000
1F8000
1F8000
ENDCHAR
STARTCHAR 0038
ENCODING 56
SWIDTH 600 0
DWIDTH 20 0
BBX 18 23 1 0
BITMAP
07F800
1FFE00
3FFF00
3F3F00
7E1F80
7C0F80
7C0F80
7C0F80
3C0F80
3F3F00
1FFE00
0FFC00
3FFF00
7E1F80
7C0F80
7C0FC0
FC0FC0
FC0FC0
7C0F80
7F3F80
3FFF00
1FFE00
0FFC00
ENDCHAR
STARTCHAR 0039
ENCODING 57
SWIDTH 600 0
DWIDTH 20 0
BBX 17 23 1 0
BITMAP
07F000
1FFC00
3FFE00
7FFF00
7C1F80
FC0F80
F80F80
F80F80
F80F80
FC0F80
7C1F80
7FFF80
3FFF80
1FEF80
038F80
800F80
780F80
7C0F80
7C1F80
7FFF00
3FFE00
1FFC00
0FF800
ENDCHAR
STARTCHAR 003A
ENCODING 58
SWIDTH 600 0
DWIDTH 20 0
BBX 6 17 7 0
BITMAP
FC
FC
FC
FC
FC
00
00
00
00
00
00
00
FC
FC
FC
FC
FC
ENDCHAR
STARTCHAR 003B
ENCODING 59
SWIDTH 600 0
DWIDTH 20 0
BBX 6 23 7 -6
BITMAP
FC
FC
FC
FC
FC
00
00
00
00
00
00
FC
FC
FC
FC
FC
FC
1C
18
38
38
70
F0
ENDCHAR
STARTCHAR 003C
ENCODING 60
SWIDTH 600 0
DWIDTH 20 0
BBX 17 17 1 0
BITMAP
000080
000780
003F80
00FF80
07FE00
1FF800
FFC000
FE0000
F80000
FE0000
FFC000
3FF800
07FE00
00FF80
003F80
000780
000180
ENDCHAR
STARTCHAR 003D
ENCODING 61
SWIDTH 600 0
DWIDTH 20 0
BBX 18 11 1 3
BITMAP
FFFFC0
FFFFC0
FFFFC0
FFFFC0
000000
000000
000000
FFFFC0
FFFFC0
FFFFC0
FFFFC0
ENDCHAR
STARTCHAR 003E
ENCODING 62
SWIDTH 600 0
DWIDTH 20 0
BBX 17 17 2 0
BITMAP
800000
F00000
FE0000
FF8000
3FF000
0FFC00
01FF80
003F80
000F80
003F80
01FF80
0FFC00
3FF000
FF8000
FE0000
F00000
C00000
ENDCHAR
STARTCHAR 003F
ENCODING 63
SWIDTH 600 0
DWIDTH 20 0
BBX 16 23 2 0
BITMAP
0FF0
1FFC
7FFE
7FFE
FC3F
F83F
F81F
F83F
003F
007E
00FE
01F8
03F0
03E0
03E0
03E0
0000
0000
03E0
03E0
03E0
03E0
03E0
ENDCHAR
STARTCHAR 0040
ENCODING 64
SWIDTH 600 0
DWIDTH 20 0
BBX 20 29 0 -6
BITMAP
03FC00
07FF00
1E0380
1801C0
3800C0
300060
61FC60
67FE60
67FE70
E79F30
C78F30
C00F30
C00F30
C1FF30
C7FF30
C7CF30
CF8F30
CF0F30
CF0F30
EF9F70
6FFFE0
67F7E0
63E3C0
300000
380000
1C0000
0F0E00
07FE00
00E000
ENDCHAR
STARTCHAR 0041
ENCODING 65
SWIDTH 600 0
DWIDTH 20 0
BBX 20 23 0 0
BITMAP
03FC00
03FC00
03FC00
03FC00
07FE00
07FE00
07BE00
0F9F00
0F9F00
0F9F00
0F1F00
1F0F80
1F0F80
1F0F80
1E0F80
3FFFC0
3FFFC0
3FFFC0
7E07E0
7C07E0
7C03E0
7C03E0
FC03F0
ENDCHAR
STARTCHAR 0042
ENCODING 66
SWIDTH 600 0
DWIDTH 20 0
BBX 17 23 2 0
BITMAP
FFF800
FFFE00
FFFF00
FFFF00
F83F00
F81F80
F81F00
F81F00
F81F00
FFFE00
FFFC00
FFF800
FFFE00
F83F00
F81F80
F80F80
F80F80
F81F80
F83F80
FFFF80
FFFF00
FFFE00
FFF800
ENDCHAR
STARTCHAR 0043
ENCODING 67
SWIDTH 600 0
DWIDTH 20 0
BBX 18 23 1 0
BITMAP
07F800
1FFE00
3FFF00
7FFF00
7E1F80
FC0F80
FC0FC0
F80FC0
F807C0
F80000
F80000
F80000
F80000
F80000
F807C0
F807C0
F807C0
FC0F80
FE1F80
7FFF00
3FFF00
1FFE00
0FF800
ENDCHAR
STARTCHAR 0044
ENCODING 68
SWIDTH 600 0
DWIDTH 20 0
BBX 18 23 2 0
BITMAP
FFF000
FFFC00
FFFE00
FFFF00
F87F80
F81F80
F80FC0
F80FC0
F80FC0
F80FC0
F80FC0
F80FC0
F80FC0
F80FC0
F80FC0
F80FC0
F80FC0
F81F80
F87F80
FFFF00
FFFE00
FFFC00
FFF000
ENDCHAR
STARTCHAR 0045
ENCODING 69
SWIDTH 600 0
DWIDTH 20 0
BBX 16 23 2 0
BITMAP
FFFF
FFFF
FFFF
FFFF
FC00
FC00
FC00
FC00
FC00
FFFE
FFFE
FFFE
FFFE
FC00
FC00
FC00
FC00
FC00
FC00
FFFF
FFFF
FFFF
FFFF
ENDCHAR
STARTCHAR 0046
ENCODING 70
SWIDTH 600 0
DWIDTH 20 0
BBX 16 23 2 0
BITMAP
FFFF
FFFF
FFFF
FFFE
FFFE
FC00
FC00
FC00
FC00
FC00
FFFC
FFFC
FFFC
FFFC
FC00
FC00
FC00
FC00
FC00
FC00
FC00
FC00
FC00
ENDCHAR
STARTCHAR 0047
ENCODING 71
SWIDTH 600 0
DWIDTH 20 0
BBX 18 23 1 0
BITMAP
07F800
1FFE00
3FFF00
7FFF80
7E1F80
FC0FC0
F807C0
F807C0
F80000
F80000
F87FC0
F87FC0
F87FC0
F87FC0
F807C0
F807C0
F807C0
FC0FC0
FE1FC0
7FFFC0
3FFFC0
1FF9C0
0FF1C0
ENDCHAR
STARTCHAR 0048
ENCODING 72
SWIDTH 600 0
DWIDTH 20 0
BBX 16 23 2 0
BITMAP
F81F
F81F
F81F
F81F
F81F
F81F
F81F
F81F
F81F
FFFF
FFFF
FFFF
FFFF
FFFF
F81F
F81F
F81F
F81F
F81F
F81F
F81F
F81F
F81F
ENDCHAR
STARTCHAR 0049
ENCODING 73
SWIDTH 600 0
DWIDTH 20 0
BBX 15 23 3 0
BITMAP
FFFE
FFFE
FFFE
FFFE
0FC0
0FC0
0FC0
0FC0
0FC0
0FC0
0FC0
0FC0
0FC0
0FC0
0FC0
0FC0
0FC0
0FC0
0FC0
FFFE
FFFE
FFFE
FFFE
ENDCHAR
STARTCHAR 004A
ENCODING 74
SWIDTH 600 0
DWIDTH 20 0
BBX 16 23 2 0
BITMAP
003F
003F
003F
003F
003F
003F
003F
003F
003F
003F
003F
003F
003F
003F
003F
FC3F
FC3F
FC3F
7C3E
7FFE
7FFE
3FFC
0FF0
ENDCHAR
STARTCHAR 004B
ENCODING 75
SWIDTH 600 0
DWIDTH 20 0
BBX 18 23 2 0
BITMAP
F80F80
F81F80
F83F00
F83F00
F87E00
F87C00
F8FC00
F9F800
F9F800
FBF000
FBF000
FFE000
FFF000
FFF000
FFF800
FDFC00
FCFC00
F87E00
F87E00
F83F00
F83F00
F81F80
F80FC0
ENDCHAR
STARTCHAR 004C
ENCODING 76
SWIDTH 600 0
DWIDTH 20 0
BBX 15 23 3 0
BITMAP
F800
F800
F800
F800
F800
F800
F800
F800
F800
F800
F800
F800
F800
F800
F800
F800
F800
F800
FFFE
FFFE
FFFE
FFFE
FFFE
ENDCHAR
STARTCHAR 004D
ENCODING 77
SWIDTH 600 0
DWIDTH 20 0
BBX 18 23 1 0
BITMAP
FE1FC0
FE1FC0
FE1FC0
FE1FC0
FF3FC0
FF3FC0
FF3FC0
FF3FC0
FF3FC0
FF37C0
FF37C0
FF77C0
FFF7C0
FBF7C0
FBF7C0
FBF7C0
FBE7C0
FBE7C0
FBE7C0
FBE7C0
F9E7C0
F9E7C0
F9E7C0
ENDCHAR
STARTCHAR 004E
ENCODING 78
SWIDTH 600 0
DWIDTH 20 0
BBX 16 23 2 0
BITMAP
F81F
FC1F
FC1F
FE1F
FE1F
FF1F
FF1F
FF1F
FF9F
FF9F
FFDF
FBDF
FBFF
FBFF
F9FF
F9FF
F8FF
F8FF
F87F
F87F
F83F
F83F
F81F
ENDCHAR
STARTCHAR 004F
ENCODING 79
SWIDTH 600 0
DWIDTH 20 0
BBX 18 23 1 0
BITMAP
07F800
1FFE00
3FFF00
7FFF80
7E1F80
FC0FC0
FC07C0
F807C0
F807C0
F807C0
F807C0
F807C0
F807C0
F807C0
F807C0
F807C0
F807C0
FC0FC0
FE1FC0
7FFF80
3FFF00
1FFE00
0FFC00
ENDCHAR
STARTCHAR 0050
ENCODING 80
SWIDTH 600 0
DWIDTH 20 0
BBX 18 23 2 0
BITMAP
FFF800
FFFE00
FFFF00
FFFF80
F83F80
F81F80
F80FC0
F80FC0
F80FC0
F81F80
FFFF80
FFFF00
FFFE00
FFFC00
F80000
F80000
F80000
F80000
F80000
F80000
F80000
F80000
F80000
ENDCHAR
STARTCHAR 0051
ENCODING 81
SWIDTH 600 0
DWIDTH 20 0
BBX 19 28 1 -5
BITMAP
07F800
1FFE00
3FFF00
7FFF80
7E1F80
FC0FC0
FC07C0
F807C0
F807C0
F807C0
F807C0
F807C0
F807C0
F807C0
F807C0
F807C0
F807C0
FC0FC0
FE1FC0
7FFF80
3FFF00
1FFE00
0FFC00
01F000
01FC20
00FFE0
007FE0
001FC0
ENDCHAR
STARTCHAR 0052
ENCODING 82
SWIDTH 600 0
DWIDTH 20 0
BBX 19 23 2 0
BITMAP
FFF800
FFFE00
FFFF00
FFFF80
F83F80
F80F80
F80F80
F80F80
F80F80
F81F80
FFFF00
FFFC00
FFFE00
FFFF00
F87F00
F81F80
F81F80
F81F80
F81F80
F81F80
F80F80
F80FC0
F807E0
ENDCHAR
STARTCHAR 0053
ENCODING 83
SWIDTH 600 0
DWIDTH 20 0
BBX 18 23 1 0
BITMAP
07FC00
1FFE00
3FFF80
7FFF80
FE0FC0
FC07C0
FC07C0
FC0000
FF8000
7FF800
7FFE00
3FFF80
0FFF80
01FFC0
001FC0
F80FC0
F807C0
F80FC0
FC0FC0
FFFFC0
7FFF80
3FFF00
0FFC00
ENDCHAR
STARTCHAR 0054
ENCODING 84
SWIDTH 600 0
DWIDTH 20 0
BBX 18 23 1 0
BITMAP
FFFFC0
FFFFC0
FFFFC0
FFFFC0
FFFFC0
03F000
03F000
03F000
03F000
03F000
03F000
03F000
03F000
03F000
03F000
03F000
03F000
03F000
03F000
03F000
03F000
03F000
03F000
ENDCHAR
STARTCHAR 0055
ENCODING 85
SWIDTH 600 0
DWIDTH 20 0
BBX 18 23 1 0
BITMAP
FC0FC0
FC0FC0
FC0FC0
FC0FC0
FC0FC0
FC0FC0
FC0FC0
FC0FC0
FC0FC0
FC0FC0
FC0FC0
FC0FC0
FC0FC0
FC0FC0
FC0FC0
FC0FC0
FC0FC0
7C0F80
7E1F80
7FFF80
3FFF00
1FFE00
0FFC00
ENDCHAR
STARTCHAR 0056
ENCODING 86
SWIDTH 600 0
DWIDTH 20 0
BBX 20 23 0 0
BITMAP
FC03F0
7C03E0
7C03E0
7E03E0
7E03E0
3E07C0
3E07C0
3F07C0
1F07C0
1F0F80
1F0F80
1F0F80
0F8F00
0F9F00
0F9F00
0F9F00
07DE00
07DE00
07FE00
03FE00
03FC00
03FC00
03FC00
ENDCHAR
STARTCHAR 0057
ENCODING 87
SWIDTH 600 0
DWIDTH 20 0
BBX 20 23 0 0
BITMAP
F8F0F0
F8F0F0
F8F0F0
F8F9F0
78F9F0
78F9E0
78F9E0
7DF9E0
7DF9E0
7DF9E0
7DF9E0
7DFFE0
7DFFE0
3D9FC0
3D9FC0
3F9FC0
3F9FC0
3F9FC0
3F9FC0
3F9FC0
3F8FC0
3F0FC0
1F0F80
ENDCHAR
STARTCHAR 0058
ENCODING 88
SWIDTH 600 0
DWIDTH 20 0
BBX 20 23 0 0
BITMAP
7E03E0
3F07E0
3F07C0
1F8F80
1F8F80
0FDF00
0FDF00
07FE00
07FE00
03FC00
03FC00
03FC00
03FC00
07FE00
07FE00
0FBF00
0FBF80
1F1F80
3F1FC0
3E0FC0
7E0FE0
7E07E0
FC07F0
ENDCHAR
STARTCHAR 0059
ENCODING 89
SWIDTH 600 0
DWIDTH 20 0
BBX 20 23 0 0
BITMAP
FC03F0
7E03E0
7E07E0
3F07C0
3F0FC0
1F8F80
1F9F80
0F9F00
0FDF00
07FE00
07FE00
03FC00
03FC00
01F800
01F800
01F800
01F800
01F800
01F800
01F800
01F800
01F800
01F800
ENDCHAR
STARTCHAR 005A
ENCODING 90
SWIDTH 600 0
DWIDTH 20 0
BBX 18 23 1 0
BITMAP
7FFFC0
7FFFC0
7FFFC0
7FFF80
003F00
007F00
007E00
00FE00
00FC00
01F800
03F800
03F000
07F000
07E000
0FC000
1FC000
1F8000
3F0000
7F0000
7FFFC0
FFFFC0
FFFFC0
FFFFC0
ENDCHAR
STARTCHAR 005B
ENCODING 91
SWIDTH 600 0
DWIDTH 20 0
BBX 7 28 8 -5
BITMAP
FE
FE
F0
F0
F0
F0
F0
F0
F0
F0
F0
F0
F0
F0
F0
F0
F0
F0
F0
F0
F0
F0
F0
F0
F0
F0
FE
FE
ENDCHAR
STARTCHAR 005C
ENCODING 92
SWIDTH 600 0
DWIDTH 20 0
BBX 20 29 0 -6
BITMAP
F00000
780000
380000
3C0000
1C0000
1E0000
0E0000
0F0000
078000
078000
03C000
01C000
01E000
00E000
00F000
007000
007800
003C00
003C00
001E00
001E00
000F00
000700
000780
000380
0003C0
0001E0
0001E0
0000F0
ENDCHAR
STARTCHAR 005D
ENCODING 93
SWIDTH 600 0
DWIDTH 20 0
BBX 7 28 5 -5
BITMAP
FE
FE
1E
1E
1E
1E
1E
1E
1E
1E
1E
1E
1E
1E
1E
1E
1E
1E
1E
1E
1E
1E
1E
1E
1E
1E
FE
FE
ENDCHAR
STARTCHAR 005E
ENCODING 94
SWIDTH 600 0
DWIDTH 20 0
BBX 18 17 1 0
BITMAP
01E000
03F000
03F000
03F000
07F800
07F800
0F3C00
0F3C00
0E1C00
1E1E00
1E1E00
3C0F00
3C0F00
3C0F00
780780
780780
F003C0
ENDCHAR
STARTCHAR 005F
ENCODING 95
SWIDTH 600 0
DWIDTH 20 0
BBX 16 3 2 -5
BITMAP
FFFF
FFFF
FFFF
ENDCHAR
STARTCHAR 0060
ENCODING 96
SWIDTH 600 0
DWIDTH 20 0
BBX 8 5 6 20
BITMAP
F8
7C
3C
1E
1F
ENDCHAR
STARTCHAR 0061
ENCODING 97
SWIDTH 600 0
DWIDTH 20 0
BBX 17 17 2 0
BITMAP
1FF800
3FFC00
7FFE00
FC3E00
F83E00
003E00
003E00
1FFE00
7FFE00
FE3E00
F83E00
F83E00
F83E00
F87E00
FFFF80
7FDF80
3F9F80
ENDCHAR
STARTCHAR 0062
ENCODING 98
SWIDTH 600 0
DWIDTH 20 0
BBX 17 24 2 0
BITMAP
FC0000
FC0000
FC0000
FC0000
FC0000
FC0000
FC0000
FDF800
FFFE00
FFFE00
FE3F00
FC1F00
FC1F80
FC1F80
FC1F80
FC1F80
FC1F80
FC1F80
FC1F00
FC1F00
FE3F00
FFFE00
FFFC00
F9F800
ENDCHAR
STARTCHAR 0063
ENCODING 99
SWIDTH 600 0
DWIDTH 20 0
BBX 17 17 1 0
BITMAP
07F800
1FFE00
3FFE00
3E1F00
7C0F00
7C0F80
FC0F80
FC0000
FC0000
FC0000
7C0F80
7C0F80
7C0F00
3E1F00
3FFE00
1FFE00
07F800
ENDCHAR
STARTCHAR 0064
ENCODING 100
SWIDTH 600 0
DWIDTH 20 0
BBX 17 24 1 0
BITMAP
001F80
001F80
001F80
001F80
001F80
001F80
001F80
0FFF80
1FFF80
3FFF80
7E3F80
7C1F80
FC1F80
FC1F80
FC1F80
FC1F80
FC1F80
FC1F80
FC1F80
7C1F80
7E3F80
3FFF80
3FFF80
0FCF80
ENDCHAR
STARTCHAR 0065
ENCODING 101
SWIDTH 600 0
DWIDTH 20 0
BBX 17 17 1 0
BITMAP
07FC00
1FFE00
3FFF00
3E1F80
7E0F80
7C0F80
7C0F80
FFFF80
FFFF80
FC0000
7C0000
7C0F80
7C0F80
7E1F80
3FFF00
1FFE00
07FC00
ENDCHAR
STARTCHAR 0066
ENCODING 102
SWIDTH 600 0
DWIDTH 20 0
BBX 15 24 3 0
BITMAP
01FE
07FE
07FE
0FE2
0F80
0F80
0F80
FFFE
FFFE
FFFE
FFFE
0F80
0F80
0F80
0F80
0F80
0F80
0F80
0F80
0F80
FFFE
FFFE
FFFE
FFFE
ENDCHAR
STARTCHAR 0067
ENCODING 103
SWIDTH 600 0
DWIDTH 20 0
BBX 19 26 1 -6
BITMAP
0003E0
0003C0
0007C0
0FFF80
1FFE00
3FFF00
3E0F80
7C0F80
7C0F80
3E0F80
3FBF00
1FFF00
1FFC00
3E0000
7C0000
7C0000
7FFF00
3FFF80
3FFFC0
7FFFC0
F807E0
F003E0
F803C0
FFFFC0
7FFF80
3FFF00
ENDCHAR
STARTCHAR 0068
ENCODING 104
SWIDTH 600 0
DWIDTH 20 0
BBX 16 24 2 0
BITMAP
FC00
FC00
FC00
FC00
FC00
FC00
FC00
FDFC
FFFE
FFFE
FFFF
FC3F
FC1F
FC1F
FC1F
FC1F
FC1F
FC1F
FC1F
FC1F
FC1F
FC1F
FC1F
FC1F
ENDCHAR
STARTCHAR 0069
ENCODING 105
SWIDTH 600 0
DWIDTH 20 0
BBX 16 24 3 0
BITMAP
03C0
03C0
03C0
03C0
0000
0000
0000
FFE0
FFE0
FFE0
FFE0
07E0
07E0
07E0
07E0
07E0
07E0
07E0
07E0
07E0
FFFF
FFFF
FFFF
FFFF
ENDCHAR
STARTCHAR 006A
ENCODING 106
SWIDTH 600 0
DWIDTH 20 0
BBX 11 30 3 -6
BITMAP
03C0
03C0
03C0
03C0
0000
0000
0000
FFE0
FFE0
FFE0
FFE0
07E0
07E0
07E0
07E0
07E0
07E0
07E0
07E0
07E0
07E0
07E0
07E0
07E0
07E0
07E0
CFC0
FFC0
FF80
FF00
ENDCHAR
STARTCHAR 006B
ENCODING 107
SWIDTH 600 0
DWIDTH 20 0
BBX 17 24 2 0
BITMAP
F80000
F80000
F80000
F80000
F80000
F80000
F80000
F81F80
F83F00
F87E00
F8FC00
F8FC00
F9F800
FBF000
FFE000
FFE000
FFF000
FFF800
FFFC00
FCFC00
F87E00
F87F00
F83F00
F81F80
ENDCHAR
STARTCHAR 006C
ENCODING 108
SWIDTH 600 0
DWIDTH 20 0
BBX 16 24 2 0
BITMAP
FFE0
FFE0
FFE0
FFE0
03E0
03E0
03E0
03E0
03E0
03E0
03E0
03E0
03E0
03E0
03E0
03E0
03E0
03E0
03E0
03E0
FFFF
FFFF
FFFF
FFFF
ENDCHAR
STARTCHAR 006D
ENCODING 109
SWIDTH 600 0
DWIDTH 20 0
BBX 18 17 1 0
BITMAP
E7CF80
EFDF80
FFFFC0
FFFFC0
F9E7C0
F9E3C0
F9E3C0
F9E3C0
F9E3C0
F9E3C0
F9E3C0
F9E3C0
F9E3C0
F9E3C0
F9E3C0
F9E3C0
F9E3C0
ENDCHAR
STARTCHAR 006E
ENCODING 110
SWIDTH 600 0
DWIDTH 20 0
BBX 16 17 2 0
BITMAP
FBF8
FFFE
FFFE
FFFF
FC3F
FC1F
FC1F
FC1F
FC1F
FC1F
FC1F
FC1F
FC1F
FC1F
FC1F
FC1F
FC1F
ENDCHAR
STARTCHAR 006F
ENCODING 111
SWIDTH 600 0
DWIDTH 20 0
BBX 18 17 1 0
BITMAP
07F800
1FFE00
3FFF00
7E1F00
7C0F80
7C0F80
FC0FC0
FC0FC0
FC0FC0
FC0FC0
FC0FC0
7C0F80
7C0F80
3E1F00
3FFF00
1FFE00
07F800
ENDCHAR
STARTCHAR 0070
ENCODING 112
SWIDTH 600 0
DWIDTH 20 0
BBX 17 23 2 -6
BITMAP
F9F800
FFFE00
FFFE00
FE3F00
FC1F00
FC1F80
FC1F80
FC1F80
FC1F80
FC1F80
FC1F80
FC1F00
FC1F00
FE3F00
FFFE00
FFFC00
FDF800
FC0000
FC0000
FC0000
FC0000
FC0000
FC0000
ENDCHAR
STARTCHAR 0071
ENCODING 113
SWIDTH 600 0
DWIDTH 20 0
BBX 17 23 1 -6
BITMAP
0FEF80
1FFF80
3FFF80
7E3F80
7C1F80
FC1F80
FC1F80
FC1F80
FC1F80
FC1F80
FC1F80
FC1F80
7C1F80
7E3F80
3FFF80
3FFF80
0FDF80
001F80
001F80
001F80
001F80
001F80
001F80
ENDCHAR
STARTCHAR 0072
ENCODING 114
SWIDTH 600 0
DWIDTH 20 0
BBX 17 17 2 0
BITMAP
FE7E00
FFFF00
FFFF80
FFFF80
1F8F80
1F0780
1F0780
1F0000
1F0000
1F0000
1F0000
1F0000
1F0000
FFFE00
FFFE00
FFFE00
FFFE00
ENDCHAR
STARTCHAR 0073
ENCODING 115
SWIDTH 600 0
DWIDTH 20 0
BBX 16 17 2 0
BITMAP
1FF8
3FFC
7FFE
F83E
F81E
FC00
FFC0
7FFC
3FFE
1FFF
00FF
001F
F01F
F81F
7FFE
7FFC
1FF8
ENDCHAR
STARTCHAR 0074
ENCODING 116
SWIDTH 600 0
DWIDTH 20 0
BBX 17 22 1 0
BITMAP
01C000
03C000
03C000
03C000
07C000
FFFF80
FFFF80
FFFF80
FFFF80
07C000
07C000
07C000
07C000
07C000
07C000
07C000
07C000
07E000
07FF80
03FF80
03FF80
00FF80
ENDCHAR
STARTCHAR 0075
ENCODING 117
SWIDTH 600 0
DWIDTH 20 0
BBX 17 17 2 0
BITMAP
F83F00
F83F00
F83F00
F83F00
F83F00
F83F00
F83F00
F83F00
F83F00
F83F00
F83F00
F83F00
FC3F00
FFFF00
FFFF80
7FFF80
3FCF80
ENDCHAR
STARTCHAR 0076
ENCODING 118
SWIDTH 600 0
DWIDTH 20 0
BBX 18 17 1 0
BITMAP
FC07C0
7C0F80
7C0F80
7E0F80
3E1F00
3E1F00
3F1F00
1F3E00
1F3E00
1FBE00
0FFC00
0FFC00
0FFC00
07F800
07F800
07F000
03F000
ENDCHAR
STARTCHAR 0077
ENCODING 119
SWIDTH 600 0
DWIDTH 20 0
BBX 20 17 0 0
BITMAP
F0F0F0
F0F0F0
F9F9F0
79F9E0
79F9E0
79F9E0
79F9E0
79F9E0
7FFFE0
3FDFC0
3F9FC0
3F9FC0
3F9FC0
3F9FC0
1F9F80
1F8F80
1F0F80
ENDCHAR
STARTCHAR 0078
ENCODING 120
SWIDTH 600 0
DWIDTH 20 0
BBX 18 17 1 0
BITMAP
FE0FC0
7E1F80
3F1F00
1F3F00
1FFE00
0FFC00
07FC00
07F800
07F800
07F800
0FFC00
1FFE00
1F7E00
3F3F00
7E1F80
7C1F80
FC0FC0
ENDCHAR
STARTCHAR 0079
ENCODING 121
SWIDTH 600 0
DWIDTH 20 0
BBX 18 23 1 -6
BITMAP
FC07C0
7C0F80
7E0F80
7E0F80
3E1F00
3F1F00
1F1E00
1F3E00
1FBE00
0FBC00
0FFC00
07FC00
07F800
07F800
03F000
03F000
01F000
03E000
03E000
4FC000
7F8000
7F8000
7E0000
ENDCHAR
STARTCHAR 007A
ENCODING 122
SWIDTH 600 0
DWIDTH 20 0
BBX 14 17 3 0
BITMAP
FFFC
FFFC
FFF8
01F8
03F0
03F0
07E0
07C0
0FC0
1F80
1F80
3F00
3E00
7E00
FFFC
FFFC
FFFC
ENDCHAR
STARTCHAR 007B
ENCODING 123
SWIDTH 600 0
DWIDTH 20 0
BBX 10 28 5 -6
BITMAP
07C0
0FC0
1F00
1E00
1E00
1E00
1E00
1E00
1E00
1E00
1E00
1E00
3C00
FC00
F000
FC00
1E00
1E00
1E00
1E00
1E00
1E00
1E00
1E00
1E00
1E00
0FC0
0FC0
ENDCHAR
STARTCHAR 007C
ENCODING 124
SWIDTH 600 0
DWIDTH 20 0
BBX 4 31 8 -7
BITMAP
F0
F0
F0
F0
F0
F0
F0
F0
F0
F0
F0
F0
F0
F0
F0
F0
F0
F0
F0
F0
F0
F0
F0
F0
F0
F0
F0
F0
F0
F0
F0
ENDCHAR
STARTCHAR 007D
ENCODING 125
SWIDTH 600 0
DWIDTH 20 0
BBX 10 28 5 -6
BITMAP
F800
FC00
3E00
1E00
1E00
1E00
1E00
1E00
1E00
1E00
1E00
1E00
0F00
0FC0
03C0
0FC0
1E00
1E00
1E00
1E00
1E00
1E00
1E00
1E00
1E00
1E00
FC00
FC00
ENDCHAR
STARTCHAR 007E
ENCODING 126
SWIDTH 600 0
DWIDTH 20 0
BBX 18 6 1 7
BITMAP
1E0040
7F80C0
FFFFC0
FFFFC0
C0FF80
801E00
ENDCHAR
STARTCHAR 00A0
ENCODING 160
SWIDTH 600 0
DWIDTH 20 0
BBX 0 0 0 0
BITMAP
ENDCHAR
STARTCHAR 00A1
ENCODING 161
SWIDTH 600 0
DWIDTH 20 0
BBX 6 23 7 -6
BITMAP
FC
FC
FC
FC
FC
00
00
78
78
78
78
78
78
78
78
7C
FC
FC
FC
FC
FC
FC
FC
ENDCHAR
STARTCHAR 00A2
ENCODING 162
SWIDTH 600 0
DWIDTH 20 0
BBX 16 23 2 0
BITMAP
03C0
01C0
01C0
0FF0
1FFC
3FFE
7E3E
7C1F
FC0F
F80F
F800
F800
F800
F80F
FC0F
FC0F
7E1F
3FFE
1FFC
0FF8
01C0
01C0
03C0
ENDCHAR
STARTCHAR 00A3
ENCODING 163
SWIDTH 600 0
DWIDTH 20 0
BBX 18 23 1 0
BITMAP
03FC00
07FF00
0FFF80
1FFFC0
1F0FC0
3F07C0
3F07C0
3F0000
3F0000
3F0000
FFF000
FFF000
FFF000
FFF000
3F0000
3E0000
3E0000
3E0000
3E0000
FFFF80
FFFF80
FFFF80
FFFF80
ENDCHAR
STARTCHAR 00A4
ENCODING 164
SWIDTH 600 0
DWIDTH 20 0
BBX 18 17 1 3
BITMAP
208100
77FB80
FFFFC0
3FFF00
3C0F00
780780
780780
700380
700380
700380
700380
780780
3C0F00
3E1F00
7FFF80
FFFFC0
63F100
ENDCHAR
STARTCHAR 00A5
ENCODING 165
SWIDTH 600 0
DWIDTH 20 0
BBX 20 23 0 0
BITMAP
FC03F0
7E03E0
7E07E0
3F07C0
3F0FC0
1F8F80
1F9F80
0F9F00
7FDFE0
7FFFE0
7FFFE0
03FC00
03FC00
7FFFE0
7FFFE0
01F800
01F800
01F800
01F800
01F800
01F800
01F800
01F800
ENDCHAR
STARTCHAR 00A6
ENCODING 166
SWIDTH 600 0
DWIDTH 20 0
BBX 4 31 8 -7
BITMAP
F0
F0
F0
F0
F0
F0
F0
F0
F0
F0
F0
F0
00
00
00
00
00
00
00
F0
F0
F0
F0
F0
F0
F0
F0
F0
F0
F0
F0
ENDCHAR
STARTCHAR 00A7
ENCODING 167
SWIDTH 600 0
DWIDTH 20 0
BBX 16 29 2 -6
BITMAP
0FF0
3FFC
7FFE
7C3E
F81E
F800
7C00
7F00
3FC0
1FF0
3FFC
7BFE
F07F
F01F
F00F
F80F
FE0F
7F9E
3FFC
0FF8
03FC
00FE
003E
001F
781E
7C3E
7FFE
3FFC
0FF0
ENDCHAR
STARTCHAR 00A8
ENCODING 168
SWIDTH 600 0
DWIDTH 20 0
BBX 12 4 4 20
BITMAP
F0F0
F0F0
F0F0
F0F0
ENDCHAR
STARTCHAR 00A9
ENCODING 169
SWIDTH 600 0
DWIDTH 20 0
BBX 20 23 0 0
BITMAP
03FC00
0FFF00
1C0380
3801C0
3060C0
71FCE0
63FE60
678E60
E70E70
CF0F30
CF0030
CF0030
CF0030
C70730
E70E70
678E60
67FE60
63FCE0
3060C0
3801C0
1C0380
0FFF00
03FC00
ENDCHAR
STARTCHAR 00AA
ENCODING 170
SWIDTH 600 0
DWIDTH 20 0
BBX 11 11 5 12
BITMAP
7F00
FF80
E380
0380
3F80
FF80
E380
E380
FFE0
FDE0
1080
ENDCHAR
STARTCHAR 00AB
ENCODING 171
SWIDTH 600 0
DWIDTH 20 0
BBX 15 12 2 5
BITMAP
0F1E
1E1E
3E3C
3C7C
7C78
F8F8
78F8
7C78
3C3C
1E3C
1E1E
0F0E
ENDCHAR
STARTCHAR 00AC
ENCODING 172
SWIDTH 600 0
DWIDTH 20 0
BBX 18 11 1 5
BITMAP
FFFFC0
FFFFC0
FFFFC0
FFFFC0
0007C0
0007C0
0007C0
0007C0
0007C0
0007C0
0007C0
ENDCHAR
STARTCHAR 00AD
ENCODING 173
SWIDTH 600 0
DWIDTH 20 0
BBX 8 4 6 7
BITMAP
FF
FF
FF
FF
ENDCHAR
STARTCHAR 00AE
ENCODING 174
SWIDTH 600 0
DWIDTH 20 0
BBX 20 23 0 0
BITMAP
03FC00
0FFF00
1C0380
3801C0
3000C0
77FCE0
67FE60
678F60
E78F70
C78F30
C7FE30
C7F830
C7FE30
C78E30
E78E70
678F60
678F60
678FE0
3783C0
3801C0
1C0380
0FFF00
03FC00
ENDCHAR
STARTCHAR 00AF
ENCODING 175
SWIDTH 600 0
DWIDTH 20 0
BBX 12 3 4 20
BITMAP
FFF0
FFF0
FFF0
ENDCHAR
STARTCHAR 00B0
ENCODING 176
SWIDTH 600 0
DWIDTH 20 0
BBX 10 10 5 13
BITMAP
3F00
7F80
F3C0
E1C0
E1C0
E1C0
E1C0
7F80
7F80
1E00
ENDCHAR
STARTCHAR 00B1
ENCODING 177
SWIDTH 600 0
DWIDTH 20 0
BBX 18 17 1 0
BITMAP
01E000
01E000
01E000
01E000
FFFFC0
FFFFC0
FFFFC0
FFFFC0
01E000
01E000
01E000
01E000
000000
7FFFC0
7FFFC0
7FFFC0
7FFFC0
ENDCHAR
STARTCHAR 00B2
ENCODING 178
SWIDTH 600 0
DWIDTH 20 0
BBX 10 13 5 14
BITMAP
1E00
7F80
7F80
E380
E3C0
0380
0780
0F00
1E00
7800
7FC0
FFC0
FFC0
ENDCHAR
STARTCHAR 00B3
ENCODING 179
SWIDTH 600 0
DWIDTH 20 0
BBX 10 13 5 14
BITMAP
1E00
7F80
7F80
E380
0180
0780
1F00
1F80
01C0
E1C0
E3C0
7F80
3F00
ENDCHAR
STARTCHAR 00B4
ENCODING 180
SWIDTH 600 0
DWIDTH 20 0
BBX 8 5 6 20
BITMAP
1F
3C
3C
78
F0
ENDCHAR
STARTCHAR 00B5
ENCODING 181
SWIDTH 600 0
DWIDTH 20 0
BBX 17 22 2 -5
BITMAP
F83F00
F83F00
F83F00
F83F00
F83F00
F83F00
F83F00
F83F00
F83F00
F83F00
F83F00
F83F00
FC3F00
FFFF00
FFFF80
FFFF80
FFCF80
F80000
F80000
F80000
F80000
F80000
ENDCHAR
STARTCHAR 00B6
ENCODING 182
SWIDTH 600 0
DWIDTH 20 0
BBX 17 28 1 -5
BITMAP
07FF80
1FFF80
3FCE00
7FCE00
7FCE00
FFCE00
FFCE00
FFCE00
FFCE00
FFCE00
7FCE00
7FCE00
3FCE00
0FCE00
03CE00
01CE00
01CE00
01CE00
01CE00
01CE00
01CE00
01CE00
01CE00
01CE00
01CE00
01CE00
01CE00
01CE00
ENDCHAR
STARTCHAR 00B7
ENCODING 183
SWIDTH 600 0
DWIDTH 20 0
BBX 6 5 7 10
BITMAP
FC
FC
FC
FC
FC
ENDCHAR
STARTCHAR 00B8
ENCODING 184
SWIDTH 600 0
DWIDTH 20 0
BBX 8 6 6 -7
BITMAP
1C
1F
07
47
FE
7C
ENDCHAR
STARTCHAR 00B9
ENCODING 185
SWIDTH 600 0
DWIDTH 20 0
BBX 8 13 6 14
BITMAP
08
38
F8
F8
38
38
38
38
38
38
38
FF
FF
ENDCHAR
STARTCHAR 00BA
ENCODING 186
SWIDTH 600 0
DWIDTH 20 0
BBX 10 10 5 13
BITMAP
3F00
7F80
F3C0
E1C0
E1C0
E1C0
E1C0
F3C0
7F80
3F00
ENDCHAR
STARTCHAR 00BB
ENCODING 187
SWIDTH 600 0
DWIDTH 20 0
BBX 15 12 3 5
BITMAP
F1E0
F0F0
78F8
7C78
3C7C
3E3E
3E3C
3C7C
7878
78F0
F0F0
E1E0
ENDCHAR
STARTCHAR 00BC
ENCODING 188
SWIDTH 600 0
DWIDTH 20 0
BBX 20 23 0 0
BITMAP
040070
3C00E0
FC01C0
FC0180
1C0380
1C0700
1C0E00
1C0C00
1C1C00
1C2000
1C0700
FF0700
FF0640
004EC0
018CC0
031CC0
0718C0
0E38C0
1C3FF0
1C3FF0
3800C0
7000C0
F000C0
ENDCHAR
STARTCHAR 00BD
ENCODING 189
SWIDTH 600 0
DWIDTH 20 0
BBX 20 23 0 0
BITMAP
040070
3C00E0
FC01C0
FC0380
1C0380
1C0700
1C0E00
1C0C00
1C1C00
1C2000
1C07C0
FF0FE0
FF1FF0
005C70
039C70
030070
0700E0
0E03C0
1C0780
1C0F00
381FF0
701FF0
E01FF0
ENDCHAR
STARTCHAR 00BE
ENCODING 190
SWIDTH 600 0
DWIDTH 20 0
BBX 20 24 0 0
BITMAP
1E0000
7F0070
7F80E0
E381C0
038180
078380
1F0700
1F8E00
01CC00
E1DC00
E3E000
FF8700
7F0700
000640
004EC0
018CC0
031CC0
0718C0
0E38C0
1C3FF0
1C3FF0
3800C0
7000C0
F000C0
ENDCHAR
STARTCHAR 00BF
ENCODING 191
SWIDTH 600 0
DWIDTH 20 0
BBX 16 23 2 -6
BITMAP
07C0
07C0
07C0
07C0
07C0
0000
0000
07C0
07C0
07C0
0FC0
1F80
7F00
7E00
FC00
FC1F
F81F
FC1F
FC3F
7FFE
7FFC
3FF8
0FE0
ENDCHAR
STARTCHAR 00C0
ENCODING 192
SWIDTH 600 0
DWIDTH 20 0
BBX 20 30 0 0
BITMAP
0F8000
07C000
03E000
01E000
00F000
000000
000000
03FC00
03FC00
03FC00
03FC00
07FE00
07FE00
07BE00
0F9F00
0F9F00
0F9F00
0F1F00
1F0F80
1F0F80
1F0F80
1E0F80
3FFFC0
3FFFC0
3FFFC0
7E07E0
7C07E0
7C03E0
7C03E0
FC03F0
ENDCHAR
STARTCHAR 00C1
ENCODING 193
SWIDTH 600 0
DWIDTH 20 0
BBX 20 30 0 0
BITMAP
001F00
003E00
003C00
007800
00F000
000000
000000
03FC00
03FC00
03FC00
03FC00
07FE00
07FE00
07BE00
0F9F00
0F9F00
0F9F00
0F1F00
1F0F80
1F0F80
1F0F80
1E0F80
3FFFC0
3FFFC0
3FFFC0
7E07E0
7C07E0
7C03E0
7C03E0
FC03F0
ENDCHAR
STARTCHAR 00C2
ENCODING 194
SWIDTH 600 0
DWIDTH 20 0
BBX 20 30 0 0
BITMAP
00F000
01F800
03FC00
079E00
0F0F00
000000
000000
03FC00
03FC00
03FC00
03FC00
07FE00
07FE00
07BE00
0F9F00
0F9F00
0F9F00
0F1F00
1F0F80
1F0F80
1F0F80
1E0F80
3FFFC0
3FFFC0
3FFFC0
7E07E0
7C07E0
7C03E0
7C03E0
FC03F0
ENDCHAR
STARTCHAR 00C3
ENCODING 195
SWIDTH 600 0
DWIDTH 20 0
BBX 20 30 0 0
BITMAP
030380
07E700
0FFF00
0FFF00
0C3C00
100000
000000
03FC00
03FC00
03FC00
03FC00
07FE00
07FE00
07BE00
0F9F00
0F9F00
0F9F00
0F1F00
1F0F80
1F0F80
1F0F80
1E0F80
3FFFC0
3FFFC0
3FFFC0
7E07E0
7C07E0
7C03E0
7C03E0
FC03F0
ENDCHAR
STARTCHAR 00C4
ENCODING 196
SWIDTH 600 0
DWIDTH 20 0
BBX 20 29 0 0
BITMAP
0F0F00
0F0F00
0F0F00
0F0F00
000000
000000
03FC00
03FC00
03FC00
03FC00
07FE00
07FE00
07BE00
0F9F00
0F9F00
0F9F00
0F1F00
1F0F80
1F0F80
1F0F80
1E0F80
3FFFC0
3FFFC0
3FFFC0
7E07E0
7C07E0
7C03E0
7C03E0
FC03F0
ENDCHAR
STARTCHAR 00C5
ENCODING 197
SWIDTH 600 0
DWIDTH 20 0
BBX 20 32 0 0
BITMAP
006000
01F800
01F800
039C00
039C00
01F800
00F000
000000
000000
03FC00
03FC00
03FC00
03FC00
07FE00
07FE00
07BE00
0F9F00
0F9F00
0F9F00
0F1F00
1F0F80
1F0F80
1F0F80
1E0F80
3FFFC0
3FFFC0
3FFFC0
7E07E0
7C07E0
7C03E0
7C03E0
FC03F0
ENDCHAR
STARTCHAR 00C6
ENCODING 198
SWIDTH 600 0
DWIDTH 20 0
BBX 20 23 0 0
BITMAP
07FFF0
07FFF0
07FFE0
07FFE0
0FFC00
0FFC00
0FFC00
0F7C00
0F7C00
1F7FE0
1F7FE0
1F7FE0
1E7FE0
3E7C00
3E7C00
3FFC00
3FFC00
7FFC00
7C7C00
7C7FE0
7C7FF0
FC7FF0
F87FF0
ENDCHAR
STARTCHAR 00C7
ENCODING 199
SWIDTH 600 0
DWIDTH 20 0
BBX 18 30 1 -7
BITMAP
07F800
1FFE00
3FFF00
7FFF00
7E1F80
FC0F80
FC0FC0
F80FC0
F807C0
F80000
F80000
F80000
F80000
F80000
F807C0
F807C0
F807C0
FC0F80
FE1F80
7FFF00
3FFF00
1FFE00
0FF800
000000
00E000
00F800
003800
023800
07F000
03E000
ENDCHAR
STARTCHAR 00C8
ENCODING 200
SWIDTH 600 0
DWIDTH 20 0
BBX 16 30 2 0
BITMAP
1E00
0F00
0F80
07C0
03E0
0000
0000
FFFF
FFFF
FFFF
FFFF
FC00
FC00
FC00
FC00
FC00
FFFE
FFFE
FFFE
FFFE
FC00
FC00
FC00
FC00
FC00
FC00
FFFF
FFFF
FFFF
FFFF
ENDCHAR
STARTCHAR 00C9
ENCODING 201
SWIDTH 600 0
DWIDTH 20 0
BBX 16 30 2 0
BITMAP
007C
0078
00F0
01E0
03C0
0000
0000
FFFF
FFFF
FFFF
FFFF
FC00
FC00
FC00
FC00
FC00
FFFE
FFFE
FFFE
FFFE
FC00
FC00
FC00
FC00
FC00
FC00
FFFF
FFFF
FFFF
FFFF
ENDCHAR
STARTCHAR 00CA
ENCODING 202
SWIDTH 600 0
DWIDTH 20 0
BBX 16 30 2 0
BITMAP
03E0
07F0
0F70
1E78
3C3C
0000
0000
FFFF
FFFF
FFFF
FFFF
FC00
FC00
FC00
FC00
FC00
FFFE
FFFE
FFFE
FFFE
FC00
FC00
FC00
FC00
FC00
FC00
FFFF
FFFF
FFFF
FFFF
ENDCHAR
STARTCHAR 00CB
ENCODING 203
SWIDTH 600 0
DWIDTH 20 0
BBX 16 29 2 0
BITMAP
3C3C
3C3C
3C3C
3C3C
0000
0000
FFFF
FFFF
FFFF
FFFF
FC00
FC00
FC00
FC00
FC00
FFFE
FFFE
FFFE
FFFE
FC00
FC00
FC00
FC00
FC00
FC00
FFFF
FFFF
FFFF
FFFF
ENDCHAR
STARTCHAR 00CC
ENCODING 204
SWIDTH 600 0
DWIDTH 20 0
BBX 15 30 3 0
BITMAP
7C00
3E00
1F00
0F00
0780
0000
0000
FFFE
FFFE
FFFE
FFFE
0FC0
0FC0
0FC0
0FC0
0FC0
0FC0
0FC0
0FC0
0FC0
0FC0
0FC0
0FC0
0FC0
0FC0
0FC0
FFFE
FFFE
FFFE
FFFE
ENDCHAR
STARTCHAR 00CD
ENCODING 205
SWIDTH 600 0
DWIDTH 20 0
BBX 15 30 3 0
BITMAP
00F8
01F0
01E0
03C0
0780
0000
0000
FFFE
FFFE
FFFE
FFFE
0FC0
0FC0
0FC0
0FC0
0FC0
0FC0
0FC0
0FC0
0FC0
0FC0
0FC0
0FC0
0FC0
0FC0
0FC0
FFFE
FFFE
FFFE
FFFE
ENDCHAR
STARTCHAR 00CE
ENCODING 206
SWIDTH 600 0
DWIDTH 20 0
BBX 15 30 3 0
BITMAP
0780
0FC0
1FE0
3CF0
7878
0000
0000
FFFE
FFFE
FFFE
FFFE
0FC0
0FC0
0FC0
0FC0
0FC0
0FC0
0FC0
0FC0
0FC0
0FC0
0FC0
0FC0
0FC0
0FC0
0FC0
FFFE
FFFE
FFFE
FFFE
ENDCHAR
STARTCHAR 00CF
ENCODING 207
SWIDTH 600 0
DWIDTH 20 0
BBX 15 29 3 0
BITMAP
7878
7878
7878
7878
0000
0000
FFFE
FFFE
FFFE
FFFE
0FC0
0FC0
0FC0
0FC0
0FC0
0FC0
0FC0
0FC0
0FC0
0FC0
0FC0
0FC0
0FC0
0FC0
0FC0
FFFE
FFFE
FFFE
FFFE
ENDCHAR
STARTCHAR 00D0
ENCODING 208
SWIDTH 600 0
DWIDTH 20 0
BBX 20 23 0 0
BITMAP
3FFC00
3FFF00
3FFF80
3FFFC0
3E1FE0
3E07E0
3E03F0
3E03F0
3E03F0
3E03F0
FFF3F0
FFF3F0
FFF3F0
3E03F0
3E03F0
3E03F0
3E03F0
3E07E0
3E1FE0
3FFFC0
3FFF80
3FFF00
3FFC00
ENDCHAR
STARTCHAR 00D1
ENCODING 209
SWIDTH 600 0
DWIDTH 20 0
BBX 16 30 2 0
BITMAP
0C0E
1F9C
3FFC
3FFC
30F0
4000
0000
F81F
FC1F
FC1F
FE1F
FE1F
FF1F
FF1F
FF1F
FF9F
FF9F
FFDF
FBDF
FBFF
FBFF
F9FF
F9FF
F8FF
F8FF
F87F
F87F
F83F
F83F
F81F
ENDCHAR
STARTCHAR 00D2
ENCODING 210
SWIDTH 600 0
DWIDTH 20 0
BBX 18 30 1 0
BITMAP
1F0000
0F8000
07C000
03C000
01E000
000000
000000
07F800
1FFE00
3FFF00
7FFF80
7E1F80
FC0FC0
FC07C0
F807C0
F807C0
F807C0
F807C0
F807C0
F807C0
F807C0
F807C0
F807C0
F807C0
FC0FC0
FE1FC0
7FFF80
3FFF00
1FFE00
0FFC00
ENDCHAR
STARTCHAR 00D3
ENCODING 211
SWIDTH 600 0
DWIDTH 20 0
BBX 18 30 1 0
BITMAP
003E00
007C00
007800
00F000
01E000
000000
000000
07F800
1FFE00
3FFF00
7FFF80
7E1F80
FC0FC0
FC07C0
F807C0
F807C0
F807C0
F807C0
F807C0
F807C0
F807C0
F807C0
F807C0
F807C0
FC0FC0
FE1FC0
7FFF80
3FFF00
1FFE00
0FFC00
ENDCHAR
STARTCHAR 00D4
ENCODING 212
SWIDTH 600 0
DWIDTH 20 0
BBX 18 30 1 0
BITMAP
01E000
03F000
07F800
0F3C00
1E1E00
000000
000000
07F800
1FFE00
3FFF00
7FFF80
7E1F80
FC0FC0
FC07C0
F807C0
F807C0
F807C0
F807C0
F807C0
F807C0
F807C0
F807C0
F807C0
F807C0
FC0FC0
FE1FC0
7FFF80
3FFF00
1FFE00
0FFC00
ENDCHAR
STARTCHAR 00D5
ENCODING 213
SWIDTH 600 0
DWIDTH 20 0
BBX 18 30 1 0
BITMAP
060700
0FCE00
1FFE00
1FFE00
187800
200000
000000
07F800
1FFE00
3FFF00
7FFF80
7E1F80
FC0FC0
FC07C0
F807C0
F807C0
F807C0
F807C0
F807C0
F807C0
F807C0
F807C0
F807C0
F807C0
FC0FC0
FE1FC0
7FFF80
3FFF00
1FFE00
0FFC00
ENDCHAR
STARTCHAR 00D6
ENCODING 214
SWIDTH 600 0
DWIDTH 20 0
BBX 18 29 1 0
BITMAP
1E1E00
1E1E00
1E1E00
1E1E00
000000
000000
07F800
1FFE00
3FFF00
7FFF80
7E1F80
FC0FC0
FC07C0
F807C0
F807C0
F807C0
F807C0
F807C0
F807C0
F807C0
F807C0
F807C0
F807C0
FC0FC0
FE1FC0
7FFF80
3FFF00
1FFE00
0FFC00
ENDCHAR
STARTCHAR 00D7
ENCODING 215
SWIDTH 600 0
DWIDTH 20 0
BBX 14 15 3 1
BITMAP
2010
7038
F87C
FCFC
7FF8
3FF0
1FE0
0FC0
1FE0
3FF0
7FF8
FCFC
F87C
7038
2010
ENDCHAR
STARTCHAR 00D8
ENCODING 216
SWIDTH 600 0
DWIDTH 20 0
BBX 20 27 0 -2
BITMAP
0000F0
0000E0
03FDC0
0FFFC0
1FFF80
3FFFC0
3F0FC0
7E0FE0
7E0FE0
7C1FE0
7C3BE0
7C3BE0
7C73E0
7C73E0
7CE3E0
7DC3E0
7DC3E0
7F83E0
7F83E0
7F07E0
7F0FE0
3FFFC0
1FFF80
3FFF00
3FFE00
700000
F00000
ENDCHAR
STARTCHAR 00D9
ENCODING 217
SWIDTH 600 0
DWIDTH 20 0
BBX 18 30 1 0
BITMAP
1F0000
0F8000
07C000
03C000
01E000
000000
000000
FC0FC0
FC0FC0
FC0FC0
FC0FC0
FC0FC0
FC0FC0
FC0FC0
FC0FC0
FC0FC0
FC0FC0
FC0FC0
FC0FC0
FC0FC0
FC0FC0
FC0FC0
FC0FC0
FC0FC0
7C0F80
7E1F80
7FFF80
3FFF00
1FFE00
0FFC00
ENDCHAR
STARTCHAR 00DA
ENCODING 218
SWIDTH 600 0
DWIDTH 20 0
BBX 18 30 1 0
BITMAP
003E00
007C00
007800
00F000
01E000
000000
000000
FC0FC0
FC0FC0
FC0FC0
FC0FC0
FC0FC0
FC0FC0
FC0FC0
FC0FC0
FC0FC0
FC0FC0
FC0FC0
FC0FC0
FC0FC0
FC0FC0
FC0FC0
FC0FC0
FC0FC0
7C0F80
7E1F80
7FFF80
3FFF00
1FFE00
0FFC00
ENDCHAR
STARTCHAR 00DB
ENCODING 219
SWIDTH 600 0
DWIDTH 20 0
BBX 18 30 1 0
BITMAP
01E000
03F000
07F800
0F3C00
1E1E00
000000
000000
FC0FC0
FC0FC0
FC0FC0
FC0FC0
FC0FC0
FC0FC0
FC0FC0
FC0FC0
FC0FC0
FC0FC0
FC0FC0
FC0FC0
FC0FC0
FC0FC0
FC0FC0
FC0FC0
FC0FC0
7C0F80
7E1F80
7FFF80
3FFF00
1FFE00
0FFC00
ENDCHAR
STARTCHAR 00DC
ENCODING 220
SWIDTH 600 0
DWIDTH 20 0
BBX 18 29 1 0
BITMAP
1E1E00
1E1E00
1E1E00
1E1E00
000000
000000
FC0FC0
FC0FC0
FC0FC0
FC0FC0
FC0FC0
FC0FC0
FC0FC0
FC0FC0
FC0FC0
FC0FC0
FC0FC0
FC0FC0
FC0FC0
FC0FC0
FC0FC0
FC0FC0
FC0FC0
7C0F80
7E1F80
7FFF80
3FFF00
1FFE00
0FFC00
ENDCHAR
STARTCHAR 00DD
ENCODING 221
SWIDTH 600 0
DWIDTH 20 0
BBX 20 30 0 0
BITMAP
001F00
003E00
003C00
007800
00F000
000000
000000
FC03F0
7E03E0
7E07E0
3F07C0
3F0FC0
1F8F80
1F9F80
0F9F00
0FDF00
07FE00
07FE00
03FC00
03FC00
01F800
01F800
01F800
01F800
01F800
01F800
01F800
01F800
01F800
01F800
ENDCHAR
STARTCHAR 00DE
ENCODING 222
SWIDTH 600 0
DWIDTH 20 0
BBX 18 23 2 0
BITMAP
F80000
F80000
F80000
F80000
FFF800
FFFE00
FFFF00
FFFF80
F81F80
F80F80
F80FC0
F80F80
F80F80
F81F80
FFFF80
FFFF00
FFFE00
FFF800
F80000
F80000
F80000
F80000
F80000
ENDCHAR
STARTCHAR 00DF
ENCODING 223
SWIDTH 600 0
DWIDTH 20 0
BBX 19 26 0 -2
BITMAP
03FE00
07FF00
0FFF80
1FFFC0
1F87C0
1F07E0
3F03E0
FF07C0
FF07C0
FF1F80
FF7F00
3F7F00
3F7FC0
3F07C0
3F03E0
3F03E0
3F03E0
3F03E0
3F03E0
3F07E0
3F7FC0
3F7FC0
3F7F80
3F7E00
3F0000
3F0000
ENDCHAR
STARTCHAR 00E0
ENCODING 224
SWIDTH 600 0
DWIDTH 20 0
BBX 17 25 2 0
BITMAP
1F0000
0F0000
078000
078000
03C000
000000
000000
000000
1FF800
3FFC00
7FFE00
FC3E00
F83E00
003E00
003E00
1FFE00
7FFE00
FE3E00
F83E00
F83E00
F83E00
F87E00
FFFF80
7FDF80
3F9F80
ENDCHAR
STARTCHAR 00E1
ENCODING 225
SWIDTH 600 0
DWIDTH 20 0
BBX 17 25 2 0
BITMAP
00F000
01E000
01E000
03C000
038000
040000
000000
000000
1FF800
3FFC00
7FFE00
FC3E00
F83E00
003E00
003E00
1FFE00
7FFE00
FE3E00
F83E00
F83E00
F83E00
F87E00
FFFF80
7FDF80
3F9F80
ENDCHAR
STARTCHAR 00E2
ENCODING 226
SWIDTH 600 0
DWIDTH 20 0
BBX 17 25 2 0
BITMAP
07C000
0FE000
0EF000
1E7800
3C7800
783C00
000000
000000
1FF800
3FFC00
7FFE00
FC3E00
F83E00
003E00
003E00
1FFE00
7FFE00
FE3E00
F83E00
F83E00
F83E00
F87E00
FFFF80
7FDF80
3F9F80
ENDCHAR
STARTCHAR 00E3
ENCODING 227
SWIDTH 600 0
DWIDTH 20 0
BBX 17 25 2 0
BITMAP
1E0C00
3F8C00
3FFC00
77F800
70F800
000000
000000
000000
1FF800
3FFC00
7FFE00
FC3E00
F83E00
003E00
003E00
1FFE00
7FFE00
FE3E00
F83E00
F83E00
F83E00
F87E00
FFFF80
7FDF80
3F9F80
ENDCHAR
STARTCHAR 00E4
ENCODING 228
SWIDTH 600 0
DWIDTH 20 0
BBX 17 24 2 0
BITMAP
3C3C00
3C3C00
3C3C00
3C3C00
000000
000000
000000
1FF800
3FFC00
7FFE00
FC3E00
F83E00
003E00
003E00
1FFE00
7FFE00
FE3E00
F83E00
F83E00
F83E00
F87E00
FFFF80
7FDF80
3F9F80
ENDCHAR
STARTCHAR 00E5
ENCODING 229
SWIDTH 600 0
DWIDTH 20 0
BBX 17 26 2 0
BITMAP
07C000
07E000
0C6000
0C6000
0EE000
07C000
010000
000000
000000
1FF800
3FFC00
7FFE00
FC3E00
F83E00
003E00
003E00
1FFE00
7FFE00
FE3E00
F83E00
F83E00
F83E00
F87E00
FFFF80
7FDF80
3F9F80
ENDCHAR
STARTCHAR 00E6
ENCODING 230
SWIDTH 600 0
DWIDTH 20 0
BBX 20 17 0 0
BITMAP
1F8F80
3FDFC0
7FFFE0
79F9E0
70F8E0
00F0F0
00F0F0
1FFFF0
3FFFF0
7CF000
F0F000
F0F0F0
F0F8F0
F1F8E0
7FFFE0
7FBFC0
3F1F80
ENDCHAR
STARTCHAR 00E7
ENCODING 231
SWIDTH 600 0
DWIDTH 20 0
BBX 17 24 1 -7
BITMAP
07F800
1FFE00
3FFE00
3E1F00
7C0F00
7C0F80
FC0F80
FC0000
FC0000
FC0000
7C0F80
7C0F80
7C0F00
3E1F00
3FFE00
1FFE00
07F800
000000
00E000
00F800
003800
023800
07F000
03E000
ENDCHAR
STARTCHAR 00E8
ENCODING 232
SWIDTH 600 0
DWIDTH 20 0
BBX 17 25 1 0
BITMAP
0F8000
03C000
03C000
01E000
00E000
001000
000000
000000
07FC00
1FFE00
3FFF00
3E1F80
7E0F80
7C0F80
7C0F80
FFFF80
FFFF80
FC0000
7C0000
7C0F80
7C0F80
7E1F80
3FFF00
1FFE00
07FC00
ENDCHAR
STARTCHAR 00E9
ENCODING 233
SWIDTH 600 0
DWIDTH 20 0
BBX 17 25 1 0
BITMAP
007C00
007800
00F000
00F000
01E000
000000
000000
000000
07FC00
1FFE00
3FFF00
3E1F80
7E0F80
7C0F80
7C0F80
FFFF80
FFFF80
FC0000
7C0000
7C0F80
7C0F80
7E1F80
3FFF00
1FFE00
07FC00
ENDCHAR
STARTCHAR 00EA
ENCODING 234
SWIDTH 600 0
DWIDTH 20 0
BBX 17 25 1 0
BITMAP
01F000
03F800
07B800
0F3C00
0E1E00
1E0F00
000000
000000
07FC00
1FFE00
3FFF00
3E1F80
7E0F80
7C0F80
7C0F80
FFFF80
FFFF80
FC0000
7C0000
7C0F80
7C0F80
7E1F80
3FFF00
1FFE00
07FC00
ENDCHAR
STARTCHAR 00EB
ENCODING 235
SWIDTH 600 0
DWIDTH 20 0
BBX 17 24 1 0
BITMAP
1E1E00
1E1E00
1E1E00
1E1E00
000000
000000
000000
07FC00
1FFE00
3FFF00
3E1F80
7E0F80
7C0F80
7C0F80
FFFF80
FFFF80
FC0000
7C0000
7C0F80
7C0F80
7E1F80
3FFF00
1FFE00
07FC00
ENDCHAR
STARTCHAR 00EC
ENCODING 236
SWIDTH 600 0
DWIDTH 20 0
BBX 16 25 3 0
BITMAP
1F00
0F00
0780
0780
03C0
0000
0000
0000
FFE0
FFE0
FFE0
FFE0
07E0
07E0
07E0
07E0
07E0
07E0
07E0
07E0
07E0
FFFF
FFFF
FFFF
FFFF
ENDCHAR
STARTCHAR 00ED
ENCODING 237
SWIDTH 600 0
DWIDTH 20 0
BBX 16 25 3 0
BITMAP
00F8
01E0
01E0
03C0
0380
0400
0000
0000
FFE0
FFE0
FFE0
FFE0
07E0
07E0
07E0
07E0
07E0
07E0
07E0
07E0
07E0
FFFF
FFFF
FFFF
FFFF
ENDCHAR
STARTCHAR 00EE
ENCODING 238
SWIDTH 600 0
DWIDTH 20 0
BBX 16 25 3 0
BITMAP
07C0
0FE0
0FF0
1E78
3C38
783C
0000
0000
FFE0
FFE0
FFE0
FFE0
07E0
07E0
07E0
07E0
07E0
07E0
07E0
07E0
07E0
FFFF
FFFF
FFFF
FFFF
ENDCHAR
STARTCHAR 00EF
ENCODING 239
SWIDTH 600 0
DWIDTH 20 0
BBX 16 24 3 0
BITMAP
3C3C
3C3C
3C3C
3C3C
0000
0000
0000
FFE0
FFE0
FFE0
FFE0
07E0
07E0
07E0
07E0
07E0
07E0
07E0
07E0
07E0
FFFF
FFFF
FFFF
FFFF
ENDCHAR
STARTCHAR 00F0
ENCODING 240
SWIDTH 600 0
DWIDTH 20 0
BBX 18 25 1 0
BITMAP
040000
3F3000
0FF800
07E000
0FF000
3DF800
08FC00
007E00
0FFE00
1FFF00
3FFF00
7E1F80
7C0F80
7C0F80
FC0FC0
FC0FC0
FC0FC0
FC0FC0
FC0FC0
7C0F80
7C0F80
7E1F80
3FFF00
1FFE00
07F800
ENDCHAR
STARTCHAR 00F1
ENCODING 241
SWIDTH 600 0
DWIDTH 20 0
BBX 16 25 2 0
BITMAP
0E0E
1F8E
3FFC
3BFC
70F8
0000
0000
0000
FBF8
FFFE
FFFE
FFFF
FC3F
FC1F
FC1F
FC1F
FC1F
FC1F
FC1F
FC1F
FC1F
FC1F
FC1F
FC1F
FC1F
ENDCHAR
STARTCHAR 00F2
ENCODING 242
SWIDTH 600 0
DWIDTH 20 0
BBX 18 25 1 0
BITMAP
0F8000
07C000
03C000
01C000
01E000
000000
000000
000000
07F800
1FFE00
3FFF00
7E1F00
7C0F80
7C0F80
FC0FC0
FC0FC0
FC0FC0
FC0FC0
FC0FC0
7C0F80
7C0F80
3E1F00
3FFF00
1FFE00
07F800
ENDCHAR
STARTCHAR 00F3
ENCODING 243
SWIDTH 600 0
DWIDTH 20 0
BBX 18 25 1 0
BITMAP
007C00
00F800
00F000
01E000
01E000
020000
000000
000000
07F800
1FFE00
3FFF00
7E1F00
7C0F80
7C0F80
FC0FC0
FC0FC0
FC0FC0
FC0FC0
FC0FC0
7C0F80
7C0F80
3E1F00
3FFF00
1FFE00
07F800
ENDCHAR
STARTCHAR 00F4
ENCODING 244
SWIDTH 600 0
DWIDTH 20 0
BBX 18 25 1 0
BITMAP
03F000
03F000
07F800
0F3C00
1E1E00
1C1E00
000000
000000
07F800
1FFE00
3FFF00
7E1F00
7C0F80
7C0F80
FC0FC0
FC0FC0
FC0FC0
FC0FC0
FC0FC0
7C0F80
7C0F80
3E1F00
3FFF00
1FFE00
07F800
ENDCHAR
STARTCHAR 00F5
ENCODING 245
SWIDTH 600 0
DWIDTH 20 0
BBX 18 25 1 0
BITMAP
070700
0FC700
1FFE00
1DFE00
387C00
000000
000000
000000
07F800
1FFE00
3FFF00
7E1F00
7C0F80
7C0F80
FC0FC0
FC0FC0
FC0FC0
FC0FC0
FC0FC0
7C0F80
7C0F80
3E1F00
3FFF00
1FFE00
07F800
ENDCHAR
STARTCHAR 00F6
ENCODING 246
SWIDTH 600 0
DWIDTH 20 0
BBX 18 24 1 0
BITMAP
1E1E00
1E1E00
1E1E00
1E1E00
000000
000000
000000
07F800
1FFE00
3FFF00
7E1F00
7C0F80
7C0F80
FC0FC0
FC0FC0
FC0FC0
FC0FC0
FC0FC0
7C0F80
7C0F80
3E1F00
3FFF00
1FFE00
07F800
ENDCHAR
STARTCHAR 00F7
ENCODING 247
SWIDTH 600 0
DWIDTH 20 0
BBX 18 15 1 1
BITMAP
01E000
01E000
01E000
01E000
000000
000000
FFFFC0
FFFFC0
FFFFC0
000000
000000
01E000
01E000
01E000
01E000
ENDCHAR
STARTCHAR 00F8
ENCODING 248
SWIDTH 600 0
DWIDTH 20 0
BBX 18 21 1 -2
BITMAP
000380
000700
07FE00
1FFE00
3FFF00
7E1F00
7C3F80
7C7F80
FC6FC0
FCEFC0
FCCFC0
FDCFC0
FF8FC0
7F0F80
7F0F80
3E1F00
3FFF00
1FFE00
3FF800
380000
700000
ENDCHAR
STARTCHAR 00F9
ENCODING 249
SWIDTH 600 0
DWIDTH 20 0
BBX 17 25 2 0
BITMAP
1F0000
0F0000
078000
078000
03C000
000000
000000
000000
F83F00
F83F00
F83F00
F83F00
F83F00
F83F00
F83F00
F83F00
F83F00
F83F00
F83F00
F83F00
FC3F00
FFFF00
FFFF80
7FFF80
3FCF80
ENDCHAR
STARTCHAR 00FA
ENCODING 250
SWIDTH 600 0
DWIDTH 20 0
BBX 17 25 2 0
BITMAP
00F800
01E000
01E000
03C000
038000
040000
000000
000000
F83F00
F83F00
F83F00
F83F00
F83F00
F83F00
F83F00
F83F00
F83F00
F83F00
F83F00
F83F00
FC3F00
FFFF00
FFFF80
7FFF80
3FCF80
ENDCHAR
STARTCHAR 00FB
ENCODING 251
SWIDTH 600 0
DWIDTH 20 0
BBX 17 25 2 0
BITMAP
07C000
0FE000
0FF000
1E7800
3C3800
783C00
000000
000000
F83F00
F83F00
F83F00
F83F00
F83F00
F83F00
F83F00
F83F00
F83F00
F83F00
F83F00
F83F00
FC3F00
FFFF00
FFFF80
7FFF80
3FCF80
ENDCHAR
STARTCHAR 00FC
ENCODING 252
SWIDTH 600 0
DWIDTH 20 0
BBX 17 24 2 0
BITMAP
3C3C00
3C3C00
3C3C00
3C3C00
000000
000000
000000
F83F00
F83F00
F83F00
F83F00
F83F00
F83F00
F83F00
F83F00
F83F00
F83F00
F83F00
F83F00
FC3F00
FFFF00
FFFF80
7FFF80
3FCF80
ENDCHAR
STARTCHAR 00FD
ENCODING 253
SWIDTH 600 0
DWIDTH 20 0
BBX 18 31 1 -6
BITMAP
007C00
007800
00F000
00F000
01E000
000000
000000
000000
FC07C0
7C0F80
7E0F80
7E0F80
3E1F00
3F1F00
1F1E00
1F3E00
1FBE00
0FBC00
0FFC00
07FC00
07F800
07F800
03F000
03F000
01F000
03E000
03E000
4FC000
7F8000
7F8000
7E0000
ENDCHAR
STARTCHAR 00FE
ENCODING 254
SWIDTH 600 0
DWIDTH 20 0
BBX 17 30 2 -6
BITMAP
FC0000
FC0000
FC0000
FC0000
FC0000
FC0000
FC0000
FDF800
FFFC00
FFFE00
FE3F00
FC1F00
FC1F00
FC1F80
FC1F80
FC1F80
FC1F80
FC1F80
FC1F80
FC1F00
FE3F00
FFFE00
FFFE00
FDF800
FC0000
FC0000
FC0000
FC0000
FC0000
FC0000
ENDCHAR
STARTCHAR 00FF
ENCODING 255
SWIDTH 600 0
DWIDTH 20 0
BBX 18 30 1 -6
BITMAP
1E1E00
1E1E00
1E1E00
1E1E00
000000
000000
000000
FC07C0
7C0F80
7E0F80
7E0F80
3E1F00
3F1F00
1F1E00
1F3E00
1FBE00
0FBC00
0FFC00
07FC00
07F800
07F800
03F000
03F000
01F000
03E000
03E000
4FC000
7F8000
7F8000
7E0000
ENDCHAR
STARTCHAR 0100
ENCODING 256
SWIDTH 600 0
DWIDTH 20 0
BBX 20 29 0 0
BITMAP
0FFF00
0FFF00
0FFF00
000000
000000
000000
03FC00
03FC00
03FC00
03FC00
07FE00
07FE00
07BE00
0F9F00
0F9F00
0F9F00
0F1F00
1F0F80
1F0F80
1F0F80
1E0F80
3FFFC0
3FFFC0
3FFFC0
7E07E0
7C07E0
7C03E0
7C03E0
FC03F0
ENDCHAR
STARTCHAR 0101
ENCODING 257
SWIDTH 600 0
DWIDTH 20 0
BBX 17 23 2 0
BITMAP
3FF800
3FF800
3FF800
000000
000000
000000
1FF800
3FFC00
7FFE00
FC3E00
F83E00
003E00
003E00
1FFE00
7FFE00
FE3E00
F83E00
F83E00
F83E00
F87E00
FFFF80
7FDF80
3F9F80
ENDCHAR
STARTCHAR 0102
ENCODING 258
SWIDTH 600 0
DWIDTH 20 0
BBX 20 30 0 0
BITMAP
0E0700
0F0F00
07FE00
07FC00
01F800
000000
000000
03FC00
03FC00
03FC00
03FC00
07FE00
07FE00
07BE00
0F9F00
0F9F00
0F9F00
0F1F00
1F0F80
1F0F80
1F0F80
1E0F80
3FFFC0
3FFFC0
3FFFC0
7E07E0
7C07E0
7C03E0
7C03E0
FC03F0
ENDCHAR
STARTCHAR 0103
ENCODING 259
SWIDTH 600 0
DWIDTH 20 0
BBX 17 25 2 0
BITMAP
381C00
383C00
3C7800
1FF000
0FE000
000000
000000
000000
1FF800
3FFC00
7FFE00
FC3E00
F83E00
003E00
003E00
1FFE00
7FFE00
FE3E00
F83E00
F83E00
F83E00
F87E00
FFFF80
7FDF80
3F9F80
ENDCHAR
STARTCHAR 0104
ENCODING 260
SWIDTH 600 0
DWIDTH 20 0
BBX 21 28 0 -5
BITMAP
03FC00
03FC00
03FC00
03FC00
07FE00
07FE00
07BE00
0F9F00
0F9F00
0F9F00
0F1F00
1F0F80
1F0F80
1F0F80
1E0F80
3FFFC0
3FFFC0
3FFFC0
7E07E0
7C07E0
7C03E0
7C03E0
FC03F0
0003C0
000780
000780
0007F8
0001F0
ENDCHAR
STARTCHAR 0105
ENCODING 261
SWIDTH 600 0
DWIDTH 20 0
BBX 19 22 2 -5
BITMAP
1FF800
3FFC00
7FFE00
FC3E00
F83E00
003E00
003E00
1FFE00
7FFE00
FE3E00
F83E00
F83E00
F83E00
F87E00
FFFF80
7FDF80
3F9F80
000F00
001E00
001E00
000FE0
0007C0
ENDCHAR
STARTCHAR 0106
ENCODING 262
SWIDTH 600 0
DWIDTH 20 0
BBX 18 30 1 0
BITMAP
003E00
007C00
007800
00F000
01E000
000000
000000
07F800
1FFE00
3FFF00
7FFF00
7E1F80
FC0F80
FC0FC0
F80FC0
F807C0
F80000
F80000
F80000
F80000
F80000
F807C0
F807C0
F807C0
FC0F80
FE1F80
7FFF00
3FFF00
1FFE00
0FF800
ENDCHAR
STARTCHAR 0107
ENCODING 263
SWIDTH 600 0
DWIDTH 20 0
BBX 17 25 1 0
BITMAP
007C00
00F800
00F000
01E000
01E000
020000
000000
000000
07F800
1FFE00
3FFE00
3E1F00
7C0F00
7C0F80
FC0F80
FC0000
FC0000
FC0000
7C0F80
7C0F80
7C0F00
3E1F00
3FFE00
1FFE00
07F800
ENDCHAR
STARTCHAR 0108
ENCODING 264
SWIDTH 600 0
DWIDTH 20 0
BBX 18 30 1 0
BITMAP
01E000
03F000
07F800
0F3C00
1E1E00
000000
000000
07F800
1FFE00
3FFF00
7FFF00
7E1F80
FC0F80
FC0FC0
F80FC0
F807C0
F80000
F80000
F80000
F80000
F80000
F807C0
F807C0
F807C0
FC0F80
FE1F80
7FFF00
3FFF00
1FFE00
0FF800
ENDCHAR
STARTCHAR 0109
ENCODING 265
SWIDTH 600 0
DWIDTH 20 0
BBX 17 25 1 0
BITMAP
03F000
03F000
07F800
0F3C00
1E1E00
3C1E00
000000
000000
07F800
1FFE00
3FFE00
3E1F00
7C0F00
7C0F80
FC0F80
FC0000
FC0000
FC0000
7C0F80
7C0F80
7C0F00
3E1F00
3FFE00
1FFE00
07F800
ENDCHAR
STARTCHAR 010A
ENCODING 266
SWIDTH 600 0
DWIDTH 20 0
BBX 18 29 1 0
BITMAP
01E000
01E000
01E000
01E000
000000
000000
07F800
1FFE00
3FFF00
7FFF00
7E1F80
FC0F80
FC0FC0
F80FC0
F807C0
F80000
F80000
F80000
F80000
F80000
F807C0
F807C0
F807C0
FC0F80
FE1F80
7FFF00
3FFF00
1FFE00
0FF800
ENDCHAR
STARTCHAR 010B
ENCODING 267
SWIDTH 600 0
DWIDTH 20 0
BBX 17 24 1 0
BITMAP
01E000
01E000
01E000
01E000
000000
000000
000000
07F800
1FFE00
3FFE00
3E1F00
7C0F00
7C0F80
FC0F80
FC0000
FC0000
FC0000
7C0F80
7C0F80
7C0F00
3E1F00
3FFE00
1FFE00
07F800
ENDCHAR
STARTCHAR 010C
ENCODING 268
SWIDTH 600 0
DWIDTH 20 0
BBX 18 30 1 0
BITMAP
1E1E00
0F1C00
073C00
07F800
03F000
000000
000000
07F800
1FFE00
3FFF00
7FFF00
7E1F80
FC0F80
FC0FC0
F80FC0
F807C0
F80000
F80000
F80000
F80000
F80000
F807C0
F807C0
F807C0
FC0F80
FE1F80
7FFF00
3FFF00
1FFE00
0FF800
ENDCHAR
STARTCHAR 010D
ENCODING 269
SWIDTH 600 0
DWIDTH 20 0
BBX 17 25 1 0
BITMAP
3E1E00
0F3C00
077800
07F800
03F000
01E000
000000
000000
07F800
1FFE00
3FFE00
3E1F00
7C0F00
7C0F80
FC0F80
FC0000
FC0000
FC0000
7C0F80
7C0F80
7C0F00
3E1F00
3FFE00
1FFE00
07F800
ENDCHAR
STARTCHAR 010E
ENCODING 270
SWIDTH 600 0
DWIDTH 20 0
BBX 18 30 2 0
BITMAP
3C3C00
1E3800
0E7800
0FF000
07E000
000000
000000
FFF000
FFFC00
FFFE00
FFFF00
F87F80
F81F80
F80FC0
F80FC0
F80FC0
F80FC0
F80FC0
F80FC0
F80FC0
F80FC0
F80FC0
F80FC0
F80FC0
F81F80
F87F80
FFFF00
FFFE00
FFFC00
FFF000
ENDCHAR
STARTCHAR 010F
ENCODING 271
SWIDTH 600 0
DWIDTH 20 0
BBX 23 24 1 0
BITMAP
001F80
001F9E
001F9E
001F9E
001F9E
001F9E
001F86
0FFF8E
1FFF8C
3FFF9C
7E3F98
7C1F80
FC1F80
FC1F80
FC1F80
FC1F80
FC1F80
FC1F80
FC1F80
7C1F80
7E3F80
3FFF80
3FFF80
0FCF80
ENDCHAR
STARTCHAR 0110
ENCODING 272
SWIDTH 600 0
DWIDTH 20 0
BBX 20 23 0 0
BITMAP
3FFC00
3FFF00
3FFF80
3FFFC0
3E1FE0
3E07E0
3E03F0
3E03F0
3E03F0
3E03F0
FFF3F0
FFF3F0
FFF3F0
3E03F0
3E03F0
3E03F0
3E03F0
3E07E0
3E1FE0
3FFFC0
3FFF80
3FFF00
3FFC00
ENDCHAR
STARTCHAR 0111
ENCODING 273
SWIDTH 600 0
DWIDTH 20 0
BBX 19 24 1 0
BITMAP
001F80
001F80
03FFE0
03FFE0
03FFE0
001F80
001F80
0FFF80
1FFF80
3FFF80
7E3F80
7C1F80
FC1F80
FC1F80
FC1F80
FC1F80
FC1F80
FC1F80
FC1F80
7C1F80
7E3F80
3FFF80
3FFF80
0FCF80
ENDCHAR
STARTCHAR 0112
ENCODING 274
SWIDTH 600 0
DWIDTH 20 0
BBX 16 29 2 0
BITMAP
1FFC
1FFC
1FFC
0000
0000
0000
FFFF
FFFF
FFFF
FFFF
FC00
FC00
FC00
FC00
FC00
FFFE
FFFE
FFFE
FFFE
FC00
FC00
FC00
FC00
FC00
FC00
FFFF
FFFF
FFFF
FFFF
ENDCHAR
STARTCHAR 0113
ENCODING 275
SWIDTH 600 0
DWIDTH 20 0
BBX 17 23 1 0
BITMAP
0FFE00
0FFE00
0FFE00
000000
000000
000000
07FC00
1FFE00
3FFF00
3E1F80
7E0F80
7C0F80
7C0F80
FFFF80
FFFF80
FC0000
7C0000
7C0F80
7C0F80
7E1F80
3FFF00
1FFE00
07FC00
ENDCHAR
STARTCHAR 0114
ENCODING 276
SWIDTH 600 0
DWIDTH 20 0
BBX 16 30 2 0
BITMAP
181C
1C1C
1FFC
0FF8
07E0
0000
0000
FFFF
FFFF
FFFF
FFFF
FC00
FC00
FC00
FC00
FC00
FFFE
FFFE
FFFE
FFFE
FC00
FC00
FC00
FC00
FC00
FC00
FFFF
FFFF
FFFF
FFFF
ENDCHAR
STARTCHAR 0115
ENCODING 277
SWIDTH 600 0
DWIDTH 20 0
BBX 17 25 1 0
BITMAP
1C0E00
1E0E00
0F1E00
0FFC00
07F800
000000
000000
000000
07FC00
1FFE00
3FFF00
3E1F80
7E0F80
7C0F80
7C0F80
FFFF80
FFFF80
FC0000
7C0000
7C0F80
7C0F80
7E1F80
3FFF00
1FFE00
07FC00
ENDCHAR
STARTCHAR 0116
ENCODING 278
SWIDTH 600 0
DWIDTH 20 0
BBX 16 29 2 0
BITMAP
03C0
03C0
03C0
03C0
0000
0000
FFFF
FFFF
FFFF
FFFF
FC00
FC00
FC00
FC00
FC00
FFFE
FFFE
FFFE
FFFE
FC00
FC00
FC00
FC00
FC00
FC00
FFFF
FFFF
FFFF
FFFF
ENDCHAR
STARTCHAR 0117
ENCODING 279
SWIDTH 600 0
DWIDTH 20 0
BBX 17 24 1 0
BITMAP
01E000
01E000
01E000
01E000
000000
000000
000000
07FC00
1FFE00
3FFF00
3E1F80
7E0F80
7C0F80
7C0F80
FFFF80
FFFF80
FC0000
7C0000
7C0F80
7C0F80
7E1F80
3FFF00
1FFE00
07FC00
ENDCHAR
STARTCHAR 0118
ENCODING 280
SWIDTH 600 0
DWIDTH 20 0
BBX 17 28 2 -5
BITMAP
FFFF00
FFFF00
FFFF00
FFFF00
FC0000
FC0000
FC0000
FC0000
FC0000
FFFE00
FFFE00
FFFE00
FFFE00
FC0000
FC0000
FC0000
FC0000
FC0000
FC0000
FFFF00
FFFF00
FFFF00
FFFF00
003C00
003800
003800
003F80
001F00
ENDCHAR
STARTCHAR 0119
ENCODING 281
SWIDTH 600 0
DWIDTH 20 0
BBX 17 22 1 -5
BITMAP
07FC00
1FFE00
3FFF00
3E1F80
7E0F80
7C0F80
7C0F80
FFFF80
FFFF80
FC0000
7C0000
7C0F80
7C0F80
7E1F80
3FFF00
1FFE00
07FC00
00E000
01E000
01E000
01FE00
00F800
ENDCHAR
STARTCHAR 011A
ENCODING 282
SWIDTH 600 0
DWIDTH 20 0
BBX 16 30 2 0
BITMAP
3C1E
1E3C
0F78
07F0
07E0
0000
0000
FFFF
FFFF
FFFF
FFFF
FC00
FC00
FC00
FC00
FC00
FFFE
FFFE
FFFE
FFFE
FC00
FC00
FC00
FC00
FC00
FC00
FFFF
FFFF
FFFF
FFFF
ENDCHAR
STARTCHAR 011B
ENCODING 283
SWIDTH 600 0
DWIDTH 20 0
BBX 17 25 1 0
BITMAP
1E1F00
0F3C00
07BC00
03F800
03F000
01E000
000000
000000
07FC00
1FFE00
3FFF00
3E1F80
7E0F80
7C0F80
7C0F80
FFFF80
FFFF80
FC0000
7C0000
7C0F80
7C0F80
7E1F80
3FFF00
1FFE00
07FC00
ENDCHAR
STARTCHAR 011C
ENCODING 284
SWIDTH 600 0
DWIDTH 20 0
BBX 18 30 1 0
BITMAP
03E000
03F000
07F800
0F3C00
1E1E00
000000
000000
07F800
1FFE00
3FFF00
7FFF80
7E1F80
FC0FC0
F807C0
F807C0
F80000
F80000
F87FC0
F87FC0
F87FC0
F87FC0
F807C0
F807C0
F807C0
FC0FC0
FE1FC0
7FFFC0
3FFFC0
1FF9C0
0FF1C0
ENDCHAR
STARTCHAR 011D
ENCODING 285
SWIDTH 600 0
DWIDTH 20 0
BBX 19 31 1 -6
BITMAP
03E000
03F000
07F800
0F3C00
1E1E00
000000
0000E0
0001E0
0FFFC0
1FFF80
3FFF00
3E0F80
7C0F80
7C0F80
3E0F80
3FBF00
1FFF00
1FFC00
3E0000
7C0000
7C0000
7FFF00
3FFF80
3FFFC0
7FFFC0
F807E0
F003E0
F803C0
FFFFC0
7FFF80
3FFF00
ENDCHAR
STARTCHAR 011E
ENCODING 286
SWIDTH 600 0
DWIDTH 20 0
BBX 18 30 1 0
BITMAP
1C0E00
1E1E00
0FFC00
0FF800
03F000
000000
000000
07F800
1FFE00
3FFF00
7FFF80
7E1F80
FC0FC0
F807C0
F807C0
F80000
F80000
F87FC0
F87FC0
F87FC0
F87FC0
F807C0
F807C0
F807C0
FC0FC0
FE1FC0
7FFFC0
3FFFC0
1FF9C0
0FF1C0
ENDCHAR
STARTCHAR 011F
ENCODING 287
SWIDTH 600 0
DWIDTH 20 0
BBX 19 31 1 -6
BITMAP
1C0E00
1C0E00
1F3C00
0FFC00
07F800
0003E0
0003C0
0007C0
0FFF80
1FFE00
3FFF00
3E0F80
7C0F80
7C0F80
3E0F80
3FBF00
1FFF00
1FFC00
3E0000
7C0000
7C0000
7FFF00
3FFF80
3FFFC0
7FFFC0
F807E0
F003E0
F803C0
FFFFC0
7FFF80
3FFF00
ENDCHAR
STARTCHAR 0120
ENCODING 288
SWIDTH 600 0
DWIDTH 20 0
BBX 18 29 1 0
BITMAP
01E000
01E000
01E000
01E000
000000
000000
07F800
1FFE00
3FFF00
7FFF80
7E1F80
FC0FC0
F807C0
F807C0
F80000
F80000
F87FC0
F87FC0
F87FC0
F87FC0
F807C0
F807C0
F807C0
FC0FC0
FE1FC0
7FFFC0
3FFFC0
1FF9C0
0FF1C0
ENDCHAR
STARTCHAR 0121
ENCODING 289
SWIDTH 600 0
DWIDTH 20 0
BBX 19 30 1 -6
BITMAP
01E000
01E000
01E000
01E000
0003E0
0003C0
0007C0
0FFF80
1FFE00
3FFF00
3E0F80
7C0F80
7C0F80
3E0F80
3FBF00
1FFF00
1FFC00
3E0000
7C0000
7C0000
7FFF00
3FFF80
3FFFC0
7FFFC0
F807E0
F003E0
F803C0
FFFFC0
7FFF80
3FFF00
ENDCHAR
STARTCHAR 0122
ENCODING 290
SWIDTH 600 0
DWIDTH 20 0
BBX 18 36 1 -13
BITMAP
07F800
1FFE00
3FFF00
7FFF80
7E1F80
FC0FC0
F807C0
F807C0
F80000
F80000
F87FC0
F87FC0
F87FC0
F87FC0
F807C0
F807C0
F807C0
FC0FC0
FE1FC0
7FFFC0
3FFFC0
1FF9C0
0FF1C0
000000
000000
01E000
01E000
01E000
01E000
01E000
006000
006000
00E000
00C000
01C000
018000
ENDCHAR
STARTCHAR 0123
ENCODING 291
SWIDTH 600 0
DWIDTH 20 0
BBX 19 36 1 -6
BITMAP
00E000
00C000
01C000
018000
018000
01E000
01E000
01E000
01E000
01E000
0003E0
0003C0
0007C0
0FFF80
1FFE00
3FFF00
3E0F80
7C0F80
7C0F80
3E0F80
3FBF00
1FFF00
1FFC00
3E0000
7C0000
7C0000
7FFF00
3FFF80
3FFFC0
7FFFC0
F807E0
F003E0
F803C0
FFFFC0
7FFF80
3FFF00
ENDCHAR
STARTCHAR 0124
ENCODING 292
SWIDTH 600 0
DWIDTH 20 0
BBX 16 30 2 0
BITMAP
03C0
07E0
0FF0
1E78
3C3C
0000
0000
F81F
F81F
F81F
F81F
F81F
F81F
F81F
F81F
F81F
FFFF
FFFF
FFFF
FFFF
FFFF
F81F
F81F
F81F
F81F
F81F
F81F
F81F
F81F
F81F
ENDCHAR
STARTCHAR 0125
ENCODING 293
SWIDTH 600 0
DWIDTH 20 0
BBX 19 30 -1 0
BITMAP
1F0000
1F8000
3FC000
79E000
F0F000
000000
1F8000
1F8000
1F8000
1F8000
1F8000
1F8000
1F8000
1FBF80
1FFFC0
1FFFC0
1FFFE0
1F87E0
1F83E0
1F83E0
1F83E0
1F83E0
1F83E0
1F83E0
1F83E0
1F83E0
1F83E0
1F83E0
1F83E0
1F83E0
ENDCHAR
STARTCHAR 0126
ENCODING 294
SWIDTH 600 0
DWIDTH 20 0
BBX 20 23 0 0
BITMAP
3E07C0
3E07C0
3E07C0
FFFFF0
FFFFF0
FFFFF0
3E07C0
3E07C0
3E07C0
3FFFC0
3FFFC0
3FFFC0
3FFFC0
3FFFC0
3E07C0
3E07C0
3E07C0
3E07C0
3E07C0
3E07C0
3E07C0
3E07C0
3E07C0
ENDCHAR
STARTCHAR 0127
ENCODING 295
SWIDTH 600 0
DWIDTH 20 0
BBX 18 24 0 0
BITMAP
3F0000
3F0000
FFF800
FFF800
FFF800
3F0000
3F0000
3F7F00
3FFF80
3FFF80
3FFFC0
3F0FC0
3F07C0
3F07C0
3F07C0
3F07C0
3F07C0
3F07C0
3F07C0
3F07C0
3F07C0
3F07C0
3F07C0
3F07C0
ENDCHAR
STARTCHAR 0128
ENCODING 296
SWIDTH 600 0
DWIDTH 20 0
BBX 15 30 3 0
BITMAP
181C
3F38
7FF8
7FF8
61E0
8000
0000
FFFE
FFFE
FFFE
FFFE
0FC0
0FC0
0FC0
0FC0
0FC0
0FC0
0FC0
0FC0
0FC0
0FC0
0FC0
0FC0
0FC0
0FC0
0FC0
FFFE
FFFE
FFFE
FFFE
ENDCHAR
STARTCHAR 0129
ENCODING 297
SWIDTH 600 0
DWIDTH 20 0
BBX 16 25 3 0
BITMAP
0E0E
3F8C
3FFC
77FC
70F8
0000
0000
0000
FFE0
FFE0
FFE0
FFE0
07E0
07E0
07E0
07E0
07E0
07E0
07E0
07E0
07E0
FFFF
FFFF
FFFF
FFFF
ENDCHAR
STARTCHAR 012A
ENCODING 298
SWIDTH 600 0
DWIDTH 20 0
BBX 15 29 3 0
BITMAP
7FF8
7FF8
7FF8
0000
0000
0000
FFFE
FFFE
FFFE
FFFE
0FC0
0FC0
0FC0
0FC0
0FC0
0FC0
0FC0
0FC0
0FC0
0FC0
0FC0
0FC0
0FC0
0FC0
0FC0
FFFE
FFFE
FFFE
FFFE
ENDCHAR
STARTCHAR 012B
ENCODING 299
SWIDTH 600 0
DWIDTH 20 0
BBX 16 23 3 0
BITMAP
3FFC
3FFC
3FFC
0000
0000
0000
FFE0
FFE0
FFE0
FFE0
07E0
07E0
07E0
07E0
07E0
07E0
07E0
07E0
07E0
FFFF
FFFF
FFFF
FFFF
ENDCHAR
STARTCHAR 012C
ENCODING 300
SWIDTH 600 0
DWIDTH 20 0
BBX 15 30 3 0
BITMAP
7038
7878
3FF0
3FE0
0FC0
0000
0000
FFFE
FFFE
FFFE
FFFE
0FC0
0FC0
0FC0
0FC0
0FC0
0FC0
0FC0
0FC0
0FC0
0FC0
0FC0
0FC0
0FC0
0FC0
0FC0
FFFE
FFFE
FFFE
FFFE
ENDCHAR
STARTCHAR 012D
ENCODING 301
SWIDTH 600 0
DWIDTH 20 0
BBX 16 25 3 0
BITMAP
381C
383C
3C78
1FF8
0FE0
0000
0000
0000
FFE0
FFE0
FFE0
FFE0
07E0
07E0
07E0
07E0
07E0
07E0
07E0
07E0
07E0
FFFF
FFFF
FFFF
FFFF
ENDCHAR
STARTCHAR 012E
ENCODING 302
SWIDTH 600 0
DWIDTH 20 0
BBX 15 28 3 -5
BITMAP
FFFE
FFFE
FFFE
FFFE
0FC0
0FC0
0FC0
0FC0
0FC0
0FC0
0FC0
0FC0
0FC0
0FC0
0FC0
0FC0
0FC0
0FC0
0FC0
FFFE
FFFE
FFFE
FFFE
00E0
01E0
01E0
01FE
0078
ENDCHAR
STARTCHAR 012F
ENCODING 303
SWIDTH 600 0
DWIDTH 20 0
BBX 16 29 3 -5
BITMAP
03C0
03C0
03C0
03C0
0000
0000
0000
FFE0
FFE0
FFE0
FFE0
07E0
07E0
07E0
07E0
07E0
07E0
07E0
07E0
07E0
FFFF
FFFF
FFFF
FFFF
03C0
0380
0780
03F8
01F0
ENDCHAR
STARTCHAR 0130
ENCODING 304
SWIDTH 600 0
DWIDTH 20 0
BBX 15 29 3 0
BITMAP
0780
0780
0780
0780
0000
0000
FFFE
FFFE
FFFE
FFFE
0FC0
0FC0
0FC0
0FC0
0FC0
0FC0
0FC0
0FC0
0FC0
0FC0
0FC0
0FC0
0FC0
0FC0
0FC0
FFFE
FFFE
FFFE
FFFE
ENDCHAR
STARTCHAR 0131
ENCODING 305
SWIDTH 600 0
DWIDTH 20 0
BBX 16 17 3 0
BITMAP
FFE0
FFE0
FFE0
FFE0
07E0
07E0
07E0
07E0
07E0
07E0
07E0
07E0
07E0
FFFF
FFFF
FFFF
FFFF
ENDCHAR
STARTCHAR 0132
ENCODING 306
SWIDTH 600 0
DWIDTH 20 0
BBX 16 23 2 0
BITMAP
F81F
F81F
F81F
F81F
F81F
F81F
F81F
F81F
F81F
F81F
F81F
F81F
F81F
F81F
001F
001F
F81F
F81F
FC3F
FFFF
7FFE
3FFC
1FF8
ENDCHAR
STARTCHAR 0133
ENCODING 307
SWIDTH 600 0
DWIDTH 20 0
BBX 16 30 2 -6
BITMAP
FC3F
FC3F
FC3F
FC3F
0000
0000
0000
F8FF
F8FF
F8FF
F8FF
F83F
F83F
F83F
F83F
F83F
F83F
F83F
F83F
F83F
F83F
F83F
F83F
F83F
003F
003F
067E
07FE
07FC
07F8
ENDCHAR
STARTCHAR 0134
ENCODING 308
SWIDTH 600 0
DWIDTH 20 0
BBX 19 30 2 0
BITMAP
003E00
003F00
007F80
00F3C0
01E1E0
000000
000000
003F00
003F00
003F00
003F00
003F00
003F00
003F00
003F00
003F00
003F00
003F00
003F00
003F00
003F00
003F00
FC3F00
FC3F00
FC3F00
7C3E00
7FFE00
7FFE00
3FFC00
0FF000
ENDCHAR
STARTCHAR 0135
ENCODING 309
SWIDTH 600 0
DWIDTH 20 0
BBX 14 31 3 -6
BITMAP
07E0
07E0
0FF0
1E78
3C3C
383C
0000
0000
FFE0
FFE0
FFE0
FFE0
07E0
07E0
07E0
07E0
07E0
07E0
07E0
07E0
07E0
07E0
07E0
07E0
07E0
07E0
07E0
CFC0
FFC0
FF80
FF00
ENDCHAR
STARTCHAR 0136
ENCODING 310
SWIDTH 600 0
DWIDTH 20 0
BBX 18 36 2 -13
BITMAP
F80F80
F81F80
F83F00
F83F00
F87E00
F87C00
F8FC00
F9F800
F9F800
FBF000
FBF000
FFE000
FFF000
FFF000
FFF800
FDFC00
FCFC00
F87E00
F87E00
F83F00
F83F00
F81F80
F80FC0
000000
000000
03C000
03C000
03C000
03C000
03C000
00C000
00C000
01C000
018000
038000
030000
ENDCHAR
STARTCHAR 0137
ENCODING 311
SWIDTH 600 0
DWIDTH 20 0
BBX 17 37 2 -13
BITMAP
F80000
F80000
F80000
F80000
F80000
F80000
F80000
F81F80
F83F00
F87E00
F8FC00
F8FC00
F9F800
FBF000
FFE000
FFE000
FFF000
FFF800
FFFC00
FCFC00
F87E00
F87F00
F83F00
F81F80
000000
000000
03C000
03C000
03C000
03C000
03C000
00C000
01C000
01C000
018000
038000
030000
ENDCHAR
STARTCHAR 0138
ENCODING 312
SWIDTH 600 0
DWIDTH 20 0
BBX 17 17 2 0
BITMAP
F81F80
F83F00
F87E00
F8FC00
F8FC00
F9F800
FBF000
FFE000
FFE000
FFF000
FFF800
FFFC00
FCFC00
F87E00
F87F00
F83F00
F81F80
ENDCHAR
STARTCHAR 0139
ENCODING 313
SWIDTH 600 0
DWIDTH 20 0
BBX 15 30 3 0
BITMAP
0F00
1E00
3E00
3C00
7800
8000
0000
F800
F800
F800
F800
F800
F800
F800
F800
F800
F800
F800
F800
F800
F800
F800
F800
F800
F800
FFFE
FFFE
FFFE
FFFE
FFFE
ENDCHAR
STARTCHAR 013A
ENCODING 314
SWIDTH 600 0
DWIDTH 20 0
BBX 16 30 2 0
BITMAP
007C
00F8
00F0
01E0
03C0
0000
FFE0
FFE0
FFE0
FFE0
03E0
03E0
03E0
03E0
03E0
03E0
03E0
03E0
03E0
03E0
03E0
03E0
03E0
03E0
03E0
03E0
FFFF
FFFF
FFFF
FFFF
ENDCHAR
STARTCHAR 013B
ENCODING 315
SWIDTH 600 0
DWIDTH 20 0
BBX 15 36 3 -13
BITMAP
F800
F800
F800
F800
F800
F800
F800
F800
F800
F800
F800
F800
F800
F800
F800
F800
F800
F800
FFFE
FFFE
FFFE
FFFE
FFFE
0000
0000
07C0
07C0
07C0
07C0
07C0
01C0
01C0
0180
0180
0380
0700
ENDCHAR
STARTCHAR 013C
ENCODING 316
SWIDTH 600 0
DWIDTH 20 0
BBX 16 37 2 -13
BITMAP
FFE0
FFE0
FFE0
FFE0
03E0
03E0
03E0
03E0
03E0
03E0
03E0
03E0
03E0
03E0
03E0
03E0
03E0
03E0
03E0
03E0
FFFF
FFFF
FFFF
FFFF
0000
0000
03C0
03C0
03C0
03C0
03C0
00C0
00C0
01C0
0180
0380
0300
ENDCHAR
STARTCHAR 013D
ENCODING 317
SWIDTH 600 0
DWIDTH 20 0
BBX 15 23 3 0
BITMAP
F83C
F83C
F83C
F83C
F83C
F80C
F81C
F818
F838
F830
F800
F800
F800
F800
F800
F800
F800
F800
FFFE
FFFE
FFFE
FFFE
FFFE
ENDCHAR
STARTCHAR 013E
ENCODING 318
SWIDTH 600 0
DWIDTH 20 0
BBX 17 24 2 0
BITMAP
FFE000
FFE780
FFE780
FFE780
03E780
03E780
03E180
03E180
03E380
03E700
03E600
03E000
03E000
03E000
03E000
03E000
03E000
03E000
03E000
03E000
FFFF00
FFFF00
FFFF00
FFFF00
ENDCHAR
STARTCHAR 013F
ENCODING 319
SWIDTH 600 0
DWIDTH 20 0
BBX 15 23 3 0
BITMAP
F800
F800
F800
F800
F800
F800
F800
F87C
F87C
F87C
F87C
F87C
F800
F800
F800
F800
F800
F800
FFFE
FFFE
FFFE
FFFE
FFFE
ENDCHAR
STARTCHAR 0140
ENCODING 320
SWIDTH 600 0
DWIDTH 20 0
BBX 21 24 2 0
BITMAP
FFE000
FFE000
FFE000
FFE000
03E000
03E000
03E000
03E000
03E000
03E1F8
03E1F8
03E1F8
03E1F8
03E1F8
03E000
03E000
03E000
03E000
03E000
03E000
FFFF00
FFFF00
FFFF00
FFFF00
ENDCHAR
STARTCHAR 0141
ENCODING 321
SWIDTH 600 0
DWIDTH 20 0
BBX 17 23 1 0
BITMAP
3E0000
3E0000
3E0000
3E0000
3E0000
3E0000
3E0000
3E1000
3E7000
3FF000
3FE000
3F8000
7E0000
FE0000
FE0000
BE0000
3E0000
3E0000
3FFF80
3FFF80
3FFF80
3FFF80
3FFF80
ENDCHAR
STARTCHAR 0142
ENCODING 322
SWIDTH 600 0
DWIDTH 20 0
BBX 16 24 2 0
BITMAP
FFE0
FFE0
FFE0
FFE0
03E0
03E0
03E0
03E2
03EE
03FE
03FC
03F0
0FE0
3FE0
7FE0
73E0
43E0
03E0
03E0
03E0
FFFF
FFFF
FFFF
FFFF
ENDCHAR
STARTCHAR 0143
ENCODING 323
SWIDTH 600 0
DWIDTH 20 0
BBX 16 30 2 0
BITMAP
007C
00F8
00F0
01E0
03C0
0000
0000
F81F
FC1F
FC1F
FE1F
FE1F
FF1F
FF1F
FF1F
FF9F
FF9F
FFDF
FBDF
FBFF
FBFF
F9FF
F9FF
F8FF
F8FF
F87F
F87F
F83F
F83F
F81F
ENDCHAR
STARTCHAR 0144
ENCODING 324
SWIDTH 600 0
DWIDTH 20 0
BBX 16 25 2 0
BITMAP
00F8
01F0
01E0
03C0
03C0
0000
0000
0000
FBF8
FFFE
FFFE
FFFF
FC3F
FC1F
FC1F
FC1F
FC1F
FC1F
FC1F
FC1F
FC1F
FC1F
FC1F
FC1F
FC1F
ENDCHAR
STARTCHAR 0145
ENCODING 325
SWIDTH 600 0
DWIDTH 20 0
BBX 16 36 2 -13
BITMAP
F81F
FC1F
FC1F
FE1F
FE1F
FF1F
FF1F
FF1F
FF9F
FF9F
FFDF
FBDF
FBFF
FBFF
F9FF
F9FF
F8FF
F8FF
F87F
F87F
F83F
F83F
F81F
0000
0000
03C0
03C0
03C0
03C0
03C0
00C0
00C0
01C0
0180
0380
0300
ENDCHAR
STARTCHAR 0146
ENCODING 326
SWIDTH 600 0
DWIDTH 20 0
BBX 16 30 2 -13
BITMAP
FBF8
FFFE
FFFE
FFFF
FC3F
FC1F
FC1F
FC1F
FC1F
FC1F
FC1F
FC1F
FC1F
FC1F
FC1F
FC1F
FC1F
0000
0000
03C0
03C0
03C0
03C0
03C0
00C0
00C0
01C0
0180
0380
0300
ENDCHAR
STARTCHAR 0147
ENCODING 327
SWIDTH 600 0
DWIDTH 20 0
BBX 16 30 2 0
BITMAP
3C3C
1E38
0E78
0FF0
07E0
0000
0000
F81F
FC1F
FC1F
FE1F
FE1F
FF1F
FF1F
FF1F
FF9F
FF9F
FFDF
FBDF
FBFF
FBFF
F9FF
F9FF
F8FF
F8FF
F87F
F87F
F83F
F83F
F81F
ENDCHAR
STARTCHAR 0148
ENCODING 328
SWIDTH 600 0
DWIDTH 20 0
BBX 16 25 2 0
BITMAP
3C3E
1E78
0F70
0FF0
07E0
03C0
0000
0000
FBF8
FFFE
FFFE
FFFF
FC3F
FC1F
FC1F
FC1F
FC1F
FC1F
FC1F
FC1F
FC1F
FC1F
FC1F
FC1F
FC1F
ENDCHAR
STARTCHAR 0149
ENCODING 329
SWIDTH 600 0
DWIDTH 20 0
BBX 17 27 1 0
BITMAP
F00000
F00000
F00000
F00000
300000
700000
600000
E00000
C00000
000000
7DFC00
7FFF00
7FFF00
7FFF80
7E1F80
7E0F80
7E0F80
7E0F80
7E0F80
7E0F80
7E0F80
7E0F80
7E0F80
7E0F80
7E0F80
7E0F80
7E0F80
ENDCHAR
STARTCHAR 014A
ENCODING 330
SWIDTH 600 0
DWIDTH 20 0
BBX 16 29 2 -6
BITMAP
F81F
FC1F
FC1F
FE1F
FE1F
FF1F
FF1F
FF1F
FF9F
FF9F
FFDF
FBDF
FBFF
FBFF
F9FF
F9FF
F8FF
F8FF
F87F
F87F
F83F
F83F
F81F
001F
001F
013F
01FF
01FE
01FC
ENDCHAR
STARTCHAR 014B
ENCODING 331
SWIDTH 600 0
DWIDTH 20 0
BBX 16 23 2 -6
BITMAP
FBF8
FFFE
FFFE
FFFF
FC3F
FC1F
FC1F
FC1F
FC1F
FC1F
FC1F
FC1F
FC1F
FC1F
FC1F
FC1F
FC1F
001F
001F
023F
01FE
01FE
01FC
ENDCHAR
STARTCHAR 014C
ENCODING 332
SWIDTH 600 0
DWIDTH 20 0
BBX 18 29 1 0
BITMAP
1FFE00
1FFE00
1FFE00
000000
000000
000000
07F800
1FFE00
3FFF00
7FFF80
7E1F80
FC0FC0
FC07C0
F807C0
F807C0
F807C0
F807C0
F807C0
F807C0
F807C0
F807C0
F807C0
F807C0
FC0FC0
FE1FC0
7FFF80
3FFF00
1FFE00
0FFC00
ENDCHAR
STARTCHAR 014D
ENCODING 333
SWIDTH 600 0
DWIDTH 20 0
BBX 18 23 1 0
BITMAP
1FFE00
1FFE00
1FFE00
000000
000000
000000
07F800
1FFE00
3FFF00
7E1F00
7C0F80
7C0F80
FC0FC0
FC0FC0
FC0FC0
FC0FC0
FC0FC0
7C0F80
7C0F80
3E1F00
3FFF00
1FFE00
07F800
ENDCHAR
STARTCHAR 014E
ENCODING 334
SWIDTH 600 0
DWIDTH 20 0
BBX 18 30 1 0
BITMAP
1C0E00
1E1E00
0FFC00
0FF800
03F000
000000
000000
07F800
1FFE00
3FFF00
7FFF80
7E1F80
FC0FC0
FC07C0
F807C0
F807C0
F807C0
F807C0
F807C0
F807C0
F807C0
F807C0
F807C0
F807C0
FC0FC0
FE1FC0
7FFF80
3FFF00
1FFE00
0FFC00
ENDCHAR
STARTCHAR 014F
ENCODING 335
SWIDTH 600 0
DWIDTH 20 0
BBX 18 25 1 0
BITMAP
1C0E00
1C0E00
1F3C00
0FFC00
07F800
000000
000000
000000
07F800
1FFE00
3FFF00
7E1F00
7C0F80
7C0F80
FC0FC0
FC0FC0
FC0FC0
FC0FC0
FC0FC0
7C0F80
7C0F80
3E1F00
3FFF00
1FFE00
07F800
ENDCHAR
STARTCHAR 0150
ENCODING 336
SWIDTH 600 0
DWIDTH 20 0
BBX 18 30 1 0
BITMAP
01E7C0
03CF80
078F00
079E00
0F3C00
000000
000000
07F800
1FFE00
3FFF00
7FFF80
7E1F80
FC0FC0
FC07C0
F807C0
F807C0
F807C0
F807C0
F807C0
F807C0
F807C0
F807C0
F807C0
F807C0
FC0FC0
FE1FC0
7FFF80
3FFF00
1FFE00
0FFC00
ENDCHAR
STARTCHAR 0151
ENCODING 337
SWIDTH 600 0
DWIDTH 20 0
BBX 18 25 1 0
BITMAP
03E7C0
03CF80
07CF00
079E00
0F1C00
002000
000000
000000
07F800
1FFE00
3FFF00
7E1F00
7C0F80
7C0F80
FC0FC0
FC0FC0
FC0FC0
FC0FC0
FC0FC0
7C0F80
7C0F80
3E1F00
3FFF00
1FFE00
07F800
ENDCHAR
STARTCHAR 0152
ENCODING 338
SWIDTH 600 0
DWIDTH 20 0
BBX 19 23 1 0
BITMAP
07FFE0
1FFFC0
3FFFC0
7FFFC0
FE7C00
F87C00
F07C00
F07C00
F07C00
F07FC0
F07FC0
F07FC0
F07FC0
F07FC0
F07C00
F07C00
F07C00
F87C00
FC7C00
7FFFC0
7FFFE0
1FFFE0
0FFFE0
ENDCHAR
STARTCHAR 0153
ENCODING 339
SWIDTH 600 0
DWIDTH 20 0
BBX 20 17 0 0
BITMAP
1F9F80
3FFFC0
7FFFE0
79F9E0
F0F8E0
F0F0F0
F0F0F0
F0FFF0
F0FFF0
F0F000
F0F000
F0F0F0
F0F8F0
79F8E0
7FFFE0
3FFFC0
1F9F80
ENDCHAR
STARTCHAR 0154
ENCODING 340
SWIDTH 600 0
DWIDTH 20 0
BBX 19 30 2 0
BITMAP
007C00
00F800
00F000
01E000
03C000
000000
000000
FFF800
FFFE00
FFFF00
FFFF80
F83F80
F80F80
F80F80
F80F80
F80F80
F81F80
FFFF00
FFFC00
FFFE00
FFFF00
F87F00
F81F80
F81F80
F81F80
F81F80
F81F80
F80F80
F80FC0
F807E0
ENDCHAR
STARTCHAR 0155
ENCODING 341
SWIDTH 600 0
DWIDTH 20 0
BBX 17 25 2 0
BITMAP
00F800
00F000
01E000
01E000
03C000
000000
000000
000000
FE7E00
FFFF00
FFFF80
FFFF80
1F8F80
1F0780
1F0780
1F0000
1F0000
1F0000
1F0000
1F0000
1F0000
FFFE00
FFFE00
FFFE00
FFFE00
ENDCHAR
STARTCHAR 0156
ENCODING 342
SWIDTH 600 0
DWIDTH 20 0
BBX 19 36 2 -13
BITMAP
FFF800
FFFE00
FFFF00
FFFF80
F83F80
F80F80
F80F80
F80F80
F80F80
F81F80
FFFF00
FFFC00
FFFE00
FFFF00
F87F00
F81F80
F81F80
F81F80
F81F80
F81F80
F80F80
F80FC0
F807E0
000000
000000
03E000
03E000
03E000
03E000
03E000
00E000
00C000
00C000
01C000
018000
038000
ENDCHAR
STARTCHAR 0157
ENCODING 343
SWIDTH 600 0
DWIDTH 20 0
BBX 17 30 2 -13
BITMAP
FE7E00
FFFF00
FFFF80
FFFF80
1F8F80
1F0780
1F0780
1F0000
1F0000
1F0000
1F0000
1F0000
1F0000
FFFE00
FFFE00
FFFE00
FFFE00
000000
000000
07C000
07C000
07C000
07C000
07C000
018000
018000
018000
038000
070000
060000
ENDCHAR
STARTCHAR 0158
ENCODING 344
SWIDTH 600 0
DWIDTH 20 0
BBX 19 30 2 0
BITMAP
3C3C00
1E3800
0E7800
0FF000
07E000
000000
000000
FFF800
FFFE00
FFFF00
FFFF80
F83F80
F80F80
F80F80
F80F80
F80F80
F81F80
FFFF00
FFFC00
FFFE00
FFFF00
F87F00
F81F80
F81F80
F81F80
F81F80
F81F80
F80F80
F80FC0
F807E0
ENDCHAR
STARTCHAR 0159
ENCODING 345
SWIDTH 600 0
DWIDTH 20 0
BBX 17 25 2 0
BITMAP
3C3E00
1E3800
0F7800
07F000
03E000
03E000
000000
000000
FE7E00
FFFF00
FFFF80
FFFF80
1F8F80
1F0780
1F0780
1F0000
1F0000
1F0000
1F0000
1F0000
1F0000
FFFE00
FFFE00
FFFE00
FFFE00
ENDCHAR
STARTCHAR 015A
ENCODING 346
SWIDTH 600 0
DWIDTH 20 0
BBX 18 30 1 0
BITMAP
003E00
007C00
007800
00F000
01E000
000000
000000
07FC00
1FFE00
3FFF80
7FFF80
FE0FC0
FC07C0
FC07C0
FC0000
FF8000
7FF800
7FFE00
3FFF80
0FFF80
01FFC0
001FC0
F80FC0
F807C0
F80FC0
FC0FC0
FFFFC0
7FFF80
3FFF00
0FFC00
ENDCHAR
STARTCHAR 015B
ENCODING 347
SWIDTH 600 0
DWIDTH 20 0
BBX 16 25 2 0
BITMAP
00F8
01F0
01E0
03C0
03C0
0400
0000
0000
1FF8
3FFC
7FFE
F83E
F81E
FC00
FFC0
7FFC
3FFE
1FFF
00FF
001F
F01F
F81F
7FFE
7FFC
1FF8
ENDCHAR
STARTCHAR 015C
ENCODING 348
SWIDTH 600 0
DWIDTH 20 0
BBX 18 30 1 0
BITMAP
01E000
03F000
07F800
0F3C00
1E1E00
000000
000000
07FC00
1FFE00
3FFF80
7FFF80
FE0FC0
FC07C0
FC07C0
FC0000
FF8000
7FF800
7FFE00
3FFF80
0FFF80
01FFC0
001FC0
F80FC0
F807C0
F80FC0
FC0FC0
FFFFC0
7FFF80
3FFF00
0FFC00
ENDCHAR
STARTCHAR 015D
ENCODING 349
SWIDTH 600 0
DWIDTH 20 0
BBX 16 25 2 0
BITMAP
07E0
07E0
0FF0
1E78
3C3C
383C
0000
0000
1FF8
3FFC
7FFE
F83E
F81E
FC00
FFC0
7FFC
3FFE
1FFF
00FF
001F
F01F
F81F
7FFE
7FFC
1FF8
ENDCHAR
STARTCHAR 015E
ENCODING 350
SWIDTH 600 0
DWIDTH 20 0
BBX 18 30 1 -7
BITMAP
07FC00
1FFE00
3FFF80
7FFF80
FE0FC0
FC07C0
FC07C0
FC0000
FF8000
7FF800
7FFE00
3FFF80
0FFF80
01FFC0
001FC0
F80FC0
F807C0
F80FC0
FC0FC0
FFFFC0
7FFF80
3FFF00
0FFC00
000000
00E000
00F800
003800
023800
07F000
03E000
ENDCHAR
STARTCHAR 015F
ENCODING 351
SWIDTH 600 0
DWIDTH 20 0
BBX 16 24 2 -7
BITMAP
1FF8
3FFC
7FFE
F83E
F81E
FC00
FFC0
7FFC
3FFE
1FFF
00FF
001F
F01F
F81F
7FFE
7FFC
1FF8
0000
01C0
01F0
0070
0470
0FE0
07C0
ENDCHAR
STARTCHAR 0160
ENCODING 352
SWIDTH 600 0
DWIDTH 20 0
BBX 18 30 1 0
BITMAP
1E1E00
0F1C00
073C00
07F800
03F000
000000
000000
07FC00
1FFE00
3FFF80
7FFF80
FE0FC0
FC07C0
FC07C0
FC0000
FF8000
7FF800
7FFE00
3FFF80
0FFF80
01FFC0
001FC0
F80FC0
F807C0
F80FC0
FC0FC0
FFFFC0
7FFF80
3FFF00
0FFC00
ENDCHAR
STARTCHAR 0161
ENCODING 353
SWIDTH 600 0
DWIDTH 20 0
BBX 16 25 2 0
BITMAP
7C3C
1E78
0EF0
0FF0
07E0
03C0
0000
0000
1FF8
3FFC
7FFE
F83E
F81E
FC00
FFC0
7FFC
3FFE
1FFF
00FF
001F
F01F
F81F
7FFE
7FFC
1FF8
ENDCHAR
STARTCHAR 0162
ENCODING 354
SWIDTH 600 0
DWIDTH 20 0
BBX 18 30 1 -7
BITMAP
FFFFC0
FFFFC0
FFFFC0
FFFFC0
FFFFC0
03F000
03F000
03F000
03F000
03F000
03F000
03F000
03F000
03F000
03F000
03F000
03F000
03F000
03F000
03F000
03F000
03F000
03F000
000000
00E000
00F800
003800
023800
07F000
03E000
ENDCHAR
STARTCHAR 0163
ENCODING 355
SWIDTH 600 0
DWIDTH 20 0
BBX 17 29 1 -7
BITMAP
01C000
03C000
03C000
03C000
07C000
FFFF80
FFFF80
FFFF80
FFFF80
07C000
07C000
07C000
07C000
07C000
07C000
07C000
07C000
07E000
07FF80
03FF80
03FF80
00FF80
000000
003800
003C00
000E00
010E00
01FC00
00F800
ENDCHAR
STARTCHAR 0164
ENCODING 356
SWIDTH 600 0
DWIDTH 20 0
BBX 18 30 1 0
BITMAP
1E1E00
0F1C00
073C00
07F800
03F000
000000
000000
FFFFC0
FFFFC0
FFFFC0
FFFFC0
FFFFC0
03F000
03F000
03F000
03F000
03F000
03F000
03F000
03F000
03F000
03F000
03F000
03F000
03F000
03F000
03F000
03F000
03F000
03F000
ENDCHAR
STARTCHAR 0165
ENCODING 357
SWIDTH 600 0
DWIDTH 20 0
BBX 17 28 1 0
BITMAP
000F80
000F80
000F80
000F80
000F80
000380
01C300
03C300
03C600
03CE00
07C000
FFFF80
FFFF80
FFFF80
FFFF80
07C000
07C000
07C000
07C000
07C000
07C000
07C000
07C000
07E000
07FF80
03FF80
03FF80
00FF80
ENDCHAR
STARTCHAR 0166
ENCODING 358
SWIDTH 600 0
DWIDTH 20 0
BBX 18 23 1 0
BITMAP
FFFFC0
FFFFC0
FFFFC0
FFFFC0
FFFFC0
03F000
03F000
03F000
03F000
03F000
03F000
3FFF00
3FFF00
3FFF00
03F000
03F000
03F000
03F000
03F000
03F000
03F000
03F000
03F000
ENDCHAR
STARTCHAR 0167
ENCODING 359
SWIDTH 600 0
DWIDTH 20 0
BBX 17 22 1 0
BITMAP
01C000
03C000
03C000
03C000
07C000
FFFF80
FFFF80
FFFF80
FFFF80
07C000
07C000
07C000
3FFE00
3FFE00
3FFE00
07C000
07C000
07E000
07FF80
03FF80
03FF80
00FF80
ENDCHAR
STARTCHAR 0168
ENCODING 360
SWIDTH 600 0
DWIDTH 20 0
BBX 18 30 1 0
BITMAP
060700
0FCE00
1FFE00
1FFE00
187800
200000
000000
FC0FC0
FC0FC0
FC0FC0
FC0FC0
FC0FC0
FC0FC0
FC0FC0
FC0FC0
FC0FC0
FC0FC0
FC0FC0
FC0FC0
FC0FC0
FC0FC0
FC0FC0
FC0FC0
FC0FC0
7C0F80
7E1F80
7FFF80
3FFF00
1FFE00
0FFC00
ENDCHAR
STARTCHAR 0169
ENCODING 361
SWIDTH 600 0
DWIDTH 20 0
BBX 17 25 2 0
BITMAP
0E0E00
3F8C00
3FFC00
77FC00
70F800
000000
000000
000000
F83F00
F83F00
F83F00
F83F00
F83F00
F83F00
F83F00
F83F00
F83F00
F83F00
F83F00
F83F00
FC3F00
FFFF00
FFFF80
7FFF80
3FCF80
ENDCHAR
STARTCHAR 016A
ENCODING 362
SWIDTH 600 0
DWIDTH 20 0
BBX 18 29 1 0
BITMAP
1FFE00
1FFE00
1FFE00
000000
000000
000000
FC0FC0
FC0FC0
FC0FC0
FC0FC0
FC0FC0
FC0FC0
FC0FC0
FC0FC0
FC0FC0
FC0FC0
FC0FC0
FC0FC0
FC0FC0
FC0FC0
FC0FC0
FC0FC0
FC0FC0
7C0F80
7E1F80
7FFF80
3FFF00
1FFE00
0FFC00
ENDCHAR
STARTCHAR 016B
ENCODING 363
SWIDTH 600 0
DWIDTH 20 0
BBX 17 23 2 0
BITMAP
3FFC00
3FFC00
3FFC00
000000
000000
000000
F83F00
F83F00
F83F00
F83F00
F83F00
F83F00
F83F00
F83F00
F83F00
F83F00
F83F00
F83F00
FC3F00
FFFF00
FFFF80
7FFF80
3FCF80
ENDCHAR
STARTCHAR 016C
ENCODING 364
SWIDTH 600 0
DWIDTH 20 0
BBX 18 30 1 0
BITMAP
1C0E00
1E1E00
0FFC00
0FF800
03F000
000000
000000
FC0FC0
FC0FC0
FC0FC0
FC0FC0
FC0FC0
FC0FC0
FC0FC0
FC0FC0
FC0FC0
FC0FC0
FC0FC0
FC0FC0
FC0FC0
FC0FC0
FC0FC0
FC0FC0
FC0FC0
7C0F80
7E1F80
7FFF80
3FFF00
1FFE00
0FFC00
ENDCHAR
STARTCHAR 016D
ENCODING 365
SWIDTH 600 0
DWIDTH 20 0
BBX 17 25 2 0
BITMAP
381C00
383C00
3C7800
1FF800
0FE000
000000
000000
000000
F83F00
F83F00
F83F00
F83F00
F83F00
F83F00
F83F00
F83F00
F83F00
F83F00
F83F00
F83F00
FC3F00
FFFF00
FFFF80
7FFF80
3FCF80
ENDCHAR
STARTCHAR 016E
ENCODING 366
SWIDTH 600 0
DWIDTH 20 0
BBX 18 32 1 0
BITMAP
00C000
03F000
03F000
073800
073800
03F000
01E000
000000
000000
FC0FC0
FC0FC0
FC0FC0
FC0FC0
FC0FC0
FC0FC0
FC0FC0
FC0FC0
FC0FC0
FC0FC0
FC0FC0
FC0FC0
FC0FC0
FC0FC0
FC0FC0
FC0FC0
FC0FC0
7C0F80
7E1F80
7FFF80
3FFF00
1FFE00
0FFC00
ENDCHAR
STARTCHAR 016F
ENCODING 367
SWIDTH 600 0
DWIDTH 20 0
BBX 17 26 2 0
BITMAP
03C000
07E000
0E6000
0C6000
0EE000
07E000
010000
000000
000000
F83F00
F83F00
F83F00
F83F00
F83F00
F83F00
F83F00
F83F00
F83F00
F83F00
F83F00
F83F00
FC3F00
FFFF00
FFFF80
7FFF80
3FCF80
ENDCHAR
STARTCHAR 0170
ENCODING 368
SWIDTH 600 0
DWIDTH 20 0
BBX 18 30 1 0
BITMAP
01E7C0
03CF80
078F00
079E00
0F3C00
000000
000000
FC0FC0
FC0FC0
FC0FC0
FC0FC0
FC0FC0
FC0FC0
FC0FC0
FC0FC0
FC0FC0
FC0FC0
FC0FC0
FC0FC0
FC0FC0
FC0FC0
FC0FC0
FC0FC0
FC0FC0
7C0F80
7E1F80
7FFF80
3FFF00
1FFE00
0FFC00
ENDCHAR
STARTCHAR 0171
ENCODING 369
SWIDTH 600 0
DWIDTH 20 0
BBX 17 25 2 0
BITMAP
07CF80
079F00
0F1E00
1E3C00
1C7800
200000
000000
000000
F83F00
F83F00
F83F00
F83F00
F83F00
F83F00
F83F00
F83F00
F83F00
F83F00
F83F00
F83F00
FC3F00
FFFF00
FFFF80
7FFF80
3FCF80
ENDCHAR
STARTCHAR 0172
ENCODING 370
SWIDTH 600 0
DWIDTH 20 0
BBX 18 28 1 -5
BITMAP
FC0FC0
FC0FC0
FC0FC0
FC0FC0
FC0FC0
FC0FC0
FC0FC0
FC0FC0
FC0FC0
FC0FC0
FC0FC0
FC0FC0
FC0FC0
FC0FC0
FC0FC0
FC0FC0
FC0FC0
7C0F80
7E1F80
7FFF80
3FFF00
1FFE00
0FFC00
00F000
01E000
01E000
01FE00
007C00
ENDCHAR
STARTCHAR 0173
ENCODING 371
SWIDTH 600 0
DWIDTH 20 0
BBX 19 22 2 -5
BITMAP
F83F00
F83F00
F83F00
F83F00
F83F00
F83F00
F83F00
F83F00
F83F00
F83F00
F83F00
F83F00
FC3F00
FFFF00
FFFF80
7FFF80
3FCF80
000F00
000E00
000E00
000FE0
0007C0
ENDCHAR
STARTCHAR 0174
ENCODING 372
SWIDTH 600 0
DWIDTH 20 0
BBX 20 30 0 0
BITMAP
00F000
01F800
03FC00
079E00
0F0F00
000000
000000
F8F0F0
F8F0F0
F8F0F0
F8F9F0
78F9F0
78F9E0
78F9E0
7DF9E0
7DF9E0
7DF9E0
7DF9E0
7DFFE0
7DFFE0
3D9FC0
3D9FC0
3F9FC0
3F9FC0
3F9FC0
3F9FC0
3F9FC0
3F8FC0
3F0FC0
1F0F80
ENDCHAR
STARTCHAR 0175
ENCODING 373
SWIDTH 600 0
DWIDTH 20 0
BBX 20 25 0 0
BITMAP
01F800
01F800
03FC00
079E00
0F0F00
0F0780
000000
000000
F0F0F0
F0F0F0
F9F9F0
79F9E0
79F9E0
79F9E0
79F9E0
79F9E0
7FFFE0
3FDFC0
3F9FC0
3F9FC0
3F9FC0
3F9FC0
1F9F80
1F8F80
1F0F80
ENDCHAR
STARTCHAR 0176
ENCODING 374
SWIDTH 600 0
DWIDTH 20 0
BBX 20 30 0 0
BITMAP
00F000
01F800
03FC00
079E00
0F0F00
000000
000000
FC03F0
7E03E0
7E07E0
3F07C0
3F0FC0
1F8F80
1F9F80
0F9F00
0FDF00
07FE00
07FE00
03FC00
03FC00
01F800
01F800
01F800
01F800
01F800
01F800
01F800
01F800
01F800
01F800
ENDCHAR
STARTCHAR 0177
ENCODING 375
SWIDTH 600 0
DWIDTH 20 0
BBX 18 31 1 -6
BITMAP
01F000
03F800
07B800
0F3C00
0F1E00
1E0F00
000000
000000
FC07C0
7C0F80
7E0F80
7E0F80
3E1F00
3F1F00
1F1E00
1F3E00
1FBE00
0FBC00
0FFC00
07FC00
07F800
07F800
03F000
03F000
01F000
03E000
03E000
4FC000
7F8000
7F8000
7E0000
ENDCHAR
STARTCHAR 0178
ENCODING 376
SWIDTH 600 0
DWIDTH 20 0
BBX 20 29 0 0
BITMAP
0F0F00
0F0F00
0F0F00
0F0F00
000000
000000
FC03F0
7E03E0
7E07E0
3F07C0
3F0FC0
1F8F80
1F9F80
0F9F00
0FDF00
07FE00
07FE00
03FC00
03FC00
01F800
01F800
01F800
01F800
01F800
01F800
01F800
01F800
01F800
01F800
ENDCHAR
STARTCHAR 0179
ENCODING 377
SWIDTH 600 0
DWIDTH 20 0
BBX 18 30 1 0
BITMAP
003E00
007C00
007800
00F000
01E000
000000
000000
7FFFC0
7FFFC0
7FFFC0
7FFF80
003F00
007F00
007E00
00FE00
00FC00
01F800
03F800
03F000
07F000
07E000
0FC000
1FC000
1F8000
3F0000
7F0000
7FFFC0
FFFFC0
FFFFC0
FFFFC0
ENDCHAR
STARTCHAR 017A
ENCODING 378
SWIDTH 600 0
DWIDTH 20 0
BBX 14 25 3 0
BITMAP
01F0
03E0
03C0
0780
0780
0800
0000
0000
FFFC
FFFC
FFF8
01F8
03F0
03F0
07E0
07C0
0FC0
1F80
1F80
3F00
3E00
7E00
FFFC
FFFC
FFFC
ENDCHAR
STARTCHAR 017B
ENCODING 379
SWIDTH 600 0
DWIDTH 20 0
BBX 18 29 1 0
BITMAP
01E000
01E000
01E000
01E000
000000
000000
7FFFC0
7FFFC0
7FFFC0
7FFF80
003F00
007F00
007E00
00FE00
00FC00
01F800
03F800
03F000
07F000
07E000
0FC000
1FC000
1F8000
3F0000
7F0000
7FFFC0
FFFFC0
FFFFC0
FFFFC0
ENDCHAR
STARTCHAR 017C
ENCODING 380
SWIDTH 600 0
DWIDTH 20 0
BBX 14 24 3 0
BITMAP
0780
0780
0780
0780
0000
0000
0000
FFFC
FFFC
FFF8
01F8
03F0
03F0
07E0
07C0
0FC0
1F80
1F80
3F00
3E00
7E00
FFFC
FFFC
FFFC
ENDCHAR
STARTCHAR 017D
ENCODING 381
SWIDTH 600 0
DWIDTH 20 0
BBX 18 30 1 0
BITMAP
1E1E00
0F1C00
073C00
07F800
03F000
000000
000000
7FFFC0
7FFFC0
7FFFC0
7FFF80
003F00
007F00
007E00
00FE00
00FC00
01F800
03F800
03F000
07F000
07E000
0FC000
1FC000
1F8000
3F0000
7F0000
7FFFC0
FFFFC0
FFFFC0
FFFFC0
ENDCHAR
STARTCHAR 017E
ENCODING 382
SWIDTH 600 0
DWIDTH 20 0
BBX 14 25 3 0
BITMAP
F878
3CF0
1DE0
1FE0
0FC0
0780
0000
0000
FFFC
FFFC
FFF8
01F8
03F0
03F0
07E0
07C0
0FC0
1F80
1F80
3F00
3E00
7E00
FFFC
FFFC
FFFC
ENDCHAR
STARTCHAR 017F
ENCODING 383
SWIDTH 600 0
DWIDTH 20 0
BBX 15 24 3 0
BITMAP
01FE
07FE
07FE
0FE2
0F80
0F80
0F80
FF80
FF80
FF80
FF80
0F80
0F80
0F80
0F80
0F80
0F80
0F80
0F80
0F80
FFFE
FFFE
FFFE
FFFE
ENDCHAR
STARTCHAR 018F
ENCODING 399
SWIDTH 600 0
DWIDTH 20 0
BBX 18 23 1 0
BITMAP
07F800
1FFE00
3FFF00
7FFF80
FE1F80
FC0FC0
F80FC0
F807C0
0007C0
0007C0
0007C0
FFFFC0
FFFFC0
FFFFC0
F807C0
F807C0
F807C0
FC0FC0
FE1F80
7FFF80
3FFF00
1FFE00
0FF800
ENDCHAR
STARTCHAR 0191
ENCODING 401
SWIDTH 600 0
DWIDTH 20 0
BBX 20 29 -2 -6
BITMAP
0FFFF0
0FFFF0
0FFFF0
0FFFE0
0FFFE0
0FC000
0FC000
0FC000
0FC000
0FC000
0FFFC0
0FFFC0
0FFFC0
0FFFC0
0FC000
0FC000
0FC000
0FC000
0FC000
0FC000
0FC000
0FC000
0FC000
0FC000
0FC000
8FC000
FF8000
FF8000
FE0000
ENDCHAR
STARTCHAR 0192
ENCODING 402
SWIDTH 600 0
DWIDTH 20 0
BBX 17 30 1 -6
BITMAP
003F80
007F80
00FF80
00F800
01F800
01F800
01F000
07FF00
07FF00
07FF00
0FFF00
03F000
03F000
03E000
03E000
03E000
03E000
03E000
07E000
07E000
07C000
07C000
07C000
07C000
07C000
0FC000
8F8000
FF8000
FF0000
FE0000
ENDCHAR
STARTCHAR 0197
ENCODING 407
SWIDTH 600 0
DWIDTH 20 0
BBX 15 23 3 0
BITMAP
FFFE
FFFE
FFFE
FFFE
0FC0
0FC0
0FC0
0FC0
0FC0
0FC0
FFFC
FFFC
FFFC
0FC0
0FC0
0FC0
0FC0
0FC0
0FC0
FFFE
FFFE
FFFE
FFFE
ENDCHAR
STARTCHAR 019D
ENCODING 413
SWIDTH 600 0
DWIDTH 20 0
BBX 20 29 -2 -6
BITMAP
0F81F0
0FC1F0
0FC1F0
0FE1F0
0FE1F0
0FF1F0
0FF1F0
0FF1F0
0FF9F0
0FF9F0
0FFDF0
0FBDF0
0FBFF0
0FBFF0
0F9FF0
0F9FF0
0F8FF0
0F8FF0
0F87F0
0F87F0
0F83F0
0F83F0
0F81F0
0F8000
0F8000
9F8000
FF0000
FF0000
FE0000
ENDCHAR
STARTCHAR 01A0
ENCODING 416
SWIDTH 600 0
DWIDTH 20 0
BBX 20 27 1 0
BITMAP
0000F0
0000F0
0000F0
0001F0
07F9E0
1FFFC0
3FFF80
7FFF80
7E1F80
FC0FC0
FC07C0
F807C0
F807C0
F807C0
F807C0
F807C0
F807C0
F807C0
F807C0
F807C0
F807C0
FC0FC0
FE1FC0
7FFF80
3FFF00
1FFE00
0FFC00
ENDCHAR
STARTCHAR 01A1
ENCODING 417
SWIDTH 600 0
DWIDTH 20 0
BBX 21 21 1 0
BITMAP
0000F8
0000F8
0000F0
0000F0
07F9E0
1FFFC0
3FFF80
7E1F00
7C0F80
7C0F80
FC0FC0
FC0FC0
FC0FC0
FC0FC0
FC0FC0
7C0F80
7C0F80
3E1F00
3FFF00
1FFE00
07F800
ENDCHAR
STARTCHAR 01AF
ENCODING 431
SWIDTH 600 0
DWIDTH 20 0
BBX 21 28 1 0
BITMAP
000078
000078
000078
0000F8
0000F0
FC0FE0
FC0FC0
FC0FC0
FC0FC0
FC0FC0
FC0FC0
FC0FC0
FC0FC0
FC0FC0
FC0FC0
FC0FC0
FC0FC0
FC0FC0
FC0FC0
FC0FC0
FC0FC0
FC0FC0
7C0F80
7E1F80
7FFF80
3FFF00
1FFE00
0FFC00
ENDCHAR
STARTCHAR 01B0
ENCODING 432
SWIDTH 600 0
DWIDTH 20 0
BBX 20 22 2 0
BITMAP
0001F0
0001E0
0001E0
0001E0
0003C0
F83F80
F83F00
F83F00
F83F00
F83F00
F83F00
F83F00
F83F00
F83F00
F83F00
F83F00
F83F00
FC3F00
FFFF00
FFFF80
7FFF80
3FCF80
ENDCHAR
STARTCHAR 01C4
ENCODING 452
SWIDTH 600 0
DWIDTH 20 0
BBX 20 30 0 0
BITMAP
000C60
000EE0
000EE0
0007C0
0007C0
000000
000000
FF1FE0
FF9FE0
FFDFE0
FFFFE0
FBE1E0
F9E1E0
F9E3C0
F9E3C0
F9F3C0
F9F3C0
F9F780
F9F780
F9F780
F9F780
F9FF00
F9EF00
F9EF00
F9FF00
FBFE00
FFFFF0
FFDFF0
FF9FF0
FF1FF0
ENDCHAR
STARTCHAR 01C5
ENCODING 453
SWIDTH 600 0
DWIDTH 20 0
BBX 19 24 0 0
BITMAP
001C60
FF0EE0
FF8EC0
FFC7C0
FFE7C0
FBE000
F9E000
F9EFE0
F9EFE0
F9FFE0
F9F1E0
F9F1E0
F9F3C0
F9F3C0
F9F3C0
F9F780
F9E780
F9E780
F9EF00
FBEF00
FFEF00
FFDFE0
FF9FE0
FF1FE0
ENDCHAR
STARTCHAR 01C6
ENCODING 454
SWIDTH 600 0
DWIDTH 20 0
BBX 20 24 0 0
BITMAP
01FC70
01EEE0
01E6E0
01E7C0
01E3C0
01E000
01E000
3FEFF0
7FEFF0
7FEFE0
F3E0E0
F1E1E0
F1E1C0
F1E3C0
F1E3C0
F1E380
F1E780
F1E700
F1E700
F1EF00
F3EE00
7FEFF0
7FFFF0
3EFFF0
ENDCHAR
STARTCHAR 01C7
ENCODING 455
SWIDTH 600 0
DWIDTH 20 0
BBX 16 29 2 -6
BITMAP
F81F
F81F
F81F
F81F
F81F
F81F
F81F
F81F
F81F
F81F
F81F
F81F
F81F
F81F
F81F
F81F
F81F
F81F
FF9F
FF9F
FF9F
FF9F
FFDF
001F
7E1F
3F7F
3FFF
1FFE
0FF8
ENDCHAR
STARTCHAR 01C8
ENCODING 456
SWIDTH 600 0
DWIDTH 20 0
BBX 16 30 2 -6
BITMAP
003F
F83F
F83F
F83F
F800
F800
F800
F81F
F81F
F81F
F81F
F81F
F81F
F81F
F81F
F81F
F81F
F81F
F81F
FFFF
FFFF
FFFF
FFFF
FFFF
001F
003F
067E
07FE
07FC
07F8
ENDCHAR
STARTCHAR 01C9
ENCODING 457
SWIDTH 600 0
DWIDTH 20 0
BBX 16 30 2 -6
BITMAP
FC3F
FC3F
FC3F
FC3F
FC00
FC00
FC00
FCFF
FCFF
FCFF
FCFF
FC3F
FC3F
FC3F
FC3F
FC3F
FC3F
FC3F
FC3F
FC3F
FC3F
FC3F
FC3F
FC3F
003F
003F
067E
07FE
07FC
07F8
ENDCHAR
STARTCHAR 01CA
ENCODING 458
SWIDTH 600 0
DWIDTH 20 0
BBX 18 29 1 -6
BITMAP
F1E7C0
F1E7C0
F9E7C0
F9E7C0
F9E7C0
F9E7C0
FDE7C0
FDE7C0
FDE7C0
FDE7C0
FDE7C0
FFE7C0
FFE7C0
FFE7C0
FFE7C0
FBE7C0
FBE7C0
FBE7C0
FBE7C0
F9E7C0
F9E7C0
F9E7C0
F9E7C0
0007C0
1F87C0
0FDF80
0FFF80
07FF00
03FE00
ENDCHAR
STARTCHAR 01CB
ENCODING 459
SWIDTH 600 0
DWIDTH 20 0
BBX 17 30 2 -6
BITMAP
000F80
F3EF80
F3EF80
F3EF80
F3E000
FBE000
FBE000
FBEF80
FBEF80
FFEF80
FFEF80
FFEF80
FFEF80
F7EF80
F7EF80
F7EF80
F7EF80
F7EF80
F3EF80
F3EF80
F3EF80
F3EF80
F3EF80
F1EF80
000F80
000F00
01BF00
01FF00
01FE00
01FC00
ENDCHAR
STARTCHAR 01CC
ENCODING 460
SWIDTH 600 0
DWIDTH 20 0
BBX 18 30 1 -6
BITMAP
0007C0
0007C0
0007C0
0007C0
000000
000000
000000
E7C3C0
EFC3C0
FFE3C0
FFE3C0
F9E3C0
F9E3C0
F9E3C0
F9E3C0
F9E3C0
F9E3C0
F9E3C0
F9E3C0
F9E3C0
F9E3C0
F9E3C0
F9E3C0
F9E3C0
0003C0
0007C0
0087C0
00FF80
00FF80
00FE00
ENDCHAR
STARTCHAR 01CD
ENCODING 461
SWIDTH 600 0
DWIDTH 20 0
BBX 20 30 0 0
BITMAP
0F0F00
078E00
039E00
03FC00
01F800
000000
000000
03FC00
03FC00
03FC00
03FC00
07FE00
07FE00
07BE00
0F9F00
0F9F00
0F9F00
0F1F00
1F0F80
1F0F80
1F0F80
1E0F80
3FFFC0
3FFFC0
3FFFC0
7E07E0
7C07E0
7C03E0
7C03E0
FC03F0
ENDCHAR
STARTCHAR 01CE
ENCODING 462
SWIDTH 600 0
DWIDTH 20 0
BBX 17 25 2 0
BITMAP
7C3C00
1C7800
1EF000
0FE000
07E000
03C000
000000
000000
1FF800
3FFC00
7FFE00
FC3E00
F83E00
003E00
003E00
1FFE00
7FFE00
FE3E00
F83E00
F83E00
F83E00
F87E00
FFFF80
7FDF80
3F9F80
ENDCHAR
STARTCHAR 01CF
ENCODING 463
SWIDTH 600 0
DWIDTH 20 0
BBX 15 30 3 0
BITMAP
7878
3C70
1CF0
1FE0
0FC0
0000
0000
FFFE
FFFE
FFFE
FFFE
0FC0
0FC0
0FC0
0FC0
0FC0
0FC0
0FC0
0FC0
0FC0
0FC0
0FC0
0FC0
0FC0
0FC0
0FC0
FFFE
FFFE
FFFE
FFFE
ENDCHAR
STARTCHAR 01D0
ENCODING 464
SWIDTH 600 0
DWIDTH 20 0
BBX 16 25 3 0
BITMAP
7C3C
1E78
1EF0
0FE0
07E0
03C0
0000
0000
FFE0
FFE0
FFE0
FFE0
07E0
07E0
07E0
07E0
07E0
07E0
07E0
07E0
07E0
FFFF
FFFF
FFFF
FFFF
ENDCHAR
STARTCHAR 01D1
ENCODING 465
SWIDTH 600 0
DWIDTH 20 0
BBX 18 30 1 0
BITMAP
1E1E00
0F1C00
073C00
07F800
03F000
000000
000000
07F800
1FFE00
3FFF00
7FFF80
7E1F80
FC0FC0
FC07C0
F807C0
F807C0
F807C0
F807C0
F807C0
F807C0
F807C0
F807C0
F807C0
F807C0
FC0FC0
FE1FC0
7FFF80
3FFF00
1FFE00
0FFC00
ENDCHAR
STARTCHAR 01D2
ENCODING 466
SWIDTH 600 0
DWIDTH 20 0
BBX 18 25 1 0
BITMAP
3E1E00
0F3C00
077800
07F800
03F000
01E000
000000
000000
07F800
1FFE00
3FFF00
7E1F00
7C0F80
7C0F80
FC0FC0
FC0FC0
FC0FC0
FC0FC0
FC0FC0
7C0F80
7C0F80
3E1F00
3FFF00
1FFE00
07F800
ENDCHAR
STARTCHAR 01D3
ENCODING 467
SWIDTH 600 0
DWIDTH 20 0
BBX 18 30 1 0
BITMAP
1E1E00
0F1C00
073C00
07F800
03F000
000000
000000
FC0FC0
FC0FC0
FC0FC0
FC0FC0
FC0FC0
FC0FC0
FC0FC0
FC0FC0
FC0FC0
FC0FC0
FC0FC0
FC0FC0
FC0FC0
FC0FC0
FC0FC0
FC0FC0
FC0FC0
7C0F80
7E1F80
7FFF80
3FFF00
1FFE00
0FFC00
ENDCHAR
STARTCHAR 01D4
ENCODING 468
SWIDTH 600 0
DWIDTH 20 0
BBX 17 25 2 0
BITMAP
7C3C00
1E7800
1EF000
0FE000
07E000
03C000
000000
000000
F83F00
F83F00
F83F00
F83F00
F83F00
F83F00
F83F00
F83F00
F83F00
F83F00
F83F00
F83F00
FC3F00
FFFF00
FFFF80
7FFF80
3FCF80
ENDCHAR
STARTCHAR 01D5
ENCODING 469
SWIDTH 600 0
DWIDTH 20 0
BBX 18 34 1 0
BITMAP
1FFE00
1FFE00
1FFE00
000000
1F3E00
1F3E00
1F3E00
1F3E00
1F3E00
000000
000000
FC0FC0
FC0FC0
FC0FC0
FC0FC0
FC0FC0
FC0FC0
FC0FC0
FC0FC0
FC0FC0
FC0FC0
FC0FC0
FC0FC0
FC0FC0
FC0FC0
FC0FC0
FC0FC0
FC0FC0
7C0F80
7E1F80
7FFF80
3FFF00
1FFE00
0FFC00
ENDCHAR
STARTCHAR 01D6
ENCODING 470
SWIDTH 600 0
DWIDTH 20 0
BBX 17 29 2 0
BITMAP
3FFC00
3FFC00
3FFC00
000000
000000
3E7C00
3E7C00
3E7C00
3E7C00
000000
000000
000000
F83F00
F83F00
F83F00
F83F00
F83F00
F83F00
F83F00
F83F00
F83F00
F83F00
F83F00
F83F00
FC3F00
FFFF00
FFFF80
7FFF80
3FCF80
ENDCHAR
STARTCHAR 01D7
ENCODING 471
SWIDTH 600 0
DWIDTH 20 0
BBX 18 36 1 0
BITMAP
003E00
007C00
007800
00F000
01E000
000000
3E1F00
3E1F00
3E1F00
3E1F00
3E1F00
000000
000000
FC0FC0
FC0FC0
FC0FC0
FC0FC0
FC0FC0
FC0FC0
FC0FC0
FC0FC0
FC0FC0
FC0FC0
FC0FC0
FC0FC0
FC0FC0
FC0FC0
FC0FC0
FC0FC0
FC0FC0
7C0F80
7E1F80
7FFF80
3FFF00
1FFE00
0FFC00
ENDCHAR
STARTCHAR 01D8
ENCODING 472
SWIDTH 600 0
DWIDTH 20 0
BBX 17 32 2 0
BITMAP
007C00
00F800
00F000
01E000
03C000
000000
000000
000000
7C3E00
7C3E00
7C3E00
7C3E00
000000
000000
000000
F83F00
F83F00
F83F00
F83F00
F83F00
F83F00
F83F00
F83F00
F83F00
F83F00
F83F00
F83F00
FC3F00
FFFF00
FFFF80
7FFF80
3FCF80
ENDCHAR
STARTCHAR 01D9
ENCODING 473
SWIDTH 600 0
DWIDTH 20 0
BBX 18 35 1 0
BITMAP
1E1E00
0FBC00
07F800
03F000
000000
3E1F00
3E1F00
3E1F00
3E1F00
3E1F00
000000
000000
FC0FC0
FC0FC0
FC0FC0
FC0FC0
FC0FC0
FC0FC0
FC0FC0
FC0FC0
FC0FC0
FC0FC0
FC0FC0
FC0FC0
FC0FC0
FC0FC0
FC0FC0
FC0FC0
FC0FC0
7C0F80
7E1F80
7FFF80
3FFF00
1FFE00
0FFC00
ENDCHAR
STARTCHAR 01DA
ENCODING 474
SWIDTH 600 0
DWIDTH 20 0
BBX 17 30 2 0
BITMAP
3C3C00
1EF800
0FF000
07E000
000000
000000
7C3E00
7C3E00
7C3E00
7C3E00
000000
000000
000000
F83F00
F83F00
F83F00
F83F00
F83F00
F83F00
F83F00
F83F00
F83F00
F83F00
F83F00
F83F00
FC3F00
FFFF00
FFFF80
7FFF80
3FCF80
ENDCHAR
STARTCHAR 01DB
ENCODING 475
SWIDTH 600 0
DWIDTH 20 0
BBX 18 36 1 0
BITMAP
1F0000
0F8000
07C000
03C000
01E000
000000
3E1F00
3E1F00
3E1F00
3E1F00
3E1F00
000000
000000
FC0FC0
FC0FC0
FC0FC0
FC0FC0
FC0FC0
FC0FC0
FC0FC0
FC0FC0
FC0FC0
FC0FC0
FC0FC0
FC0FC0
FC0FC0
FC0FC0
FC0FC0
FC0FC0
FC0FC0
7C0F80
7E1F80
7FFF80
3FFF00
1FFE00
0FFC00
ENDCHAR
STARTCHAR 01DC
ENCODING 476
SWIDTH 600 0
DWIDTH 20 0
BBX 17 32 2 0
BITMAP
3E0000
1E0000
1F0000
0F8000
078000
004000
000000
000000
7C3E00
7C3E00
7C3E00
7C3E00
000000
000000
000000
F83F00
F83F00
F83F00
F83F00
F83F00
F83F00
F83F00
F83F00
F83F00
F83F00
F83F00
F83F00
FC3F00
FFFF00
FFFF80
7FFF80
3FCF80
ENDCHAR
STARTCHAR 01E4
ENCODING 484
SWIDTH 600 0
DWIDTH 20 0
BBX 19 23 1 0
BITMAP
07F800
1FFE00
3FFF00
7FFF80
7E1F80
FC0FC0
F807C0
F807C0
F80000
F80000
F87FC0
F87FC0
F87FC0
F87FC0
F807C0
F87FE0
F87FE0
FC0FC0
FC0FC0
7FFFC0
3FFFC0
1FF9C0
0FF1C0
ENDCHAR
STARTCHAR 01E5
ENCODING 485
SWIDTH 600 0
DWIDTH 20 0
BBX 22 26 -1 -6
BITMAP
0000F8
0000F0
0001F0
03FFE0
07FF80
0FFFC0
0F83E0
1F03E0
1F03E0
0F83E0
0FEFC0
07FFC0
07FF00
0F8000
1F0000
1F0000
1FFFC0
0FFFE0
0FFFF0
1FFFF0
FE00FC
FFFFFC
FFFFFC
3E01F0
1FFFE0
0FFFC0
ENDCHAR
STARTCHAR 01E6
ENCODING 486
SWIDTH 600 0
DWIDTH 20 0
BBX 18 30 1 0
BITMAP
1E1E00
0E1C00
0F3800
07F800
03F000
000000
000000
07F800
1FFE00
3FFF00
7FFF80
7E1F80
FC0FC0
F807C0
F807C0
F80000
F80000
F87FC0
F87FC0
F87FC0
F87FC0
F807C0
F807C0
F807C0
FC0FC0
FE1FC0
7FFFC0
3FFFC0
1FF9C0
0FF1C0
ENDCHAR
STARTCHAR 01E7
ENCODING 487
SWIDTH 600 0
DWIDTH 20 0
BBX 19 31 1 -6
BITMAP
3E1E00
0F3C00
077800
07F800
03F000
01E3E0
0003C0
0007C0
0FFF80
1FFE00
3FFF00
3E0F80
7C0F80
7C0F80
3E0F80
3FBF00
1FFF00
1FFC00
3E0000
7C0000
7C0000
7FFF00
3FFF80
3FFFC0
7FFFC0
F807E0
F003E0
F803C0
FFFFC0
7FFF80
3FFF00
ENDCHAR
STARTCHAR 01EA
ENCODING 490
SWIDTH 600 0
DWIDTH 20 0
BBX 18 28 1 -5
BITMAP
07F800
1FFE00
3FFF00
7FFF80
7E1F80
FC0FC0
FC07C0
F807C0
F807C0
F807C0
F807C0
F807C0
F807C0
F807C0
F807C0
F807C0
F807C0
FC0FC0
FE1FC0
7FFF80
3FFF00
1FFE00
0FFC00
00F000
01E000
01E000
01FE00
00F800
ENDCHAR
STARTCHAR 01EB
ENCODING 491
SWIDTH 600 0
DWIDTH 20 0
BBX 18 22 1 -5
BITMAP
07F800
1FFE00
3FFF00
7E1F00
7C0F80
7C0F80
FC0FC0
FC0FC0
FC0FC0
FC0FC0
FC0FC0
7C0F80
7C0F80
3E1F00
3FFF00
1FFE00
07F800
01E000
01C000
01C000
01FC00
00F800
ENDCHAR
STARTCHAR 01FA
ENCODING 506
SWIDTH 600 0
DWIDTH 20 0
BBX 20 37 0 0
BITMAP
001C00
003800
007000
007000
000000
000000
01F800
01F800
039C00
039C00
01F800
00F000
000000
000000
03FC00
03FC00
03FC00
03FC00
07FE00
07FE00
07BE00
0F9F00
0F9F00
0F9F00
0F1F00
1F0F80
1F0F80
1F0F80
1E0F80
3FFFC0
3FFFC0
3FFFC0
7E07E0
7C07E0
7C03E0
7C03E0
FC03F0
ENDCHAR
STARTCHAR 01FB
ENCODING 507
SWIDTH 600 0
DWIDTH 20 0
BBX 17 32 2 0
BITMAP
00F000
00E000
01C000
01C000
020000
000000
07C000
07E000
0E6000
0C6000
0EE000
07C000
010000
000000
000000
1FF800
3FFC00
7FFE00
FC3E00
F83E00
003E00
003E00
1FFE00
7FFE00
FE3E00
F83E00
F83E00
F83E00
F87E00
FFFF80
7FDF80
3F9F80
ENDCHAR
STARTCHAR 01FC
ENCODING 508
SWIDTH 600 0
DWIDTH 20 0
BBX 20 30 0 0
BITMAP
000780
000F80
001F00
001E00
003C00
000000
000000
07FFF0
07FFF0
07FFE0
07FFE0
0FFC00
0FFC00
0FFC00
0F7C00
0F7C00
1F7FE0
1F7FE0
1F7FE0
1E7FE0
3E7C00
3E7C00
3FFC00
3FFC00
7FFC00
7C7C00
7C7FE0
7C7FF0
FC7FF0
F87FF0
ENDCHAR
STARTCHAR 01FD
ENCODING 509
SWIDTH 600 0
DWIDTH 20 0
BBX 20 25 0 0
BITMAP
003E00
007C00
007800
00F000
00F000
010000
000000
000000
1F8F80
3FDFC0
7FFFE0
79F9E0
70F8E0
00F0F0
00F0F0
1FFFF0
3FFFF0
7CF000
F0F000
F0F0F0
F0F8F0
F1F8E0
7FFFE0
7FBFC0
3F1F80
ENDCHAR
STARTCHAR 01FE
ENCODING 510
SWIDTH 600 0
DWIDTH 20 0
BBX 20 32 0 -2
BITMAP
001F00
003E00
003C00
007800
00F000
0000F0
0000E0
03FDC0
0FFFC0
1FFF80
3FFFC0
3F0FC0
7E0FE0
7E0FE0
7C1FE0
7C3BE0
7C3BE0
7C73E0
7C73E0
7CE3E0
7DC3E0
7DC3E0
7F83E0
7F83E0
7F07E0
7F0FE0
3FFFC0
1FFF80
3FFF00
3FFE00
700000
F00000
ENDCHAR
STARTCHAR 01FF
ENCODING 511
SWIDTH 600 0
DWIDTH 20 0
BBX 18 27 1 -2
BITMAP
007C00
00F800
00F000
01E000
01E000
020000
000380
000700
07FE00
1FFE00
3FFF00
7E1F00
7C3F80
7C7F80
FC6FC0
FCEFC0
FCCFC0
FDCFC0
FF8FC0
7F0F80
7F0F80
3E1F00
3FFF00
1FFE00
3FF800
380000
700000
ENDCHAR
STARTCHAR 0200
ENCODING 512
SWIDTH 600 0
DWIDTH 20 0
BBX 20 30 0 0
BITMAP
7CF000
3C7800
1E3C00
0F1C00
079E00
000000
000000
03FC00
03FC00
03FC00
03FC00
07FE00
07FE00
07BE00
0F9F00
0F9F00
0F9F00
0F1F00
1F0F80
1F0F80
1F0F80
1E0F80
3FFFC0
3FFFC0
3FFFC0
7E07E0
7C07E0
7C03E0
7C03E0
FC03F0
ENDCHAR
STARTCHAR 0201
ENCODING 513
SWIDTH 600 0
DWIDTH 20 0
BBX 18 25 1 0
BITMAP
F1E000
79F000
3CF000
1C7800
1E3C00
000000
000000
000000
0FFC00
1FFE00
3FFF00
7E1F00
7C1F00
001F00
001F00
0FFF00
3FFF00
7F1F00
7C1F00
7C1F00
7C1F00
7C3F00
7FFFC0
3FEFC0
1FCFC0
ENDCHAR
STARTCHAR 0202
ENCODING 514
SWIDTH 600 0
DWIDTH 20 0
BBX 20 30 0 0
BITMAP
01F800
07FE00
0FFF00
0E0700
0E0300
000000
000000
03FC00
03FC00
03FC00
03FC00
07FE00
07FE00
07BE00
0F9F00
0F9F00
0F9F00
0F1F00
1F0F80
1F0F80
1F0F80
1E0F80
3FFFC0
3FFFC0
3FFFC0
7E07E0
7C07E0
7C03E0
7C03E0
FC03F0
ENDCHAR
STARTCHAR 0203
ENCODING 515
SWIDTH 600 0
DWIDTH 20 0
BBX 17 25 2 0
BITMAP
01C000
1FF000
3FF800
383C00
701C00
000000
000000
000000
1FF800
3FFC00
7FFE00
FC3E00
F83E00
003E00
003E00
1FFE00
7FFE00
FE3E00
F83E00
F83E00
F83E00
F87E00
FFFF80
7FDF80
3F9F80
ENDCHAR
STARTCHAR 0204
ENCODING 516
SWIDTH 600 0
DWIDTH 20 0
BBX 17 30 1 0
BITMAP
F9F000
3CF000
3C7800
1E3C00
0F1C00
000000
000000
7FFF80
7FFF80
7FFF80
7FFF80
7E0000
7E0000
7E0000
7E0000
7E0000
7FFF00
7FFF00
7FFF00
7FFF00
7E0000
7E0000
7E0000
7E0000
7E0000
7E0000
7FFF80
7FFF80
7FFF80
7FFF80
ENDCHAR
STARTCHAR 0205
ENCODING 517
SWIDTH 600 0
DWIDTH 20 0
BBX 17 25 1 0
BITMAP
79F000
7CF000
3C7800
1E3800
0F3C00
000200
000000
000000
07FC00
1FFE00
3FFF00
3E1F80
7E0F80
7C0F80
7C0F80
FFFF80
FFFF80
FC0000
7C0000
7C0F80
7C0F80
7E1F80
3FFF00
1FFE00
07FC00
ENDCHAR
STARTCHAR 0206
ENCODING 518
SWIDTH 600 0
DWIDTH 20 0
BBX 16 30 2 0
BITMAP
03E0
1FF8
1FFC
381C
380E
0000
0000
FFFF
FFFF
FFFF
FFFF
FC00
FC00
FC00
FC00
FC00
FFFE
FFFE
FFFE
FFFE
FC00
FC00
FC00
FC00
FC00
FC00
FFFF
FFFF
FFFF
FFFF
ENDCHAR
STARTCHAR 0207
ENCODING 519
SWIDTH 600 0
DWIDTH 20 0
BBX 17 25 1 0
BITMAP
00E000
07FC00
0FFE00
1E0E00
1C0700
000000
000000
000000
07FC00
1FFE00
3FFF00
3E1F80
7E0F80
7C0F80
7C0F80
FFFF80
FFFF80
FC0000
7C0000
7C0F80
7C0F80
7E1F80
3FFF00
1FFE00
07FC00
ENDCHAR
STARTCHAR 0208
ENCODING 520
SWIDTH 600 0
DWIDTH 20 0
BBX 17 30 1 0
BITMAP
F9E000
78F000
3C7800
1E3800
0F3C00
000000
000000
3FFF80
3FFF80
3FFF80
3FFF80
03F000
03F000
03F000
03F000
03F000
03F000
03F000
03F000
03F000
03F000
03F000
03F000
03F000
03F000
03F000
3FFF80
3FFF80
3FFF80
3FFF80
ENDCHAR
STARTCHAR 0209
ENCODING 521
SWIDTH 600 0
DWIDTH 20 0
BBX 17 25 2 0
BITMAP
F9E000
79F000
3CF000
1C7800
1E3C00
010000
000000
000000
7FF000
7FF000
7FF000
7FF000
03F000
03F000
03F000
03F000
03F000
03F000
03F000
03F000
03F000
7FFF80
7FFF80
7FFF80
7FFF80
ENDCHAR
STARTCHAR 020A
ENCODING 522
SWIDTH 600 0
DWIDTH 20 0
BBX 15 30 3 0
BITMAP
0FC0
3FF0
7FF8
7038
7018
0000
0000
FFFE
FFFE
FFFE
FFFE
0FC0
0FC0
0FC0
0FC0
0FC0
0FC0
0FC0
0FC0
0FC0
0FC0
0FC0
0FC0
0FC0
0FC0
0FC0
FFFE
FFFE
FFFE
FFFE
ENDCHAR
STARTCHAR 020B
ENCODING 523
SWIDTH 600 0
DWIDTH 20 0
BBX 16 25 3 0
BITMAP
0180
1FF0
3FF8
3C3C
701C
0000
0000
0000
FFE0
FFE0
FFE0
FFE0
07E0
07E0
07E0
07E0
07E0
07E0
07E0
07E0
07E0
FFFF
FFFF
FFFF
FFFF
ENDCHAR
STARTCHAR 020C
ENCODING 524
SWIDTH 600 0
DWIDTH 20 0
BBX 18 30 1 0
BITMAP
F9E000
78F000
3C7800
1E3800
0F3C00
000000
000000
07F800
1FFE00
3FFF00
7FFF80
7E1F80
FC0FC0
FC07C0
F807C0
F807C0
F807C0
F807C0
F807C0
F807C0
F807C0
F807C0
F807C0
F807C0
FC0FC0
FE1FC0
7FFF80
3FFF00
1FFE00
0FFC00
ENDCHAR
STARTCHAR 020D
ENCODING 525
SWIDTH 600 0
DWIDTH 20 0
BBX 18 25 1 0
BITMAP
F9E000
78F000
3C7800
1E7800
0E3C00
010000
000000
000000
07F800
1FFE00
3FFF00
7E1F00
7C0F80
7C0F80
FC0FC0
FC0FC0
FC0FC0
FC0FC0
FC0FC0
7C0F80
7C0F80
3E1F00
3FFF00
1FFE00
07F800
ENDCHAR
STARTCHAR 020E
ENCODING 526
SWIDTH 600 0
DWIDTH 20 0
BBX 18 30 1 0
BITMAP
03F000
0FFC00
1FFE00
1C0E00
1C0600
000000
000000
07F800
1FFE00
3FFF00
7FFF80
7E1F80
FC0FC0
FC07C0
F807C0
F807C0
F807C0
F807C0
F807C0
F807C0
F807C0
F807C0
F807C0
F807C0
FC0FC0
FE1FC0
7FFF80
3FFF00
1FFE00
0FFC00
ENDCHAR
STARTCHAR 020F
ENCODING 527
SWIDTH 600 0
DWIDTH 20 0
BBX 18 25 1 0
BITMAP
00C000
07F800
0FFC00
1E1E00
1C0E00
000000
000000
000000
07F800
1FFE00
3FFF00
7E1F00
7C0F80
7C0F80
FC0FC0
FC0FC0
FC0FC0
FC0FC0
FC0FC0
7C0F80
7C0F80
3E1F00
3FFF00
1FFE00
07F800
ENDCHAR
STARTCHAR 0210
ENCODING 528
SWIDTH 600 0
DWIDTH 20 0
BBX 20 30 1 0
BITMAP
F9E000
78F000
3C7800
1E3800
0F3C00
000000
000000
7FFC00
7FFF00
7FFF80
7FFFC0
7C1FC0
7C07C0
7C07C0
7C07C0
7C07C0
7C0FC0
7FFF80
7FFE00
7FFF00
7FFF80
7C3F80
7C0FC0
7C0FC0
7C0FC0
7C0FC0
7C0FC0
7C07C0
7C07E0
7C03F0
ENDCHAR
STARTCHAR 0211
ENCODING 529
SWIDTH 600 0
DWIDTH 20 0
BBX 17 25 2 0
BITMAP
F3E000
79E000
78F000
3C7800
1E3800
000400
000000
000000
FE7E00
FFFF00
FFFF80
FFFF80
1F8F80
1F0780
1F0780
1F0000
1F0000
1F0000
1F0000
1F0000
1F0000
FFFE00
FFFE00
FFFE00
FFFE00
ENDCHAR
STARTCHAR 0212
ENCODING 530
SWIDTH 600 0
DWIDTH 20 0
BBX 19 30 2 0
BITMAP
07E000
1FF800
3FFC00
381C00
380C00
000000
000000
FFF800
FFFE00
FFFF00
FFFF80
F83F80
F80F80
F80F80
F80F80
F80F80
F81F80
FFFF00
FFFC00
FFFE00
FFFF00
F87F00
F81F80
F81F80
F81F80
F81F80
F81F80
F80F80
F80FC0
F807E0
ENDCHAR
STARTCHAR 0213
ENCODING 531
SWIDTH 600 0
DWIDTH 20 0
BBX 17 25 2 0
BITMAP
01C000
0FF800
1FFC00
3C1C00
380E00
000000
000000
000000
FE7E00
FFFF00
FFFF80
FFFF80
1F8F80
1F0780
1F0780
1F0000
1F0000
1F0000
1F0000
1F0000
1F0000
FFFE00
FFFE00
FFFE00
FFFE00
ENDCHAR
STARTCHAR 0214
ENCODING 532
SWIDTH 600 0
DWIDTH 20 0
BBX 18 30 1 0
BITMAP
F9E000
78F000
3C7800
1E3800
0F3C00
000000
000000
FC0FC0
FC0FC0
FC0FC0
FC0FC0
FC0FC0
FC0FC0
FC0FC0
FC0FC0
FC0FC0
FC0FC0
FC0FC0
FC0FC0
FC0FC0
FC0FC0
FC0FC0
FC0FC0
FC0FC0
7C0F80
7E1F80
7FFF80
3FFF00
1FFE00
0FFC00
ENDCHAR
STARTCHAR 0215
ENCODING 533
SWIDTH 600 0
DWIDTH 20 0
BBX 18 25 1 0
BITMAP
F9E000
79F000
3CF000
1C7800
1E3C00
010000
000000
000000
7C1F80
7C1F80
7C1F80
7C1F80
7C1F80
7C1F80
7C1F80
7C1F80
7C1F80
7C1F80
7C1F80
7C1F80
7E1F80
7FFF80
7FFFC0
3FFFC0
1FE7C0
ENDCHAR
STARTCHAR 0216
ENCODING 534
SWIDTH 600 0
DWIDTH 20 0
BBX 18 30 1 0
BITMAP
03F000
0FFC00
1FFE00
1C0E00
1C0600
000000
000000
FC0FC0
FC0FC0
FC0FC0
FC0FC0
FC0FC0
FC0FC0
FC0FC0
FC0FC0
FC0FC0
FC0FC0
FC0FC0
FC0FC0
FC0FC0
FC0FC0
FC0FC0
FC0FC0
FC0FC0
7C0F80
7E1F80
7FFF80
3FFF00
1FFE00
0FFC00
ENDCHAR
STARTCHAR 0217
ENCODING 535
SWIDTH 600 0
DWIDTH 20 0
BBX 17 25 2 0
BITMAP
018000
1FF000
3FF800
3C3C00
701C00
000000
000000
000000
F83F00
F83F00
F83F00
F83F00
F83F00
F83F00
F83F00
F83F00
F83F00
F83F00
F83F00
F83F00
FC3F00
FFFF00
FFFF80
7FFF80
3FCF80
ENDCHAR
STARTCHAR 0218
ENCODING 536
SWIDTH 600 0
DWIDTH 20 0
BBX 18 36 1 -13
BITMAP
07FC00
1FFE00
3FFF80
7FFF80
FE0FC0
FC07C0
FC07C0
FC0000
FF8000
7FF800
7FFE00
3FFF80
0FFF80
01FFC0
001FC0
F80FC0
F807C0
F80FC0
FC0FC0
FFFFC0
7FFF80
3FFF00
0FFC00
000000
000000
01E000
01E000
01E000
01E000
01E000
006000
006000
00E000
00C000
01C000
018000
ENDCHAR
STARTCHAR 0219
ENCODING 537
SWIDTH 600 0
DWIDTH 20 0
BBX 16 30 2 -13
BITMAP
1FF8
3FFC
7FFE
F83E
F81E
FC00
FFC0
7FFC
3FFE
1FFF
00FF
001F
F01F
F81F
7FFE
7FFC
1FF8
0000
0000
03C0
03C0
03C0
03C0
03C0
00C0
00C0
01C0
0180
0380
0300
ENDCHAR
STARTCHAR 021A
ENCODING 538
SWIDTH 600 0
DWIDTH 20 0
BBX 18 36 1 -13
BITMAP
FFFFC0
FFFFC0
FFFFC0
FFFFC0
FFFFC0
03F000
03F000
03F000
03F000
03F000
03F000
03F000
03F000
03F000
03F000
03F000
03F000
03F000
03F000
03F000
03F000
03F000
03F000
000000
000000
01E000
01E000
01E000
01E000
01E000
006000
006000
00E000
00C000
01C000
018000
ENDCHAR
STARTCHAR 021B
ENCODING 539
SWIDTH 600 0
DWIDTH 20 0
BBX 17 35 1 -13
BITMAP
01C000
03C000
03C000
03C000
07C000
FFFF80
FFFF80
FFFF80
FFFF80
07C000
07C000
07C000
07C000
07C000
07C000
07C000
07C000
07E000
07FF80
03FF80
03FF80
00FF80
000000
000000
00F800
00F800
00F800
00F800
00F800
003800
003800
003000
003000
007000
00E000
ENDCHAR
STARTCHAR 022A
ENCODING 554
SWIDTH 600 0
DWIDTH 20 0
BBX 18 34 1 0
BITMAP
1FFE00
1FFE00
1FFE00
000000
1F3E00
1F3E00
1F3E00
1F3E00
1F3E00
000000
000000
07F800
1FFE00
3FFF00
7FFF80
7E1F80
FC0FC0
FC07C0
F807C0
F807C0
F807C0
F807C0
F807C0
F807C0
F807C0
F807C0
F807C0
F807C0
FC0FC0
FE1FC0
7FFF80
3FFF00
1FFE00
0FFC00
ENDCHAR
STARTCHAR 022B
ENCODING 555
SWIDTH 600 0
DWIDTH 20 0
BBX 18 29 1 0
BITMAP
1FFE00
1FFE00
1FFE00
000000
000000
1F3E00
1F3E00
1F3E00
1F3E00
000000
000000
000000
07F800
1FFE00
3FFF00
7E1F00
7C0F80
7C0F80
FC0FC0
FC0FC0
FC0FC0
FC0FC0
FC0FC0
7C0F80
7C0F80
3E1F00
3FFF00
1FFE00
07F800
ENDCHAR
STARTCHAR 022C
ENCODING 556
SWIDTH 600 0
DWIDTH 20 0
BBX 18 34 1 0
BITMAP
1FFE00
1FFE00
1FFE00
000000
040300
1FE700
3FFE00
3DFE00
301800
000000
000000
07F800
1FFE00
3FFF00
7FFF80
7E1F80
FC0FC0
FC07C0
F807C0
F807C0
F807C0
F807C0
F807C0
F807C0
F807C0
F807C0
F807C0
F807C0
FC0FC0
FE1FC0
7FFF80
3FFF00
1FFE00
0FFC00
ENDCHAR
STARTCHAR 022D
ENCODING 557
SWIDTH 600 0
DWIDTH 20 0
BBX 18 29 1 0
BITMAP
1FFE00
1FFE00
1FFE00
000000
000000
0F8700
1FFF00
3FFE00
387C00
000000
000000
000000
07F800
1FFE00
3FFF00
7E1F00
7C0F80
7C0F80
FC0FC0
FC0FC0
FC0FC0
FC0FC0
FC0FC0
7C0F80
7C0F80
3E1F00
3FFF00
1FFE00
07F800
ENDCHAR
STARTCHAR 0230
ENCODING 560
SWIDTH 600 0
DWIDTH 20 0
BBX 18 34 1 0
BITMAP
0FFE00
0FFE00
0FFE00
000000
03F000
03F000
03F000
03F000
03F000
000000
000000
07F800
1FFE00
3FFF00
7FFF80
7E1F80
FC0FC0
FC07C0
F807C0
F807C0
F807C0
F807C0
F807C0
F807C0
F807C0
F807C0
F807C0
F807C0
FC0FC0
FE1FC0
7FFF80
3FFF00
1FFE00
0FFC00
ENDCHAR
STARTCHAR 0231
ENCODING 561
SWIDTH 600 0
DWIDTH 20 0
BBX 18 29 1 0
BITMAP
0FFE00
0FFE00
0FFE00
000000
000000
03F000
03F000
03F000
03F000
000000
000000
000000
07F800
1FFE00
3FFF00
7E1F00
7C0F80
7C0F80
FC0FC0
FC0FC0
FC0FC0
FC0FC0
FC0FC0
7C0F80
7C0F80
3E1F00
3FFF00
1FFE00
07F800
ENDCHAR
STARTCHAR 0232
ENCODING 562
SWIDTH 600 0
DWIDTH 20 0
BBX 20 29 0 0
BITMAP
0FFF00
0FFF00
0FFF00
000000
000000
000000
FC03F0
7E03E0
7E07E0
3F07C0
3F0FC0
1F8F80
1F9F80
0F9F00
0FDF00
07FE00
07FE00
03FC00
03FC00
01F800
01F800
01F800
01F800
01F800
01F800
01F800
01F800
01F800
01F800
ENDCHAR
STARTCHAR 0233
ENCODING 563
SWIDTH 600 0
DWIDTH 20 0
BBX 18 29 1 -6
BITMAP
0FFE00
0FFE00
0FFE00
000000
000000
000000
FC07C0
7C0F80
7E0F80
7E0F80
3E1F00
3F1F00
1F1E00
1F3E00
1FBE00
0FBC00
0FFC00
07FC00
07F800
07F800
03F000
03F000
01F000
03E000
03E000
4FC000
7F8000
7F8000
7E0000
ENDCHAR
STARTCHAR 0237
ENCODING 567
SWIDTH 600 0
DWIDTH 20 0
BBX 11 23 3 -6
BITMAP
FFE0
FFE0
FFE0
FFE0
07E0
07E0
07E0
07E0
07E0
07E0
07E0
07E0
07E0
07E0
07E0
07E0
07E0
07E0
07E0
CFC0
FFC0
FF80
FF00
ENDCHAR
STARTCHAR 0244
ENCODING 580
SWIDTH 600 0
DWIDTH 20 0
BBX 20 23 0 0
BITMAP
7E07E0
7E07E0
7E07E0
7E07E0
7E07E0
7E07E0
7E07E0
7E07E0
FFFFF0
FFFFF0
FFFFF0
FFFFF0
7E07E0
7E07E0
7E07E0
7E07E0
7E07E0
3E07C0
3F0FC0
3FFFC0
1FFF80
0FFF00
07FE00
ENDCHAR
STARTCHAR 0259
ENCODING 601
SWIDTH 600 0
DWIDTH 20 0
BBX 17 17 2 0
BITMAP
1FF000
3FFC00
7FFE00
FC3F00
F81F00
F81F00
001F00
FFFF80
FFFF80
FFFF80
F81F00
F81F00
F83F00
FC3E00
7FFE00
3FFC00
0FF000
ENDCHAR
STARTCHAR 0268
ENCODING 616
SWIDTH 600 0
DWIDTH 20 0
BBX 16 24 3 0
BITMAP
03C0
03C0
03C0
03C0
0000
0000
0000
FFE0
FFE0
FFE0
FFE0
07E0
07E0
3FFC
3FFC
3FFC
3FFC
07E0
07E0
07E0
FFFF
FFFF
FFFF
FFFF
ENDCHAR
STARTCHAR 026A
ENCODING 618
SWIDTH 600 0
DWIDTH 20 0
BBX 12 17 4 0
BITMAP
FFF0
FFF0
FFF0
FFF0
1F80
1F80
1F80
1F80
1F80
1F80
1F80
1F80
1F80
FFF0
FFF0
FFF0
FFF0
ENDCHAR
STARTCHAR 0272
ENCODING 626
SWIDTH 600 0
DWIDTH 20 0
BBX 20 23 -2 -6
BITMAP
0FBF80
0FFFE0
0FFFE0
0FFFF0
0FC3F0
0FC1F0
0FC1F0
0FC1F0
0FC1F0
0FC1F0
0FC1F0
0FC1F0
0FC1F0
0FC1F0
0FC1F0
0FC1F0
0FC1F0
0FC000
0FC000
8F8000
FF8000
FF0000
FE0000
ENDCHAR
STARTCHAR 0289
ENCODING 649
SWIDTH 600 0
DWIDTH 20 0
BBX 20 17 0 0
BITMAP
3E0FC0
3E0FC0
3E0FC0
3E0FC0
3E0FC0
FFFFF0
FFFFF0
FFFFF0
FFFFF0
3E0FC0
3E0FC0
3E0FC0
3F0FC0
3FFFC0
3FFFE0
1FFFE0
0FF3E0
ENDCHAR
STARTCHAR 02B9
ENCODING 697
SWIDTH 600 0
DWIDTH 20 0
BBX 6 6 7 19
BITMAP
3C
78
78
78
70
F0
ENDCHAR
STARTCHAR 02BA
ENCODING 698
SWIDTH 600 0
DWIDTH 20 0
BBX 12 6 4 19
BITMAP
3CF0
79E0
79E0
79E0
73C0
F3C0
ENDCHAR
STARTCHAR 02BC
ENCODING 700
SWIDTH 600 0
DWIDTH 20 0
BBX 4 9 8 18
BITMAP
F0
F0
F0
F0
30
30
60
60
C0
ENDCHAR
STARTCHAR 02C6
ENCODING 710
SWIDTH 600 0
DWIDTH 20 0
BBX 12 6 4 19
BITMAP
1F80
1F80
3FC0
79E0
F0F0
E0F0
ENDCHAR
STARTCHAR 02C7
ENCODING 711
SWIDTH 600 0
DWIDTH 20 0
BBX 13 6 3 19
BITMAP
F878
3CF0
1DE0
1FE0
0FC0
0780
ENDCHAR
STARTCHAR 02C9
ENCODING 713
SWIDTH 600 0
DWIDTH 20 0
BBX 10 3 5 22
BITMAP
FFC0
FFC0
FFC0
ENDCHAR
STARTCHAR 02CD
ENCODING 717
SWIDTH 600 0
DWIDTH 20 0
BBX 12 3 4 -6
BITMAP
FFF0
FFF0
FFF0
ENDCHAR
STARTCHAR 02D8
ENCODING 728
SWIDTH 600 0
DWIDTH 20 0
BBX 12 5 4 20
BITMAP
E070
E070
F9E0
7FE0
3FC0
ENDCHAR
STARTCHAR 02D9
ENCODING 729
SWIDTH 600 0
DWIDTH 20 0
BBX 4 4 8 20
BITMAP
F0
F0
F0
F0
ENDCHAR
STARTCHAR 02DA
ENCODING 730
SWIDTH 600 0
DWIDTH 20 0
BBX 8 7 6 19
BITMAP
3C
7E
E7
E7
7E
7E
08
ENDCHAR
STARTCHAR 02DB
ENCODING 731
SWIDTH 600 0
DWIDTH 20 0
BBX 8 5 6 -5
BITMAP
78
F0
F0
FF
3C
ENDCHAR
STARTCHAR 02DC
ENCODING 732
SWIDTH 600 0
DWIDTH 20 0
BBX 14 5 3 20
BITMAP
1C1C
3F1C
7FF8
77F8
E1F0
ENDCHAR
STARTCHAR 02DD
ENCODING 733
SWIDTH 600 0
DWIDTH 20 0
BBX 14 5 3 20
BITMAP
1F7C
3E78
7CF0
78E0
F1E0
ENDCHAR
STARTCHAR 0300
ENCODING 768
SWIDTH 0 0
DWIDTH 0 0
BBX 8 5 6 20
BITMAP
F8
7C
3C
1E
1F
ENDCHAR
STARTCHAR 0301
ENCODING 769
SWIDTH 0 0
DWIDTH 0 0
BBX 8 5 6 20
BITMAP
1F
3C
3C
78
F0
ENDCHAR
STARTCHAR 0302
ENCODING 770
SWIDTH 0 0
DWIDTH 0 0
BBX 12 6 4 19
BITMAP
1F80
1F80
3FC0
79E0
F0F0
E0F0
ENDCHAR
STARTCHAR 0303
ENCODING 771
SWIDTH 0 0
DWIDTH 0 0
BBX 14 5 3 20
BITMAP
1C1C
3F1C
7FF8
77F8
E1F0
ENDCHAR
STARTCHAR 0304
ENCODING 772
SWIDTH 0 0
DWIDTH 0 0
BBX 12 3 4 20
BITMAP
FFF0
FFF0
FFF0
ENDCHAR
STARTCHAR 0306
ENCODING 774
SWIDTH 0 0
DWIDTH 0 0
BBX 12 5 4 20
BITMAP
E070
E070
F9E0
7FE0
3FC0
ENDCHAR
STARTCHAR 0307
ENCODING 775
SWIDTH 0 0
DWIDTH 0 0
BBX 4 4 8 20
BITMAP
F0
F0
F0
F0
ENDCHAR
STARTCHAR 0308
ENCODING 776
SWIDTH 0 0
DWIDTH 0 0
BBX 12 4 4 20
BITMAP
F0F0
F0F0
F0F0
F0F0
ENDCHAR
STARTCHAR 0309
ENCODING 777
SWIDTH 0 0
DWIDTH 0 0
BBX 6 8 7 19
BITMAP
F0
FC
FC
1C
1C
1C
78
70
ENDCHAR
STARTCHAR 030A
ENCODING 778
SWIDTH 0 0
DWIDTH 0 0
BBX 8 7 6 19
BITMAP
3C
7E
E7
E7
7E
7E
08
ENDCHAR
STARTCHAR 030B
ENCODING 779
SWIDTH 0 0
DWIDTH 0 0
BBX 14 5 3 20
BITMAP
1F7C
3E78
7CF0
78E0
F1E0
ENDCHAR
STARTCHAR 030C
ENCODING 780
SWIDTH 0 0
DWIDTH 0 0
BBX 13 6 3 19
BITMAP
F878
3CF0
1DE0
1FE0
0FC0
0780
ENDCHAR
STARTCHAR 030F
ENCODING 783
SWIDTH 0 0
DWIDTH 0 0
BBX 14 5 3 20
BITMAP
F1E0
79F0
3CF0
1C78
1E3C
ENDCHAR
STARTCHAR 0311
ENCODING 785
SWIDTH 0 0
DWIDTH 0 0
BBX 12 5 4 20
BITMAP
0600
3FC0
7FE0
F0F0
E070
ENDCHAR
STARTCHAR 0312
ENCODING 786
SWIDTH 0 0
DWIDTH 0 0
BBX 4 10 8 20
BITMAP
70
60
E0
C0
C0
F0
F0
F0
F0
F0
ENDCHAR
STARTCHAR 0313
ENCODING 787
SWIDTH 0 0
DWIDTH 0 0
BBX 4 10 8 20
BITMAP
F0
F0
F0
F0
F0
30
30
70
60
E0
ENDCHAR
STARTCHAR 031B
ENCODING 795
SWIDTH 0 0
DWIDTH 0 0
BBX 8 8 6 14
BITMAP
1F
1F
1E
1E
3C
F8
F0
80
ENDCHAR
STARTCHAR 0323
ENCODING 803
SWIDTH 0 0
DWIDTH 0 0
BBX 6 4 7 -7
BITMAP
FC
FC
FC
FC
ENDCHAR
STARTCHAR 0324
ENCODING 804
SWIDTH 0 0
DWIDTH 0 0
BBX 12 4 4 -7
BITMAP
F0F0
F0F0
F0F0
F0F0
ENDCHAR
STARTCHAR 0326
ENCODING 806
SWIDTH 0 0
DWIDTH 0 0
BBX 4 11 8 -13
BITMAP
F0
F0
F0
F0
F0
30
30
70
60
E0
C0
ENDCHAR
STARTCHAR 0327
ENCODING 807
SWIDTH 0 0
DWIDTH 0 0
BBX 8 6 6 -7
BITMAP
1C
1F
07
47
FE
7C
ENDCHAR
STARTCHAR 0328
ENCODING 808
SWIDTH 0 0
DWIDTH 0 0
BBX 8 5 6 -5
BITMAP
78
F0
F0
FF
3C
ENDCHAR
STARTCHAR 032E
ENCODING 814
SWIDTH 0 0
DWIDTH 0 0
BBX 12 5 4 -7
BITMAP
C030
E070
F0F0
7FE0
3FC0
ENDCHAR
STARTCHAR 0330
ENCODING 816
SWIDTH 0 0
DWIDTH 0 0
BBX 14 5 3 -7
BITMAP
1C1C
3F1C
7FF8
77F8
E1F0
ENDCHAR
STARTCHAR 0331
ENCODING 817
SWIDTH 0 0
DWIDTH 0 0
BBX 12 3 4 -6
BITMAP
FFF0
FFF0
FFF0
ENDCHAR
STARTCHAR 0335
ENCODING 821
SWIDTH 0 0
DWIDTH 0 0
BBX 14 3 3 9
BITMAP
FFFC
FFFC
FFFC
ENDCHAR
STARTCHAR 0336
ENCODING 822
SWIDTH 0 0
DWIDTH 0 0
BBX 20 3 0 11
BITMAP
FFFFF0
FFFFF0
FFFFF0
ENDCHAR
STARTCHAR 0337
ENCODING 823
SWIDTH 0 0
DWIDTH 0 0
BBX 14 10 3 7
BITMAP
000C
003C
00FC
03F0
0FC0
3F00
FC00
F000
C000
8000
ENDCHAR
STARTCHAR 0338
ENCODING 824
SWIDTH 0 0
DWIDTH 0 0
BBX 16 21 2 -2
BITMAP
0007
000E
000C
001C
0038
0030
0070
00E0
00C0
01C0
0180
0380
0700
0600
0E00
1C00
1800
3800
7000
7000
E000
ENDCHAR
STARTCHAR 0394
ENCODING 916
SWIDTH 600 0
DWIDTH 20 0
BBX 18 23 1 0
BITMAP
07F800
07F800
07F800
07F800
0FFC00
0FFC00
0F7C00
1F3E00
1F3E00
1F3E00
1E3E00
3E1F00
3E1F00
3E1F00
7C1F80
7C1F80
7C0F80
7C0F80
F80FC0
FFFFC0
FFFFC0
FFFFC0
FFFFC0
ENDCHAR
STARTCHAR 03A9
ENCODING 937
SWIDTH 600 0
DWIDTH 20 0
BBX 20 23 0 0
BITMAP
03FC00
0FFF00
1FFF80
3FFFC0
7F0FE0
7E07E0
7C03E0
7C03E0
FC03F0
FC03F0
FC03F0
FC03F0
FC03F0
7C03E0
7C03E0
7C03E0
3C03C0
3C03C0
1C0380
FE07F0
FF0FF0
FF9FF0
FF9FF0
ENDCHAR
STARTCHAR 03BC
ENCODING 956
SWIDTH 600 0
DWIDTH 20 0
BBX 17 22 2 -5
BITMAP
F83F00
F83F00
F83F00
F83F00
F83F00
F83F00
F83F00
F83F00
F83F00
F83F00
F83F00
F83F00
FC3F00
FFFF00
FFFF80
FFFF80
FFCF80
F80000
F80000
F80000
F80000
F80000
ENDCHAR
STARTCHAR 03C0
ENCODING 960
SWIDTH 600 0
DWIDTH 20 0
BBX 20 17 0 0
BITMAP
7FFFF0
FFFFF0
7FFFE0
4F8F80
0F8F80
0F8F80
1F0F80
1F0F80
1F0F80
1F0F80
1F0F80
1F0F80
1F0F80
3E0F80
3E0F80
3E0F80
7E0FC0
ENDCHAR
STARTCHAR 1E24
ENCODING 7716
SWIDTH 600 0
DWIDTH 20 0
BBX 16 30 2 -7
BITMAP
F81F
F81F
F81F
F81F
F81F
F81F
F81F
F81F
F81F
FFFF
FFFF
FFFF
FFFF
FFFF
F81F
F81F
F81F
F81F
F81F
F81F
F81F
F81F
F81F
0000
0000
0000
03E0
03E0
03E0
03E0
ENDCHAR
STARTCHAR 1E25
ENCODING 7717
SWIDTH 600 0
DWIDTH 20 0
BBX 16 31 2 -7
BITMAP
FC00
FC00
FC00
FC00
FC00
FC00
FC00
FDFC
FFFE
FFFE
FFFF
FC3F
FC1F
FC1F
FC1F
FC1F
FC1F
FC1F
FC1F
FC1F
FC1F
FC1F
FC1F
FC1F
0000
0000
0000
03E0
03E0
03E0
03E0
ENDCHAR
STARTCHAR 1E62
ENCODING 7778
SWIDTH 600 0
DWIDTH 20 0
BBX 18 30 1 -7
BITMAP
07FC00
1FFE00
3FFF80
7FFF80
FE0FC0
FC07C0
FC07C0
FC0000
FF8000
7FF800
7FFE00
3FFF80
0FFF80
01FFC0
001FC0
F80FC0
F807C0
F80FC0
FC0FC0
FFFFC0
7FFF80
3FFF00
0FFC00
000000
000000
000000
01F000
01F000
01F000
01F000
ENDCHAR
STARTCHAR 1E63
ENCODING 7779
SWIDTH 600 0
DWIDTH 20 0
BBX 16 24 2 -7
BITMAP
1FF8
3FFC
7FFE
F83E
F81E
FC00
FFC0
7FFC
3FFE
1FFF
00FF
001F
F01F
F81F
7FFE
7FFC
1FF8
0000
0000
0000
03E0
03E0
03E0
03E0
ENDCHAR
STARTCHAR 1E6C
ENCODING 7788
SWIDTH 600 0
DWIDTH 20 0
BBX 18 30 1 -7
BITMAP
FFFFC0
FFFFC0
FFFFC0
FFFFC0
FFFFC0
03F000
03F000
03F000
03F000
03F000
03F000
03F000
03F000
03F000
03F000
03F000
03F000
03F000
03F000
03F000
03F000
03F000
03F000
000000
000000
000000
01F000
01F000
01F000
01F000
ENDCHAR
STARTCHAR 1E6D
ENCODING 7789
SWIDTH 600 0
DWIDTH 20 0
BBX 17 29 1 -7
BITMAP
01C000
03C000
03C000
03C000
07C000
FFFF80
FFFF80
FFFF80
FFFF80
07C000
07C000
07C000
07C000
07C000
07C000
07C000
07C000
07E000
07FF80
03FF80
03FF80
00FF80
000000
000000
000000
00F800
00F800
00F800
00F800
ENDCHAR
STARTCHAR 1E80
ENCODING 7808
SWIDTH 600 0
DWIDTH 20 0
BBX 20 30 0 0
BITMAP
0F8000
07C000
03E000
01E000
00F000
000000
000000
F8F0F0
F8F0F0
F8F0F0
F8F9F0
78F9F0
78F9E0
78F9E0
7DF9E0
7DF9E0
7DF9E0
7DF9E0
7DFFE0
7DFFE0
3D9FC0
3D9FC0
3F9FC0
3F9FC0
3F9FC0
3F9FC0
3F9FC0
3F8FC0
3F0FC0
1F0F80
ENDCHAR
STARTCHAR 1E81
ENCODING 7809
SWIDTH 600 0
DWIDTH 20 0
BBX 20 25 0 0
BITMAP
07C000
03E000
01E000
00F000
00F000
000800
000000
000000
F0F0F0
F0F0F0
F9F9F0
79F9E0
79F9E0
79F9E0
79F9E0
79F9E0
7FFFE0
3FDFC0
3F9FC0
3F9FC0
3F9FC0
3F9FC0
1F9F80
1F8F80
1F0F80
ENDCHAR
STARTCHAR 1E82
ENCODING 7810
SWIDTH 600 0
DWIDTH 20 0
BBX 20 30 0 0
BITMAP
001F00
003E00
003C00
007800
00F000
000000
000000
F8F0F0
F8F0F0
F8F0F0
F8F9F0
78F9F0
78F9E0
78F9E0
7DF9E0
7DF9E0
7DF9E0
7DF9E0
7DFFE0
7DFFE0
3D9FC0
3D9FC0
3F9FC0
3F9FC0
3F9FC0
3F9FC0
3F9FC0
3F8FC0
3F0FC0
1F0F80
ENDCHAR
STARTCHAR 1E83
ENCODING 7811
SWIDTH 600 0
DWIDTH 20 0
BBX 20 25 0 0
BITMAP
003E00
007C00
007800
00F000
00F000
010000
000000
000000
F0F0F0
F0F0F0
F9F9F0
79F9E0
79F9E0
79F9E0
79F9E0
79F9E0
7FFFE0
3FDFC0
3F9FC0
3F9FC0
3F9FC0
3F9FC0
1F9F80
1F8F80
1F0F80
ENDCHAR
STARTCHAR 1E84
ENCODING 7812
SWIDTH 600 0
DWIDTH 20 0
BBX 20 29 0 0
BITMAP
0F0F00
0F0F00
0F0F00
0F0F00
000000
000000
F8F0F0
F8F0F0
F8F0F0
F8F9F0
78F9F0
78F9E0
78F9E0
7DF9E0
7DF9E0
7DF9E0
7DF9E0
7DFFE0
7DFFE0
3D9FC0
3D9FC0
3F9FC0
3F9FC0
3F9FC0
3F9FC0
3F9FC0
3F8FC0
3F0FC0
1F0F80
ENDCHAR
STARTCHAR 1E85
ENCODING 7813
SWIDTH 600 0
DWIDTH 20 0
BBX 20 24 0 0
BITMAP
0F0F00
0F0F00
0F0F00
0F0F00
000000
000000
000000
F0F0F0
F0F0F0
F9F9F0
79F9E0
79F9E0
79F9E0
79F9E0
79F9E0
7FFFE0
3FDFC0
3F9FC0
3F9FC0
3F9FC0
3F9FC0
1F9F80
1F8F80
1F0F80
ENDCHAR
STARTCHAR 1E9E
ENCODING 7838
SWIDTH 600 0
DWIDTH 20 0
BBX 18 23 1 0
BITMAP
07FC00
0FFF00
1FFF80
3FFF80
7E0FC0
7E07C0
7C07C0
7C07C0
7C0F80
FC1F80
FC7F00
FC7F00
FC7F80
FC0FC0
FC07C0
FC07C0
FC07C0
FC07C0
FC0FC0
FCFFC0
FCFF80
FCFF00
FCFE00
ENDCHAR
STARTCHAR 1EA0
ENCODING 7840
SWIDTH 600 0
DWIDTH 20 0
BBX 20 30 0 -7
BITMAP
03FC00
03FC00
03FC00
03FC00
07FE00
07FE00
07BE00
0F9F00
0F9F00
0F9F00
0F1F00
1F0F80
1F0F80
1F0F80
1E0F80
3FFFC0
3FFFC0
3FFFC0
7E07E0
7C07E0
7C03E0
7C03E0
FC03F0
000000
000000
000000
01F800
01F800
01F800
01F800
ENDCHAR
STARTCHAR 1EA1
ENCODING 7841
SWIDTH 600 0
DWIDTH 20 0
BBX 17 24 2 -7
BITMAP
1FF800
3FFC00
7FFE00
FC3E00
F83E00
003E00
003E00
1FFE00
7FFE00
FE3E00
F83E00
F83E00
F83E00
F87E00
FFFF80
7FDF80
3F9F80
000000
000000
000000
07E000
07E000
07E000
07E000
ENDCHAR
STARTCHAR 1EA2
ENCODING 7842
SWIDTH 600 0
DWIDTH 20 0
BBX 20 33 0 0
BITMAP
01F000
01F800
01FC00
011C00
001C00
003C00
007800
006000
000000
000000
03FC00
03FC00
03FC00
03FC00
07FE00
07FE00
07BE00
0F9F00
0F9F00
0F9F00
0F1F00
1F0F80
1F0F80
1F0F80
1E0F80
3FFFC0
3FFFC0
3FFFC0
7E07E0
7C07E0
7C03E0
7C03E0
FC03F0
ENDCHAR
STARTCHAR 1EA3
ENCODING 7843
SWIDTH 600 0
DWIDTH 20 0
BBX 17 27 2 0
BITMAP
07C000
07E000
07E000
00F000
007000
00E000
01E000
01C000
000000
000000
1FF800
3FFC00
7FFE00
FC3E00
F83E00
003E00
003E00
1FFE00
7FFE00
FE3E00
F83E00
F83E00
F83E00
F87E00
FFFF80
7FDF80
3F9F80
ENDCHAR
STARTCHAR 1EA4
ENCODING 7844
SWIDTH 600 0
DWIDTH 20 0
BBX 20 35 0 0
BITMAP
003E00
003C00
007800
00F000
000000
00F000
01F800
03FC00
079E00
0E0780
000000
000000
03FC00
03FC00
03FC00
03FC00
07FE00
07FE00
07BE00
0F9F00
0F9F00
0F9F00
0F1F00
1F0F80
1F0F80
1F0F80
1E0F80
3FFFC0
3FFFC0
3FFFC0
7E07E0
7C07E0
7C03E0
7C03E0
FC03F0
ENDCHAR
STARTCHAR 1EA5
ENCODING 7845
SWIDTH 600 0
DWIDTH 20 0
BBX 17 31 2 0
BITMAP
007800
00F000
00F000
01E000
03C000
000000
03C000
07E000
0FE000
1EF000
3C3C00
400000
000000
000000
1FF800
3FFC00
7FFE00
FC3E00
F83E00
003E00
003E00
1FFE00
7FFE00
FE3E00
F83E00
F83E00
F83E00
F87E00
FFFF80
7FDF80
3F9F80
ENDCHAR
STARTCHAR 1EA6
ENCODING 7846
SWIDTH 600 0
DWIDTH 20 0
BBX 20 35 0 0
BITMAP
07C000
03C000
01E000
00F000
000000
00F000
01F800
03FC00
079E00
0E0780
000000
000000
03FC00
03FC00
03FC00
03FC00
07FE00
07FE00
07BE00
0F9F00
0F9F00
0F9F00
0F1F00
1F0F80
1F0F80
1F0F80
1E0F80
3FFFC0
3FFFC0
3FFFC0
7E07E0
7C07E0
7C03E0
7C03E0
FC03F0
ENDCHAR
STARTCHAR 1EA7
ENCODING 7847
SWIDTH 600 0
DWIDTH 20 0
BBX 17 31 2 0
BITMAP
3E0000
1E0000
0F0000
078000
038000
000000
03C000
07E000
0FE000
1EF000
3C3C00
400000
000000
000000
1FF800
3FFC00
7FFE00
FC3E00
F83E00
003E00
003E00
1FFE00
7FFE00
FE3E00
F83E00
F83E00
F83E00
F87E00
FFFF80
7FDF80
3F9F80
ENDCHAR
STARTCHAR 1EA8
ENCODING 7848
SWIDTH 600 0
DWIDTH 20 0
BBX 20 38 0 0
BITMAP
00E000
00F800
00F800
001800
001800
007800
006000
000000
00F000
01F800
03FC00
079E00
0E0780
000000
000000
03FC00
03FC00
03FC00
03FC00
07FE00
07FE00
07BE00
0F9F00
0F9F00
0F9F00
0F1F00
1F0F80
1F0F80
1F0F80
1E0F80
3FFFC0
3FFFC0
3FFFC0
7E07E0
7C07E0
7C03E0
7C03E0
FC03F0
ENDCHAR
STARTCHAR 1EA9
ENCODING 7849
SWIDTH 600 0
DWIDTH 20 0
BBX 17 33 2 0
BITMAP
038000
07C000
07E000
006000
00E000
01C000
018000
000000
03C000
07E000
0FF000
1EF000
3C3C00
400000
000000
000000
1FF800
3FFC00
7FFE00
FC3E00
F83E00
003E00
003E00
1FFE00
7FFE00
FE3E00
F83E00
F83E00
F83E00
F87E00
FFFF80
7FDF80
3F9F80
ENDCHAR
STARTCHAR 1EAA
ENCODING 7850
SWIDTH 600 0
DWIDTH 20 0
BBX 20 35 0 0
BITMAP
07E300
0FFF00
0FFF00
0C3C00
000000
00F000
01F800
03FC00
079E00
0E0780
000000
000000
03FC00
03FC00
03FC00
03FC00
07FE00
07FE00
07BE00
0F9F00
0F9F00
0F9F00
0F1F00
1F0F80
1F0F80
1F0F80
1E0F80
3FFFC0
3FFFC0
3FFFC0
7E07E0
7C07E0
7C03E0
7C03E0
FC03F0
ENDCHAR
STARTCHAR 1EAB
ENCODING 7851
SWIDTH 600 0
DWIDTH 20 0
BBX 17 30 2 0
BITMAP
1F0C00
3FFC00
3FF800
71F000
000000
03C000
07E000
0FE000
1EF000
3C3C00
400000
000000
000000
1FF800
3FFC00
7FFE00
FC3E00
F83E00
003E00
003E00
1FFE00
7FFE00
FE3E00
F83E00
F83E00
F83E00
F87E00
FFFF80
7FDF80
3F9F80
ENDCHAR
STARTCHAR 1EAC
ENCODING 7852
SWIDTH 600 0
DWIDTH 20 0
BBX 20 37 0 -7
BITMAP
00F000
01F800
03FC00
079E00
0F0F00
000000
000000
03FC00
03FC00
03FC00
03FC00
07FE00
07FE00
07BE00
0F9F00
0F9F00
0F9F00
0F1F00
1F0F80
1F0F80
1F0F80
1E0F80
3FFFC0
3FFFC0
3FFFC0
7E07E0
7C07E0
7C03E0
7C03E0
FC03F0
000000
000000
000000
01F800
01F800
01F800
01F800
ENDCHAR
STARTCHAR 1EAD
ENCODING 7853
SWIDTH 600 0
DWIDTH 20 0
BBX 17 32 2 -7
BITMAP
07C000
0FE000
0EF000
1E7800
3C7800
783C00
000000
000000
1FF800
3FFC00
7FFE00
FC3E00
F83E00
003E00
003E00
1FFE00
7FFE00
FE3E00
F83E00
F83E00
F83E00
F87E00
FFFF80
7FDF80
3F9F80
000000
000000
000000
07E000
07E000
07E000
07E000
ENDCHAR
STARTCHAR 1EAE
ENCODING 7854
SWIDTH 600 0
DWIDTH 20 0
BBX 20 35 0 0
BITMAP
001F00
003C00
003800
007800
00F000
0E0700
0E0700
0FFF00
07FE00
01F000
000000
000000
03FC00
03FC00
03FC00
03FC00
07FE00
07FE00
07BE00
0F9F00
0F9F00
0F9F00
0F1F00
1F0F80
1F0F80
1F0F80
1E0F80
3FFFC0
3FFFC0
3FFFC0
7E07E0
7C07E0
7C03E0
7C03E0
FC03F0
ENDCHAR
STARTCHAR 1EAF
ENCODING 7855
SWIDTH 600 0
DWIDTH 20 0
BBX 17 30 2 0
BITMAP
007800
00F000
01E000
01E000
03C000
400000
381C00
3EF800
1FF800
0FE000
000000
000000
000000
1FF800
3FFC00
7FFE00
FC3E00
F83E00
003E00
003E00
1FFE00
7FFE00
FE3E00
F83E00
F83E00
F83E00
F87E00
FFFF80
7FDF80
3F9F80
ENDCHAR
STARTCHAR 1EB0
ENCODING 7856
SWIDTH 600 0
DWIDTH 20 0
BBX 20 35 0 0
BITMAP
078000
03C000
01C000
00E000
00F000
0E0700
0E0700
0FFF00
07FE00
00F000
000000
000000
03FC00
03FC00
03FC00
03FC00
07FE00
07FE00
07BE00
0F9F00
0F9F00
0F9F00
0F1F00
1F0F80
1F0F80
1F0F80
1E0F80
3FFFC0
3FFFC0
3FFFC0
7E07E0
7C07E0
7C03E0
7C03E0
FC03F0
ENDCHAR
STARTCHAR 1EB1
ENCODING 7857
SWIDTH 600 0
DWIDTH 20 0
BBX 17 30 2 0
BITMAP
3E0000
1E0000
0F0000
078000
03C000
701C00
381C00
3FF800
1FF000
07E000
000000
000000
000000
1FF800
3FFC00
7FFE00
FC3E00
F83E00
003E00
003E00
1FFE00
7FFE00
FE3E00
F83E00
F83E00
F83E00
F87E00
FFFF80
7FDF80
3F9F80
ENDCHAR
STARTCHAR 1EB2
ENCODING 7858
SWIDTH 600 0
DWIDTH 20 0
BBX 20 37 0 0
BITMAP
00F000
00F800
00B800
001800
003800
007000
006000
0E0700
0E0700
0FFF00
07FE00
00F000
000000
000000
03FC00
03FC00
03FC00
03FC00
07FE00
07FE00
07BE00
0F9F00
0F9F00
0F9F00
0F1F00
1F0F80
1F0F80
1F0F80
1E0F80
3FFFC0
3FFFC0
3FFFC0
7E07E0
7C07E0
7C03E0
7C03E0
FC03F0
ENDCHAR
STARTCHAR 1EB3
ENCODING 7859
SWIDTH 600 0
DWIDTH 20 0
BBX 17 32 2 0
BITMAP
078000
07E000
07E000
006000
00E000
01C000
018000
701C00
381C00
3FF800
1FF000
07E000
000000
000000
000000
1FF800
3FFC00
7FFE00
FC3E00
F83E00
003E00
003E00
1FFE00
7FFE00
FE3E00
F83E00
F83E00
F83E00
F87E00
FFFF80
7FDF80
3F9F80
ENDCHAR
STARTCHAR 1EB4
ENCODING 7860
SWIDTH 600 0
DWIDTH 20 0
BBX 20 35 0 0
BITMAP
07E700
0FFF00
0FFE00
0C3C00
000000
0E0700
0E0700
0FFF00
07FE00
00F000
000000
000000
03FC00
03FC00
03FC00
03FC00
07FE00
07FE00
07BE00
0F9F00
0F9F00
0F9F00
0F1F00
1F0F80
1F0F80
1F0F80
1E0F80
3FFFC0
3FFFC0
3FFFC0
7E07E0
7C07E0
7C03E0
7C03E0
FC03F0
ENDCHAR
STARTCHAR 1EB5
ENCODING 7861
SWIDTH 600 0
DWIDTH 20 0
BBX 17 30 2 0
BITMAP
1F1C00
3FFC00
3FF800
70F000
000000
701C00
381C00
3FF800
1FF000
07E000
000000
000000
000000
1FF800
3FFC00
7FFE00
FC3E00
F83E00
003E00
003E00
1FFE00
7FFE00
FE3E00
F83E00
F83E00
F83E00
F87E00
FFFF80
7FDF80
3F9F80
ENDCHAR
STARTCHAR 1EB6
ENCODING 7862
SWIDTH 600 0
DWIDTH 20 0
BBX 20 37 0 -7
BITMAP
0E0700
0F0F00
07FE00
07FC00
01F800
000000
000000
03FC00
03FC00
03FC00
03FC00
07FE00
07FE00
07BE00
0F9F00
0F9F00
0F9F00
0F1F00
1F0F80
1F0F80
1F0F80
1E0F80
3FFFC0
3FFFC0
3FFFC0
7E07E0
7C07E0
7C03E0
7C03E0
FC03F0
000000
000000
000000
01F800
01F800
01F800
01F800
ENDCHAR
STARTCHAR 1EB7
ENCODING 7863
SWIDTH 600 0
DWIDTH 20 0
BBX 17 32 2 -7
BITMAP
381C00
383C00
3C7800
1FF000
0FE000
000000
000000
000000
1FF800
3FFC00
7FFE00
FC3E00
F83E00
003E00
003E00
1FFE00
7FFE00
FE3E00
F83E00
F83E00
F83E00
F87E00
FFFF80
7FDF80
3F9F80
000000
000000
000000
07E000
07E000
07E000
07E000
ENDCHAR
STARTCHAR 1EB8
ENCODING 7864
SWIDTH 600 0
DWIDTH 20 0
BBX 16 30 2 -7
BITMAP
FFFF
FFFF
FFFF
FFFF
FC00
FC00
FC00
FC00
FC00
FFFE
FFFE
FFFE
FFFE
FC00
FC00
FC00
FC00
FC00
FC00
FFFF
FFFF
FFFF
FFFF
0000
0000
0000
03E0
03E0
03E0
03E0
ENDCHAR
STARTCHAR 1EB9
ENCODING 7865
SWIDTH 600 0
DWIDTH 20 0
BBX 17 24 1 -7
BITMAP
07FC00
1FFE00
3FFF00
3E1F80
7E0F80
7C0F80
7C0F80
FFFF80
FFFF80
FC0000
7C0000
7C0F80
7C0F80
7E1F80
3FFF00
1FFE00
07FC00
000000
000000
000000
01F000
01F000
01F000
01F000
ENDCHAR
STARTCHAR 1EBA
ENCODING 7866
SWIDTH 600 0
DWIDTH 20 0
BBX 16 33 2 0
BITMAP
03C0
03F0
03F0
0478
0030
00F0
01E0
0180
0000
0000
FFFF
FFFF
FFFF
FFFF
FC00
FC00
FC00
FC00
FC00
FFFE
FFFE
FFFE
FFFE
FC00
FC00
FC00
FC00
FC00
FC00
FFFF
FFFF
FFFF
FFFF
ENDCHAR
STARTCHAR 1EBB
ENCODING 7867
SWIDTH 600 0
DWIDTH 20 0
BBX 17 27 1 0
BITMAP
03E000
03F000
03F800
003800
003800
003800
00F000
00E000
000000
000000
07FC00
1FFE00
3FFF00
3E1F80
7E0F80
7C0F80
7C0F80
FFFF80
FFFF80
FC0000
7C0000
7C0F80
7C0F80
7E1F80
3FFF00
1FFE00
07FC00
ENDCHAR
STARTCHAR 1EBC
ENCODING 7868
SWIDTH 600 0
DWIDTH 20 0
BBX 16 30 2 0
BITMAP
040E
1FCE
3FFC
3FFC
30F8
0000
0000
FFFF
FFFF
FFFF
FFFF
FC00
FC00
FC00
FC00
FC00
FFFE
FFFE
FFFE
FFFE
FC00
FC00
FC00
FC00
FC00
FC00
FFFF
FFFF
FFFF
FFFF
ENDCHAR
STARTCHAR 1EBD
ENCODING 7869
SWIDTH 600 0
DWIDTH 20 0
BBX 17 25 1 0
BITMAP
070300
0FC700
1FFF00
1DFE00
187C00
000000
000000
000000
07FC00
1FFE00
3FFF00
3E1F80
7E0F80
7C0F80
7C0F80
FFFF80
FFFF80
FC0000
7C0000
7C0F80
7C0F80
7E1F80
3FFF00
1FFE00
07FC00
ENDCHAR
STARTCHAR 1EBE
ENCODING 7870
SWIDTH 600 0
DWIDTH 20 0
BBX 16 35 2 0
BITMAP
007C
00F0
01E0
01C0
0000
03C0
07E0
0FF0
1E78
3C1E
0000
0000
FFFF
FFFF
FFFF
FFFF
FC00
FC00
FC00
FC00
FC00
FFFE
FFFE
FFFE
FFFE
FC00
FC00
FC00
FC00
FC00
FC00
FFFF
FFFF
FFFF
FFFF
ENDCHAR
STARTCHAR 1EBF
ENCODING 7871
SWIDTH 600 0
DWIDTH 20 0
BBX 17 31 1 0
BITMAP
003E00
003C00
007800
007000
00E000
000000
01E000
03F000
07F800
07BC00
1E1E00
000100
000000
000000
07FC00
1FFE00
3FFF00
3E1F80
7E0F80
7C0F80
7C0F80
FFFF80
FFFF80
FC0000
7C0000
7C0F80
7C0F80
7E1F80
3FFF00
1FFE00
07FC00
ENDCHAR
STARTCHAR 1EC0
ENCODING 7872
SWIDTH 600 0
DWIDTH 20 0
BBX 16 35 2 0
BITMAP
1F00
0700
0780
03C0
0000
03C0
07E0
0FF0
1E78
3C1E
0000
0000
FFFF
FFFF
FFFF
FFFF
FC00
FC00
FC00
FC00
FC00
FFFE
FFFE
FFFE
FFFE
FC00
FC00
FC00
FC00
FC00
FC00
FFFF
FFFF
FFFF
FFFF
ENDCHAR
STARTCHAR 1EC1
ENCODING 7873
SWIDTH 600 0
DWIDTH 20 0
BBX 17 31 1 0
BITMAP
0F0000
078000
038000
03C000
01E000
000000
01E000
03F000
07F800
07BC00
1E1E00
000100
000000
000000
07FC00
1FFE00
3FFF00
3E1F80
7E0F80
7C0F80
7C0F80
FFFF80
FFFF80
FC0000
7C0000
7C0F80
7C0F80
7E1F80
3FFF00
1FFE00
07FC00
ENDCHAR
STARTCHAR 1EC2
ENCODING 7874
SWIDTH 600 0
DWIDTH 20 0
BBX 16 38 2 0
BITMAP
03C0
03E0
03F0
0070
0070
00E0
00C0
0000
03C0
07E0
0FF0
1E78
3C1E
0000
0000
FFFF
FFFF
FFFF
FFFF
FC00
FC00
FC00
FC00
FC00
FFFE
FFFE
FFFE
FFFE
FC00
FC00
FC00
FC00
FC00
FC00
FFFF
FFFF
FFFF
FFFF
ENDCHAR
STARTCHAR 1EC3
ENCODING 7875
SWIDTH 600 0
DWIDTH 20 0
BBX 17 33 1 0
BITMAP
01C000
01F000
01F800
003800
003000
007000
006000
000000
01E000
03F000
03F800
07BC00
1E1E00
000100
000000
000000
07FC00
1FFE00
3FFF00
3E1F80
7E0F80
7C0F80
7C0F80
FFFF80
FFFF80
FC0000
7C0000
7C0F80
7C0F80
7E1F80
3FFF00
1FFE00
07FC00
ENDCHAR
STARTCHAR 1EC4
ENCODING 7876
SWIDTH 600 0
DWIDTH 20 0
BBX 16 35 2 0
BITMAP
0F8E
1FFC
3FFC
30F8
0000
03C0
07E0
0FF0
1E78
3C1E
0000
0000
FFFF
FFFF
FFFF
FFFF
FC00
FC00
FC00
FC00
FC00
FFFE
FFFE
FFFE
FFFE
FC00
FC00
FC00
FC00
FC00
FC00
FFFF
FFFF
FFFF
FFFF
ENDCHAR
STARTCHAR 1EC5
ENCODING 7877
SWIDTH 600 0
DWIDTH 20 0
BBX 17 30 1 0
BITMAP
07C700
0FFE00
1FFE00
1C7C00
000000
01E000
03F000
07F800
07BC00
1E1E00
000100
000000
000000
07FC00
1FFE00
3FFF00
3E1F80
7E0F80
7C0F80
7C0F80
FFFF80
FFFF80
FC0000
7C0000
7C0F80
7C0F80
7E1F80
3FFF00
1FFE00
07FC00
ENDCHAR
STARTCHAR 1EC6
ENCODING 7878
SWIDTH 600 0
DWIDTH 20 0
BBX 16 37 2 -7
BITMAP
03E0
07F0
0F70
1E78
3C3C
0000
0000
FFFF
FFFF
FFFF
FFFF
FC00
FC00
FC00
FC00
FC00
FFFE
FFFE
FFFE
FFFE
FC00
FC00
FC00
FC00
FC00
FC00
FFFF
FFFF
FFFF
FFFF
0000
0000
0000
03E0
03E0
03E0
03E0
ENDCHAR
STARTCHAR 1EC7
ENCODING 7879
SWIDTH 600 0
DWIDTH 20 0
BBX 17 32 1 -7
BITMAP
01F000
03F800
07B800
0F3C00
0E1E00
1E0F00
000000
000000
07FC00
1FFE00
3FFF00
3E1F80
7E0F80
7C0F80
7C0F80
FFFF80
FFFF80
FC0000
7C0000
7C0F80
7C0F80
7E1F80
3FFF00
1FFE00
07FC00
000000
000000
000000
01F000
01F000
01F000
01F000
ENDCHAR
STARTCHAR 1EC8
ENCODING 7880
SWIDTH 600 0
DWIDTH 20 0
BBX 15 33 3 0
BITMAP
0F80
0FC0
0FE0
08E0
00E0
01E0
03C0
0300
0000
0000
FFFE
FFFE
FFFE
FFFE
0FC0
0FC0
0FC0
0FC0
0FC0
0FC0
0FC0
0FC0
0FC0
0FC0
0FC0
0FC0
0FC0
0FC0
0FC0
FFFE
FFFE
FFFE
FFFE
ENDCHAR
STARTCHAR 1EC9
ENCODING 7881
SWIDTH 600 0
DWIDTH 20 0
BBX 16 27 3 0
BITMAP
07C0
07E0
07F0
0070
0070
00E0
01E0
01C0
0000
0000
FFE0
FFE0
FFE0
FFE0
07E0
07E0
07E0
07E0
07E0
07E0
07E0
07E0
07E0
FFFF
FFFF
FFFF
FFFF
ENDCHAR
STARTCHAR 1ECA
ENCODING 7882
SWIDTH 600 0
DWIDTH 20 0
BBX 15 30 3 -7
BITMAP
FFFE
FFFE
FFFE
FFFE
0FC0
0FC0
0FC0
0FC0
0FC0
0FC0
0FC0
0FC0
0FC0
0FC0
0FC0
0FC0
0FC0
0FC0
0FC0
FFFE
FFFE
FFFE
FFFE
0000
0000
0000
07C0
07C0
07C0
07C0
ENDCHAR
STARTCHAR 1ECB
ENCODING 7883
SWIDTH 600 0
DWIDTH 20 0
BBX 16 31 3 -7
BITMAP
03C0
03C0
03C0
03C0
0000
0000
0000
FFE0
FFE0
FFE0
FFE0
07E0
07E0
07E0
07E0
07E0
07E0
07E0
07E0
07E0
FFFF
FFFF
FFFF
FFFF
0000
0000
0000
07E0
07E0
07E0
07E0
ENDCHAR
STARTCHAR 1ECC
ENCODING 7884
SWIDTH 600 0
DWIDTH 20 0
BBX 18 30 1 -7
BITMAP
07F800
1FFE00
3FFF00
7FFF80
7E1F80
FC0FC0
FC07C0
F807C0
F807C0
F807C0
F807C0
F807C0
F807C0
F807C0
F807C0
F807C0
F807C0
FC0FC0
FE1FC0
7FFF80
3FFF00
1FFE00
0FFC00
000000
000000
000000
01F000
01F000
01F000
01F000
ENDCHAR
STARTCHAR 1ECD
ENCODING 7885
SWIDTH 600 0
DWIDTH 20 0
BBX 18 24 1 -7
BITMAP
07F800
1FFE00
3FFF00
7E1F00
7C0F80
7C0F80
FC0FC0
FC0FC0
FC0FC0
FC0FC0
FC0FC0
7C0F80
7C0F80
3E1F00
3FFF00
1FFE00
07F800
000000
000000
000000
01F000
01F000
01F000
01F000
ENDCHAR
STARTCHAR 1ECE
ENCODING 7886
SWIDTH 600 0
DWIDTH 20 0
BBX 18 33 1 0
BITMAP
03E000
03F000
03F800
023800
003800
007800
00F000
00C000
000000
000000
07F800
1FFE00
3FFF00
7FFF80
7E1F80
FC0FC0
FC07C0
F807C0
F807C0
F807C0
F807C0
F807C0
F807C0
F807C0
F807C0
F807C0
F807C0
FC0FC0
FE1FC0
7FFF80
3FFF00
1FFE00
0FFC00
ENDCHAR
STARTCHAR 1ECF
ENCODING 7887
SWIDTH 600 0
DWIDTH 20 0
BBX 18 27 1 0
BITMAP
03E000
03F000
03F800
003800
003800
003800
00F000
00E000
000000
000000
07F800
1FFE00
3FFF00
7E1F00
7C0F80
7C0F80
FC0FC0
FC0FC0
FC0FC0
FC0FC0
FC0FC0
7C0F80
7C0F80
3E1F00
3FFF00
1FFE00
07F800
ENDCHAR
STARTCHAR 1ED0
ENCODING 7888
SWIDTH 600 0
DWIDTH 20 0
BBX 18 35 1 0
BITMAP
007C00
007800
00F000
01E000
000000
01E000
03F000
07F800
0F3C00
1C0F00
000000
000000
07F800
1FFE00
3FFF00
7FFF80
7E1F80
FC0FC0
FC07C0
F807C0
F807C0
F807C0
F807C0
F807C0
F807C0
F807C0
F807C0
F807C0
F807C0
FC0FC0
FE1FC0
7FFF80
3FFF00
1FFE00
0FFC00
ENDCHAR
STARTCHAR 1ED1
ENCODING 7889
SWIDTH 600 0
DWIDTH 20 0
BBX 18 31 1 0
BITMAP
003E00
003C00
007800
00F000
01E000
000000
01E000
03F000
07F800
0F3C00
1E1E00
000000
000000
000000
07F800
1FFE00
3FFF00
7E1F00
7C0F80
7C0F80
FC0FC0
FC0FC0
FC0FC0
FC0FC0
FC0FC0
7C0F80
7C0F80
3E1F00
3FFF00
1FFE00
07F800
ENDCHAR
STARTCHAR 1ED2
ENCODING 7890
SWIDTH 600 0
DWIDTH 20 0
BBX 18 35 1 0
BITMAP
0F8000
078000
03C000
01E000
000000
01E000
03F000
07F800
0F3C00
1C0F00
000000
000000
07F800
1FFE00
3FFF00
7FFF80
7E1F80
FC0FC0
FC07C0
F807C0
F807C0
F807C0
F807C0
F807C0
F807C0
F807C0
F807C0
F807C0
F807C0
FC0FC0
FE1FC0
7FFF80
3FFF00
1FFE00
0FFC00
ENDCHAR
STARTCHAR 1ED3
ENCODING 7891
SWIDTH 600 0
DWIDTH 20 0
BBX 18 31 1 0
BITMAP
1F0000
0F8000
078000
03C000
01E000
000000
01E000
03F000
07F800
0F3C00
1E1E00
000000
000000
000000
07F800
1FFE00
3FFF00
7E1F00
7C0F80
7C0F80
FC0FC0
FC0FC0
FC0FC0
FC0FC0
FC0FC0
7C0F80
7C0F80
3E1F00
3FFF00
1FFE00
07F800
ENDCHAR
STARTCHAR 1ED4
ENCODING 7892
SWIDTH 600 0
DWIDTH 20 0
BBX 18 38 1 0
BITMAP
01C000
01F000
01F000
003000
003000
00F000
00C000
000000
01E000
03F000
07F800
0F3C00
1C0F00
000000
000000
07F800
1FFE00
3FFF00
7FFF80
7E1F80
FC0FC0
FC07C0
F807C0
F807C0
F807C0
F807C0
F807C0
F807C0
F807C0
F807C0
F807C0
F807C0
FC0FC0
FE1FC0
7FFF80
3FFF00
1FFE00
0FFC00
ENDCHAR
STARTCHAR 1ED5
ENCODING 7893
SWIDTH 600 0
DWIDTH 20 0
BBX 18 33 1 0
BITMAP
01C000
01F000
01F000
003000
003000
00F000
00C000
000000
01E000
03F000
07F800
0F3C00
1E1E00
000000
000000
000000
07F800
1FFE00
3FFF00
7E1F00
7C0F80
7C0F80
FC0FC0
FC0FC0
FC0FC0
FC0FC0
FC0FC0
7C0F80
7C0F80
3E1F00
3FFF00
1FFE00
07F800
ENDCHAR
STARTCHAR 1ED6
ENCODING 7894
SWIDTH 600 0
DWIDTH 20 0
BBX 18 35 1 0
BITMAP
0FC600
1FFE00
1FFE00
187800
000000
01E000
03F000
07F800
0F3C00
1C0F00
000000
000000
07F800
1FFE00
3FFF00
7FFF80
7E1F80
FC0FC0
FC07C0
F807C0
F807C0
F807C0
F807C0
F807C0
F807C0
F807C0
F807C0
F807C0
F807C0
FC0FC0
FE1FC0
7FFF80
3FFF00
1FFE00
0FFC00
ENDCHAR
STARTCHAR 1ED7
ENCODING 7895
SWIDTH 600 0
DWIDTH 20 0
BBX 18 30 1 0
BITMAP
0F8600
1FFE00
1FFE00
187C00
000000
01E000
03F000
07F800
0F3C00
1E1E00
000000
000000
000000
07F800
1FFE00
3FFF00
7E1F00
7C0F80
7C0F80
FC0FC0
FC0FC0
FC0FC0
FC0FC0
FC0FC0
7C0F80
7C0F80
3E1F00
3FFF00
1FFE00
07F800
ENDCHAR
STARTCHAR 1ED8
ENCODING 7896
SWIDTH 600 0
DWIDTH 20 0
BBX 18 37 1 -7
BITMAP
01E000
03F000
07F800
0F3C00
1E1E00
000000
000000
07F800
1FFE00
3FFF00
7FFF80
7E1F80
FC0FC0
FC07C0
F807C0
F807C0
F807C0
F807C0
F807C0
F807C0
F807C0
F807C0
F807C0
F807C0
FC0FC0
FE1FC0
7FFF80
3FFF00
1FFE00
0FFC00
000000
000000
000000
01F000
01F000
01F000
01F000
ENDCHAR
STARTCHAR 1ED9
ENCODING 7897
SWIDTH 600 0
DWIDTH 20 0
BBX 18 32 1 -7
BITMAP
03F000
03F000
07F800
0F3C00
1E1E00
1C1E00
000000
000000
07F800
1FFE00
3FFF00
7E1F00
7C0F80
7C0F80
FC0FC0
FC0FC0
FC0FC0
FC0FC0
FC0FC0
7C0F80
7C0F80
3E1F00
3FFF00
1FFE00
07F800
000000
000000
000000
01F000
01F000
01F000
01F000
ENDCHAR
STARTCHAR 1EDA
ENCODING 7898
SWIDTH 600 0
DWIDTH 20 0
BBX 20 30 1 0
BITMAP
003E00
007C00
007800
00F0F0
01E0F0
0000F0
0001F0
07F9E0
1FFFC0
3FFF80
7FFF80
7E1F80
FC0FC0
FC07C0
F807C0
F807C0
F807C0
F807C0
F807C0
F807C0
F807C0
F807C0
F807C0
F807C0
FC0FC0
FE1FC0
7FFF80
3FFF00
1FFE00
0FFC00
ENDCHAR
STARTCHAR 1EDB
ENCODING 7899
SWIDTH 600 0
DWIDTH 20 0
BBX 21 25 1 0
BITMAP
007C00
00F800
00F000
01E000
01E0F8
0200F8
0000F0
0000F0
07F9E0
1FFFC0
3FFF80
7E1F00
7C0F80
7C0F80
FC0FC0
FC0FC0
FC0FC0
FC0FC0
FC0FC0
7C0F80
7C0F80
3E1F00
3FFF00
1FFE00
07F800
ENDCHAR
STARTCHAR 1EDC
ENCODING 7900
SWIDTH 600 0
DWIDTH 20 0
BBX 20 30 1 0
BITMAP
1F0000
0F8000
07C000
03C0F0
01E0F0
0000F0
0001F0
07F9E0
1FFFC0
3FFF80
7FFF80
7E1F80
FC0FC0
FC07C0
F807C0
F807C0
F807C0
F807C0
F807C0
F807C0
F807C0
F807C0
F807C0
F807C0
FC0FC0
FE1FC0
7FFF80
3FFF00
1FFE00
0FFC00
ENDCHAR
STARTCHAR 1EDD
ENCODING 7901
SWIDTH 600 0
DWIDTH 20 0
BBX 21 25 1 0
BITMAP
0F8000
07C000
03C000
01C000
01E0F8
0000F8
0000F0
0000F0
07F9E0
1FFFC0
3FFF80
7E1F00
7C0F80
7C0F80
FC0FC0
FC0FC0
FC0FC0
FC0FC0
FC0FC0
7C0F80
7C0F80
3E1F00
3FFF00
1FFE00
07F800
ENDCHAR
STARTCHAR 1EDE
ENCODING 7902
SWIDTH 600 0
DWIDTH 20 0
BBX 20 33 1 0
BITMAP
03E000
03F000
03F800
023800
003800
007800
00F0F0
00C0F0
0000F0
0001F0
07F9E0
1FFFC0
3FFF80
7FFF80
7E1F80
FC0FC0
FC07C0
F807C0
F807C0
F807C0
F807C0
F807C0
F807C0
F807C0
F807C0
F807C0
F807C0
FC0FC0
FE1FC0
7FFF80
3FFF00
1FFE00
0FFC00
ENDCHAR
STARTCHAR 1EDF
ENCODING 7903
SWIDTH 600 0
DWIDTH 20 0
BBX 21 27 1 0
BITMAP
03E000
03F000
03F800
003800
003800
003800
00F0F8
00E0F8
0000F0
0000F0
07F9E0
1FFFC0
3FFF80
7E1F00
7C0F80
7C0F80
FC0FC0
FC0FC0
FC0FC0
FC0FC0
FC0FC0
7C0F80
7C0F80
3E1F00
3FFF00
1FFE00
07F800
ENDCHAR
STARTCHAR 1EE0
ENCODING 7904
SWIDTH 600 0
DWIDTH 20 0
BBX 20 30 1 0
BITMAP
020600
0FCE00
0FFC00
1FFCF0
1878F0
0000F0
0001F0
07F9E0
1FFFC0
3FFF80
7FFF80
7E1F80
FC0FC0
FC07C0
F807C0
F807C0
F807C0
F807C0
F807C0
F807C0
F807C0
F807C0
F807C0
F807C0
FC0FC0
FE1FC0
7FFF80
3FFF00
1FFE00
0FFC00
ENDCHAR
STARTCHAR 1EE1
ENCODING 7905
SWIDTH 600 0
DWIDTH 20 0
BBX 21 25 1 0
BITMAP
070600
0FCE00
1FFE00
1DFC00
1878F8
0000F8
0000F0
0000F0
07F9E0
1FFFC0
3FFF80
7E1F00
7C0F80
7C0F80
FC0FC0
FC0FC0
FC0FC0
FC0FC0
FC0FC0
7C0F80
7C0F80
3E1F00
3FFF00
1FFE00
07F800
ENDCHAR
STARTCHAR 1EE2
ENCODING 7906
SWIDTH 600 0
DWIDTH 20 0
BBX 20 34 1 -7
BITMAP
0000F0
0000F0
0000F0
0001F0
07F9E0
1FFFC0
3FFF80
7FFF80
7E1F80
FC0FC0
FC07C0
F807C0
F807C0
F807C0
F807C0
F807C0
F807C0
F807C0
F807C0
F807C0
F807C0
FC0FC0
FE1FC0
7FFF80
3FFF00
1FFE00
0FFC00
000000
000000
000000
01F000
01F000
01F000
01F000
ENDCHAR
STARTCHAR 1EE3
ENCODING 7907
SWIDTH 600 0
DWIDTH 20 0
BBX 21 28 1 -7
BITMAP
0000F8
0000F8
0000F0
0000F0
07F9E0
1FFFC0
3FFF80
7E1F00
7C0F80
7C0F80
FC0FC0
FC0FC0
FC0FC0
FC0FC0
FC0FC0
7C0F80
7C0F80
3E1F00
3FFF00
1FFE00
07F800
000000
000000
000000
01F000
01F000
01F000
01F000
ENDCHAR
STARTCHAR 1EE4
ENCODING 7908
SWIDTH 600 0
DWIDTH 20 0
BBX 18 30 1 -7
BITMAP
FC0FC0
FC0FC0
FC0FC0
FC0FC0
FC0FC0
FC0FC0
FC0FC0
FC0FC0
FC0FC0
FC0FC0
FC0FC0
FC0FC0
FC0FC0
FC0FC0
FC0FC0
FC0FC0
FC0FC0
7C0F80
7E1F80
7FFF80
3FFF00
1FFE00
0FFC00
000000
000000
000000
01F000
01F000
01F000
01F000
ENDCHAR
STARTCHAR 1EE5
ENCODING 7909
SWIDTH 600 0
DWIDTH 20 0
BBX 17 24 2 -7
BITMAP
F83F00
F83F00
F83F00
F83F00
F83F00
F83F00
F83F00
F83F00
F83F00
F83F00
F83F00
F83F00
FC3F00
FFFF00
FFFF80
7FFF80
3FCF80
000000
000000
000000
07E000
07E000
07E000
07E000
ENDCHAR
STARTCHAR 1EE6
ENCODING 7910
SWIDTH 600 0
DWIDTH 20 0
BBX 18 33 1 0
BITMAP
03E000
03F000
03F800
023800
003800
007800
00F000
00C000
000000
000000
FC0FC0
FC0FC0
FC0FC0
FC0FC0
FC0FC0
FC0FC0
FC0FC0
FC0FC0
FC0FC0
FC0FC0
FC0FC0
FC0FC0
FC0FC0
FC0FC0
FC0FC0
FC0FC0
FC0FC0
7C0F80
7E1F80
7FFF80
3FFF00
1FFE00
0FFC00
ENDCHAR
STARTCHAR 1EE7
ENCODING 7911
SWIDTH 600 0
DWIDTH 20 0
BBX 17 27 2 0
BITMAP
07C000
07E000
07F000
007000
007000
00E000
01E000
01C000
000000
000000
F83F00
F83F00
F83F00
F83F00
F83F00
F83F00
F83F00
F83F00
F83F00
F83F00
F83F00
F83F00
FC3F00
FFFF00
FFFF80
7FFF80
3FCF80
ENDCHAR
STARTCHAR 1EE8
ENCODING 7912
SWIDTH 600 0
DWIDTH 20 0
BBX 21 30 1 0
BITMAP
003E00
007C00
007878
00F078
01E078
0000F8
0000F0
FC0FE0
FC0FC0
FC0FC0
FC0FC0
FC0FC0
FC0FC0
FC0FC0
FC0FC0
FC0FC0
FC0FC0
FC0FC0
FC0FC0
FC0FC0
FC0FC0
FC0FC0
FC0FC0
FC0FC0
7C0F80
7E1F80
7FFF80
3FFF00
1FFE00
0FFC00
ENDCHAR
STARTCHAR 1EE9
ENCODING 7913
SWIDTH 600 0
DWIDTH 20 0
BBX 20 25 2 0
BITMAP
00F800
01E000
01E000
03C1F0
0381E0
0401E0
0001E0
0003C0
F83F80
F83F00
F83F00
F83F00
F83F00
F83F00
F83F00
F83F00
F83F00
F83F00
F83F00
F83F00
FC3F00
FFFF00
FFFF80
7FFF80
3FCF80
ENDCHAR
STARTCHAR 1EEA
ENCODING 7914
SWIDTH 600 0
DWIDTH 20 0
BBX 21 30 1 0
BITMAP
1F0000
0F8000
07C078
03C078
01E078
0000F8
0000F0
FC0FE0
FC0FC0
FC0FC0
FC0FC0
FC0FC0
FC0FC0
FC0FC0
FC0FC0
FC0FC0
FC0FC0
FC0FC0
FC0FC0
FC0FC0
FC0FC0
FC0FC0
FC0FC0
FC0FC0
7C0F80
7E1F80
7FFF80
3FFF00
1FFE00
0FFC00
ENDCHAR
STARTCHAR 1EEB
ENCODING 7915
SWIDTH 600 0
DWIDTH 20 0
BBX 20 25 2 0
BITMAP
1F0000
0F0000
078000
0781F0
03C1E0
0001E0
0001E0
0003C0
F83F80
F83F00
F83F00
F83F00
F83F00
F83F00
F83F00
F83F00
F83F00
F83F00
F83F00
F83F00
FC3F00
FFFF00
FFFF80
7FFF80
3FCF80
ENDCHAR
STARTCHAR 1EEC
ENCODING 7916
SWIDTH 600 0
DWIDTH 20 0
BBX 21 33 1 0
BITMAP
03E000
03F000
03F800
023800
003800
007878
00F078
00C078
0000F8
0000F0
FC0FE0
FC0FC0
FC0FC0
FC0FC0
FC0FC0
FC0FC0
FC0FC0
FC0FC0
FC0FC0
FC0FC0
FC0FC0
FC0FC0
FC0FC0
FC0FC0
FC0FC0
FC0FC0
FC0FC0
7C0F80
7E1F80
7FFF80
3FFF00
1FFE00
0FFC00
ENDCHAR
STARTCHAR 1EED
ENCODING 7917
SWIDTH 600 0
DWIDTH 20 0
BBX 20 27 2 0
BITMAP
07C000
07E000
07F000
007000
007000
00E1F0
01E1E0
01C1E0
0001E0
0003C0
F83F80
F83F00
F83F00
F83F00
F83F00
F83F00
F83F00
F83F00
F83F00
F83F00
F83F00
F83F00
FC3F00
FFFF00
FFFF80
7FFF80
3FCF80
ENDCHAR
STARTCHAR 1EEE
ENCODING 7918
SWIDTH 600 0
DWIDTH 20 0
BBX 21 30 1 0
BITMAP
060700
0FCE00
1FFE78
1FFE78
187878
2000F8
0000F0
FC0FE0
FC0FC0
FC0FC0
FC0FC0
FC0FC0
FC0FC0
FC0FC0
FC0FC0
FC0FC0
FC0FC0
FC0FC0
FC0FC0
FC0FC0
FC0FC0
FC0FC0
FC0FC0
FC0FC0
7C0F80
7E1F80
7FFF80
3FFF00
1FFE00
0FFC00
ENDCHAR
STARTCHAR 1EEF
ENCODING 7919
SWIDTH 600 0
DWIDTH 20 0
BBX 20 25 2 0
BITMAP
0E0C00
1F9C00
3FF800
3BF9F0
30F1E0
0001E0
0003E0
0003C0
F83F80
F83F00
F83F00
F83F00
F83F00
F83F00
F83F00
F83F00
F83F00
F83F00
F83F00
F83F00
FC3F00
FFFF00
FFFF80
7FFF80
3FCF80
ENDCHAR
STARTCHAR 1EF0
ENCODING 7920
SWIDTH 600 0
DWIDTH 20 0
BBX 21 35 1 -7
BITMAP
000078
000078
000078
0000F8
0000F0
FC0FE0
FC0FC0
FC0FC0
FC0FC0
FC0FC0
FC0FC0
FC0FC0
FC0FC0
FC0FC0
FC0FC0
FC0FC0
FC0FC0
FC0FC0
FC0FC0
FC0FC0
FC0FC0
FC0FC0
7C0F80
7E1F80
7FFF80
3FFF00
1FFE00
0FFC00
000000
000000
000000
01F000
01F000
01F000
01F000
ENDCHAR
STARTCHAR 1EF1
ENCODING 7921
SWIDTH 600 0
DWIDTH 20 0
BBX 20 29 2 -7
BITMAP
0001F0
0001E0
0001E0
0001E0
0003C0
F83F80
F83F00
F83F00
F83F00
F83F00
F83F00
F83F00
F83F00
F83F00
F83F00
F83F00
F83F00
FC3F00
FFFF00
FFFF80
7FFF80
3FCF80
000000
000000
000000
07E000
07E000
07E000
07E000
ENDCHAR
STARTCHAR 1EF2
ENCODING 7922
SWIDTH 600 0
DWIDTH 20 0
BBX 20 30 0 0
BITMAP
0F8000
07C000
03E000
01E000
00F000
000000
000000
FC03F0
7E03E0
7E07E0
3F07C0
3F0FC0
1F8F80
1F9F80
0F9F00
0FDF00
07FE00
07FE00
03FC00
03FC00
01F800
01F800
01F800
01F800
01F800
01F800
01F800
01F800
01F800
01F800
ENDCHAR
STARTCHAR 1EF3
ENCODING 7923
SWIDTH 600 0
DWIDTH 20 0
BBX 18 31 1 -6
BITMAP
0F8000
03C000
03C000
01E000
00E000
001000
000000
000000
FC07C0
7C0F80
7E0F80
7E0F80
3E1F00
3F1F00
1F1E00
1F3E00
1FBE00
0FBC00
0FFC00
07FC00
07F800
07F800
03F000
03F000
01F000
03E000
03E000
4FC000
7F8000
7F8000
7E0000
ENDCHAR
STARTCHAR 1EF4
ENCODING 7924
SWIDTH 600 0
DWIDTH 20 0
BBX 20 30 0 -7
BITMAP
FC03F0
7E03E0
7E07E0
3F07C0
3F0FC0
1F8F80
1F9F80
0F9F00
0FDF00
07FE00
07FE00
03FC00
03FC00
01F800
01F800
01F800
01F800
01F800
01F800
01F800
01F800
01F800
01F800
000000
000000
000000
00F800
00F800
00F800
00F800
ENDCHAR
STARTCHAR 1EF5
ENCODING 7925
SWIDTH 600 0
DWIDTH 20 0
BBX 18 24 1 -7
BITMAP
FC07C0
7C0F80
7E0F80
7E0F80
3E1F00
3F1F00
1F1E00
1F3E00
1FBE00
0FBC00
0FFC00
07FC00
07F800
07F800
03F000
03F000
01F000
03E000
03E000
4FC000
7F87C0
7F87C0
7E07C0
0007C0
ENDCHAR
STARTCHAR 1EF6
ENCODING 7926
SWIDTH 600 0
DWIDTH 20 0
BBX 20 33 0 0
BITMAP
01F000
01F800
01FC00
011C00
001C00
003C00
007800
006000
000000
000000
FC03F0
7E03E0
7E07E0
3F07C0
3F0FC0
1F8F80
1F9F80
0F9F00
0FDF00
07FE00
07FE00
03FC00
03FC00
01F800
01F800
01F800
01F800
01F800
01F800
01F800
01F800
01F800
01F800
ENDCHAR
STARTCHAR 1EF7
ENCODING 7927
SWIDTH 600 0
DWIDTH 20 0
BBX 18 33 1 -6
BITMAP
03E000
03F800
03F800
003800
003800
003800
00F000
00E000
000000
000000
FC07C0
7C0F80
7E0F80
7E0F80
3E1F00
3F1F00
1F1E00
1F3E00
1FBE00
0FBC00
0FFC00
07FC00
07F800
07F800
03F000
03F000
01F000
03E000
03E000
4FC000
7F8000
7F8000
7E0000
ENDCHAR
STARTCHAR 1EF8
ENCODING 7928
SWIDTH 600 0
DWIDTH 20 0
BBX 20 30 0 0
BITMAP
030380
07E700
0FFF00
0FFF00
0C3C00
100000
000000
FC03F0
7E03E0
7E07E0
3F07C0
3F0FC0
1F8F80
1F9F80
0F9F00
0FDF00
07FE00
07FE00
03FC00
03FC00
01F800
01F800
01F800
01F800
01F800
01F800
01F800
01F800
01F800
01F800
ENDCHAR
STARTCHAR 1EF9
ENCODING 7929
SWIDTH 600 0
DWIDTH 20 0
BBX 18 31 1 -6
BITMAP
070300
0FC700
1FFF00
1DFE00
187C00
000000
000000
000000
FC07C0
7C0F80
7E0F80
7E0F80
3E1F00
3F1F00
1F1E00
1F3E00
1FBE00
0FBC00
0FFC00
07FC00
07F800
07F800
03F000
03F000
01F000
03E000
03E000
4FC000
7F8000
7F8000
7E0000
ENDCHAR
STARTCHAR 2009
ENCODING 8201
SWIDTH 600 0
DWIDTH 20 0
BBX 0 0 0 0
BITMAP
ENDCHAR
STARTCHAR 2010
ENCODING 8208
SWIDTH 600 0
DWIDTH 20 0
BBX 8 4 6 7
BITMAP
FF
FF
FF
FF
ENDCHAR
STARTCHAR 2011
ENCODING 8209
SWIDTH 600 0
DWIDTH 20 0
BBX 8 4 6 7
BITMAP
FF
FF
FF
FF
ENDCHAR
STARTCHAR 2013
ENCODING 8211
SWIDTH 600 0
DWIDTH 20 0
BBX 14 4 3 7
BITMAP
FFFC
FFFC
FFFC
FFFC
ENDCHAR
STARTCHAR 2014
ENCODING 8212
SWIDTH 600 0
DWIDTH 20 0
BBX 20 4 0 7
BITMAP
FFFFF0
FFFFF0
FFFFF0
FFFFF0
ENDCHAR
STARTCHAR 2018
ENCODING 8216
SWIDTH 600 0
DWIDTH 20 0
BBX 6 12 7 11
BITMAP
3C
38
70
70
E0
E0
FC
FC
FC
FC
FC
FC
ENDCHAR
STARTCHAR 2019
ENCODING 8217
SWIDTH 600 0
DWIDTH 20 0
BBX 6 12 7 12
BITMAP
FC
FC
FC
FC
FC
FC
1C
18
38
38
70
F0
ENDCHAR
STARTCHAR 201A
ENCODING 8218
SWIDTH 600 0
DWIDTH 20 0
BBX 6 12 7 -6
BITMAP
FC
FC
FC
FC
FC
FC
1C
18
38
38
70
F0
ENDCHAR
STARTCHAR 201C
ENCODING 8220
SWIDTH 600 0
DWIDTH 20 0
BBX 14 12 3 11
BITMAP
3C3C
3878
7070
7060
70E0
E0E0
FCFC
FCFC
FCFC
FCFC
FCFC
FCFC
ENDCHAR
STARTCHAR 201D
ENCODING 8221
SWIDTH 600 0
DWIDTH 20 0
BBX 14 12 3 12
BITMAP
FCFC
FCFC
FCFC
FCFC
FCFC
FCFC
1C1C
1C38
3838
3838
7070
F0E0
ENDCHAR
STARTCHAR 201E
ENCODING 8222
SWIDTH 600 0
DWIDTH 20 0
BBX 14 12 3 -6
BITMAP
FCFC
FCFC
FCFC
FCFC
FCFC
FCFC
1C1C
1C38
3838
3838
7070
F0E0
ENDCHAR
STARTCHAR 2020
ENCODING 8224
SWIDTH 600 0
DWIDTH 20 0
BBX 16 29 2 -6
BITMAP
03C0
03C0
03C0
03C0
03C0
01C0
F99F
FFFF
FFFF
F99F
0180
0180
01C0
03C0
03C0
03C0
03C0
03C0
03C0
03C0
03C0
03C0
03C0
03C0
03C0
03C0
03C0
03C0
03C0
ENDCHAR
STARTCHAR 2021
ENCODING 8225
SWIDTH 600 0
DWIDTH 20 0
BBX 16 29 2 -6
BITMAP
03C0
03C0
03C0
03C0
03C0
01C0
F99F
FFFF
FFFF
F99F
03C0
03C0
03C0
03C0
03C0
03C0
03C0
03C0
01C0
FDBF
FFFF
FFFF
F19F
03C0
03C0
03C0
03C0
03C0
03C0
ENDCHAR
STARTCHAR 2022
ENCODING 8226
SWIDTH 600 0
DWIDTH 20 0
BBX 10 11 5 6
BITMAP
1E00
7F80
FF80
FFC0
FFC0
FFC0
FFC0
FFC0
FFC0
7F80
1E00
ENDCHAR
STARTCHAR 2026
ENCODING 8230
SWIDTH 600 0
DWIDTH 20 0
BBX 18 5 1 0
BITMAP
F9E7C0
F9E7C0
F9E7C0
F9E7C0
F9E7C0
ENDCHAR
STARTCHAR 2030
ENCODING 8240
SWIDTH 600 0
DWIDTH 20 0
BBX 18 23 1 0
BITMAP
3C0000
7F0000
F70000
E38000
E38000
E38000
E38000
E70000
7F0000
3E0000
000000
FFFFC0
FFFFC0
3E1F00
7F3F80
F73BC0
E3F1C0
E3F1C0
E3F1C0
E3F1C0
F73BC0
7F3F80
3E1F00
ENDCHAR
STARTCHAR 2032
ENCODING 8242
SWIDTH 600 0
DWIDTH 20 0
BBX 6 6 7 17
BITMAP
7C
78
78
70
F0
F0
ENDCHAR
STARTCHAR 2033
ENCODING 8243
SWIDTH 600 0
DWIDTH 20 0
BBX 12 6 4 17
BITMAP
7DF0
79E0
79E0
71C0
F3C0
F3C0
ENDCHAR
STARTCHAR 2039
ENCODING 8249
SWIDTH 600 0
DWIDTH 20 0
BBX 8 12 6 5
BITMAP
0F
1E
3E
3C
78
F8
78
7C
3C
1E
1E
0F
ENDCHAR
STARTCHAR 203A
ENCODING 8250
SWIDTH 600 0
DWIDTH 20 0
BBX 8 12 6 5
BITMAP
F0
78
3C
3C
1E
1F
1E
3E
3C
78
78
F0
ENDCHAR
STARTCHAR 2044
ENCODING 8260
SWIDTH 600 0
DWIDTH 20 0
BBX 20 23 0 0
BITMAP
000070
0000E0
0001C0
000180
000380
000700
000E00
000C00
001C00
002000
000000
000000
000000
004000
018000
030000
070000
0E0000
1C0000
1C0000
380000
700000
F00000
ENDCHAR
STARTCHAR 2052
ENCODING 8274
SWIDTH 600 0
DWIDTH 20 0
BBX 20 29 0 -5
BITMAP
0000F0
0001E0
0001E0
3E03C0
3E03C0
3E0780
3E0700
3E0F00
000E00
001E00
003C00
003C00
007800
007800
00F000
00E000
01E000
01C000
03C000
038000
078000
0F0000
0F07C0
1E07C0
1C07C0
3C07C0
3807C0
780000
F00000
ENDCHAR
STARTCHAR 2070
ENCODING 8304
SWIDTH 600 0
DWIDTH 20 0
BBX 10 13 5 14
BITMAP
1E00
3F00
7380
6180
E1C0
E1C0
E1C0
E1C0
E1C0
E1C0
7380
7F80
3F00
ENDCHAR
STARTCHAR 2074
ENCODING 8308
SWIDTH 600 0
DWIDTH 20 0
BBX 9 13 5 14
BITMAP
1800
3800
3B00
3300
7700
6700
E700
C700
FF80
FF80
0700
0700
0700
ENDCHAR
STARTCHAR 2075
ENCODING 8309
SWIDTH 600 0
DWIDTH 20 0
BBX 10 13 5 14
BITMAP
7F80
7F80
7F80
6000
6000
7F00
7F80
E3C0
01C0
E1C0
E380
7F80
3E00
ENDCHAR
STARTCHAR 2076
ENCODING 8310
SWIDTH 600 0
DWIDTH 20 0
BBX 10 13 5 14
BITMAP
1E00
7F00
FF80
E380
E000
EF00
FF80
F380
E1C0
E1C0
F380
7F80
3F00
ENDCHAR
STARTCHAR 2077
ENCODING 8311
SWIDTH 600 0
DWIDTH 20 0
BBX 9 12 6 14
BITMAP
FF80
FF00
0700
0E00
0C00
1C00
1800
3800
3800
7800
7000
7000
ENDCHAR
STARTCHAR 2078
ENCODING 8312
SWIDTH 600 0
DWIDTH 20 0
BBX 10 13 5 14
BITMAP
1C00
3F00
7F80
6180
6180
7F80
3F00
7F80
E1C0
E1C0
F3C0
7F80
3F00
ENDCHAR
STARTCHAR 2079
ENCODING 8313
SWIDTH 600 0
DWIDTH 20 0
BBX 9 13 5 14
BITMAP
1C00
7F00
FF80
E380
E380
E380
FF80
7F80
0380
E380
E380
7F00
3E00
ENDCHAR
STARTCHAR 207F
ENCODING 8319
SWIDTH 600 0
DWIDTH 20 0
BBX 10 10 5 13
BITMAP
EF80
FFC0
F3C0
F1C0
E1C0
E1C0
E1C0
E1C0
E1C0
E1C0
ENDCHAR
STARTCHAR 2080
ENCODING 8320
SWIDTH 600 0
DWIDTH 20 0
BBX 10 13 5 -6
BITMAP
1E00
3F00
7380
6180
E1C0
E1C0
E1C0
E1C0
E1C0
E1C0
7380
7F80
3F00
ENDCHAR
STARTCHAR 2081
ENCODING 8321
SWIDTH 600 0
DWIDTH 20 0
BBX 8 13 6 -6
BITMAP
08
38
F8
F8
38
38
38
38
38
38
38
FF
FF
ENDCHAR
STARTCHAR 2082
ENCODING 8322
SWIDTH 600 0
DWIDTH 20 0
BBX 10 13 5 -6
BITMAP
1E00
7F80
7F80
E380
E3C0
0380
0780
0F00
1E00
7800
7FC0
FFC0
FFC0
ENDCHAR
STARTCHAR 2083
ENCODING 8323
SWIDTH 600 0
DWIDTH 20 0
BBX 10 13 5 -6
BITMAP
1E00
7F80
7F80
E380
0180
0780
1F00
1F80
01C0
E1C0
E3C0
7F80
3F00
ENDCHAR
STARTCHAR 2084
ENCODING 8324
SWIDTH 600 0
DWIDTH 20 0
BBX 9 13 5 -6
BITMAP
1800
3800
3B00
3300
7700
6700
E700
C700
FF80
FF80
0700
0700
0700
ENDCHAR
STARTCHAR 2085
ENCODING 8325
SWIDTH 600 0
DWIDTH 20 0
BBX 10 13 5 -6
BITMAP
7F80
7F80
7F80
6000
6000
7F00
7F80
E3C0
01C0
E1C0
E380
7F80
3E00
ENDCHAR
STARTCHAR 2086
ENCODING 8326
SWIDTH 600 0
DWIDTH 20 0
BBX 10 13 5 -6
BITMAP
1E00
7F00
FF80
E380
E000
EF00
FF80
F380
E1C0
E1C0
F380
7F80
3F00
ENDCHAR
STARTCHAR 2087
ENCODING 8327
SWIDTH 600 0
DWIDTH 20 0
BBX 9 12 6 -6
BITMAP
FF80
FF00
0700
0E00
0C00
1C00
1800
3800
3800
7800
7000
7000
ENDCHAR
STARTCHAR 2088
ENCODING 8328
SWIDTH 600 0
DWIDTH 20 0
BBX 10 13 5 -6
BITMAP
1C00
3F00
7F80
6180
6180
7F80
3F00
7F80
E1C0
E1C0
F3C0
7F80
3F00
ENDCHAR
STARTCHAR 2089
ENCODING 8329
SWIDTH 600 0
DWIDTH 20 0
BBX 9 13 5 -6
BITMAP
1C00
7F00
FF80
E380
E380
E380
FF80
7F80
0380
E380
E380
7F00
3E00
ENDCHAR
STARTCHAR 2099
ENCODING 8345
SWIDTH 600 0
DWIDTH 20 0
BBX 10 10 5 -4
BITMAP
EF80
FFC0
F3C0
F1C0
E1C0
E1C0
E1C0
E1C0
E1C0
E1C0
ENDCHAR
STARTCHAR 20A1
ENCODING 8353
SWIDTH 600 0
DWIDTH 20 0
BBX 19 28 1 -2
BITMAP
000840
000EE0
000CE0
00FFC0
03FFC0
0FFFC0
1FFF80
3FF380
3FF300
7E7700
7E6700
7CE600
7CEE00
FCCE00
FDCC00
FDDC00
7D9C00
7F9800
7F3800
7F3000
3F7000
3FF200
1FFE00
0FFE00
0FFE00
1DFE00
1DC000
19C000
ENDCHAR
STARTCHAR 20A3
ENCODING 8355
SWIDTH 600 0
DWIDTH 20 0
BBX 18 23 0 0
BITMAP
3FFFC0
3FFFC0
3FFFC0
3FFFC0
3FFFC0
3F0000
3F0000
3F0000
3F0000
3F0000
3FFF80
3FFF80
3FFF80
3FFF80
3F0000
3F0000
FFF800
FFF800
FFF800
FFF800
3F0000
3F0000
3F0000
ENDCHAR
STARTCHAR 20A4
ENCODING 8356
SWIDTH 600 0
DWIDTH 20 0
BBX 18 23 1 0
BITMAP
03FC00
07FF00
0FFF80
1FFFC0
1F0FC0
3F07C0
3F07C0
3F0000
FFF000
FFF000
FFF000
FFF000
3F0000
FFF000
FFF000
FFF000
FFF000
3E0000
3E0000
FFFF80
FFFF80
FFFF80
FFFF80
ENDCHAR
STARTCHAR 20A6
ENCODING 8358
SWIDTH 600 0
DWIDTH 20 0
BBX 20 23 0 0
BITMAP
3E07C0
3F07C0
3F07C0
3F87C0
3F87C0
3FC7C0
FFFFF0
FFFFF0
FFFFF0
FFFFF0
3FF7C0
3EF7C0
3EFFC0
3EFFC0
FFFFF0
FFFFF0
FFFFF0
3E3FC0
3E1FC0
3E1FC0
3E0FC0
3E0FC0
3E07C0
ENDCHAR
STARTCHAR 20A7
ENCODING 8359
SWIDTH 600 0
DWIDTH 20 0
BBX 21 23 0 0
BITMAP
3FFE00
3FFF80
3FFFC0
3FFFC0
3E07E0
3E07E0
FFFFF8
FFFFF8
FFFFF8
3E07E0
3E07E0
3FFFC0
3FFFC0
3FFF80
3FFE00
3E0000
3E0000
3E0000
3E0000
3E0000
3E0000
3E0000
3E0000
ENDCHAR
STARTCHAR 20A9
ENCODING 8361
SWIDTH 600 0
DWIDTH 20 0
BBX 20 23 0 0
BITMAP
F8F0F0
F8F0F0
F8F0F0
F8F9F0
78F9F0
78F9E0
78F9E0
FFFFF0
FFFFF0
FFFFF0
FFFFF0
7DFFE0
7DFFE0
3D9FC0
FFFFF0
FFFFF0
FFFFF0
3F9FC0
3F9FC0
3F9FC0
3F8FC0
3F0FC0
1F0F80
ENDCHAR
STARTCHAR 20AB
ENCODING 8363
SWIDTH 600 0
DWIDTH 20 0
BBX 19 30 1 -6
BITMAP
000F80
000F80
03FFE0
03FFE0
03FFE0
000F80
000F80
0FCF80
3FEF80
3FFF80
7E3F80
7C1F80
7C1F80
FC0F80
FC0F80
FC0F80
FC0F80
FC0F80
7C1F80
7C1F80
7E3F80
3FFF80
1FFF80
0FC780
000000
000000
7FFF80
7FFF80
7FFF80
7FFF80
ENDCHAR
STARTCHAR 20AC
ENCODING 8364
SWIDTH 600 0
DWIDTH 20 0
BBX 17 23 1 0
BITMAP
003F80
01FF80
03FF80
07FF80
0FF080
0FC000
1F8000
1F8000
FFFC00
FFFC00
FFFC00
1F0000
1F0000
FFFC00
FFFC00
1F8000
1F8000
0FC000
0FF080
07FF80
03FF80
01FF80
007F80
ENDCHAR
STARTCHAR 20AD
ENCODING 8365
SWIDTH 600 0
DWIDTH 20 0
BBX 20 23 0 0
BITMAP
3E03E0
3E07E0
3E0FC0
3E0FC0
3E1F80
3E1F00
3E3F00
3E3E00
3E7E00
3E7C00
FFFFE0
FFFFE0
FFFFE0
3E7C00
3E7E00
3E3E00
3E3F00
3E1F80
3E1F80
3E0FC0
3E0FC0
3E07E0
3E07F0
ENDCHAR
STARTCHAR 20B1
ENCODING 8369
SWIDTH 600 0
DWIDTH 20 0
BBX 21 23 0 0
BITMAP
3FFE00
3FFF80
3FFFC0
3FFFC0
FE0FF8
FE07F8
FE03F8
3E03F0
FE03F8
FE07F8
FE07F8
3FFFC0
3FFFC0
3FFF80
3FFE00
3E0000
3E0000
3E0000
3E0000
3E0000
3E0000
3E0000
3E0000
ENDCHAR
STARTCHAR 20B2
ENCODING 8370
SWIDTH 600 0
DWIDTH 20 0
BBX 18 27 1 -2
BITMAP
01E000
01E000
07F800
1FFE00
3FFF00
7FFF80
7EFF80
FCE7C0
F8E7C0
F8E7C0
F8E000
F8E000
F8FFC0
F8FFC0
F8FFC0
F8FFC0
F8E7C0
F8E7C0
F8E7C0
FCE7C0
FEFFC0
7FFFC0
3FFFC0
1FF9C0
0FF1C0
01E000
01E000
ENDCHAR
STARTCHAR 20B5
ENCODING 8373
SWIDTH 600 0
DWIDTH 20 0
BBX 18 28 1 -2
BITMAP
001000
003800
003800
07F800
1FFE00
3FFF00
7FFF00
7E7F80
FC6F80
FC6FC0
F8EFC0
F8E7C0
F8C000
F8C000
F9C000
F9C000
F98000
F987C0
F987C0
FB87C0
FF8F80
FF1F80
7FFF00
3FFF00
1FFE00
0FF800
060000
0E0000
ENDCHAR
STARTCHAR 20B9
ENCODING 8377
SWIDTH 600 0
DWIDTH 20 0
BBX 18 23 2 0
BITMAP
FFFFC0
FFFFC0
FFFF80
FFF800
01F800
FFFF80
FFFF80
FFFF00
FFFF00
01F800
FFF800
FFF800
FFF000
FFC000
FE0000
7E0000
7F0000
3F8000
1FC000
0FE000
07F000
03F000
03FC00
ENDCHAR
STARTCHAR 20BA
ENCODING 8378
SWIDTH 600 0
DWIDTH 20 0
BBX 18 23 1 0
BITMAP
3E0000
3E0000
3E0000
3E6000
3EE000
3FE000
3FE000
3F8000
7E2000
FE6000
FFE000
FFE000
BFE000
3F8000
FE0FC0
FE0FC0
FE0FC0
FE0F80
BFFF80
3FFF80
3FFF00
3FFE00
3FF800
ENDCHAR
STARTCHAR 20BC
ENCODING 8380
SWIDTH 600 0
DWIDTH 20 0
BBX 20 25 0 0
BITMAP
00F000
00F000
03FC00
0FFF00
1FFF80
3FFFC0
7FFFE0
7CF3E0
7CF3E0
F8F1F0
F8F1F0
F8F1F0
F8F1F0
F8F1F0
F8F1F0
F8F1F0
F8F1F0
F8F1F0
F8F1F0
F8F1F0
F8F1F0
F8F1F0
F801F0
F801F0
F801F0
ENDCHAR
STARTCHAR 20BD
ENCODING 8381
SWIDTH 600 0
DWIDTH 20 0
BBX 19 23 0 0
BITMAP
3FFE00
3FFF80
3FFFC0
3FFFE0
3E0FE0
3E07E0
3E03E0
3E03E0
3E03E0
3E07E0
FFFFE0
FFFFC0
FFFF80
FFFF00
3E0000
3E0000
FFF000
FFF000
FFF000
FFF000
3E0000
3E0000
3E0000
ENDCHAR
STARTCHAR 2113
ENCODING 8467
SWIDTH 600 0
DWIDTH 20 0
BBX 15 23 2 0
BITMAP
07F0
0FF8
1FFC
1FBC
3F1E
3E0E
3E0E
3E0E
3E0E
3E0E
3E1C
3E3C
3EF8
FFF0
FFE0
3E00
3E00
3E00
3E00
3F08
3FF8
1FF8
0FF0
ENDCHAR
STARTCHAR 2116
ENCODING 8470
SWIDTH 600 0
DWIDTH 20 0
BBX 18 23 1 0
BITMAP
F1E000
F1E000
F9E000
F9E000
F9E000
F9E000
F9E000
FDE200
FDEF80
FDEFC0
FDECC0
FDECC0
FFECC0
FFECC0
F7ECC0
F7ECC0
F7ECC0
F7EFC0
F7EF80
F3E000
F3EFC0
F3EFC0
F3EFC0
ENDCHAR
STARTCHAR 2117
ENCODING 8471
SWIDTH 600 0
DWIDTH 20 0
BBX 20 23 0 0
BITMAP
03FC00
0FFF00
1C0380
3801C0
3000C0
77FCE0
67FE60
678F60
E78770
C78730
C78F30
C7FF30
C7FE30
C7F830
E78070
678060
678060
6780E0
3780C0
3801C0
1C0380
0FFF00
03FC00
ENDCHAR
STARTCHAR 2122
ENCODING 8482
SWIDTH 600 0
DWIDTH 20 0
BBX 20 13 0 10
BITMAP
FEF1F0
FEF1F0
FEF9F0
38F9F0
38D9F0
38D9F0
38DBF0
38DB70
38DB70
38DF70
38CF70
38CF70
38CF70
ENDCHAR
STARTCHAR 2126
ENCODING 8486
SWIDTH 600 0
DWIDTH 20 0
BBX 20 23 0 0
BITMAP
03FC00
0FFF00
1FFF80
3FFFC0
7F0FE0
7E07E0
7C03E0
7C03E0
FC03F0
FC03F0
FC03F0
FC03F0
FC03F0
7C03E0
7C03E0
7C03E0
3C03C0
3C03C0
1C0380
FE07F0
FF0FF0
FF9FF0
FF9FF0
ENDCHAR
STARTCHAR 212E
ENCODING 8494
SWIDTH 600 0
DWIDTH 20 0
BBX 20 23 0 0
BITMAP
03FC00
0FFF00
1F9F80
3C03C0
3C03C0
7C03E0
7C03E0
7C03E0
FC03F0
FC03F0
FFFFF0
FFFFF0
FFFFF0
FC0000
FC0000
7C0000
7C0000
7C0000
3C00C0
3C01E0
1F07C0
0FFF80
03FE00
ENDCHAR
STARTCHAR 2202
ENCODING 8706
SWIDTH 600 0
DWIDTH 20 0
BBX 17 23 1 0
BITMAP
07F800
07FC00
07FE00
07FF00
001F80
000F80
000F80
000F80
010F80
1FEF80
3FFF80
7FFF80
7E1F80
FC0F80
F80F80
F80F80
F80F80
FC0F80
7C1F80
7FFF00
3FFE00
1FFC00
0FF800
ENDCHAR
STARTCHAR 2205
ENCODING 8709
SWIDTH 600 0
DWIDTH 20 0
BBX 18 17 1 3
BITMAP
008100
07FB80
0FFFC0
1FFF00
3C1F00
783F80
787F80
70F380
71E380
73C380
778380
7F0780
3E0F00
3E1F00
7FFE00
FFFC00
63F000
ENDCHAR
STARTCHAR 2206
ENCODING 8710
SWIDTH 600 0
DWIDTH 20 0
BBX 18 23 1 0
BITMAP
07F800
07F800
07F800
07F800
0FFC00
0FFC00
0F7C00
1F3E00
1F3E00
1F3E00
1E3E00
3E1F00
3E1F00
3E1F00
7C1F80
7C1F80
7C0F80
7C0F80
F80FC0
FFFFC0
FFFFC0
FFFFC0
FFFFC0
ENDCHAR
STARTCHAR 220F
ENCODING 8719
SWIDTH 600 0
DWIDTH 20 0
BBX 20 27 0 -3
BITMAP
FFFFF0
FFFFF0
FFFFF0
FFFFF0
FFFFF0
3F0FC0
3F0FC0
3F0FC0
3F0FC0
3F0FC0
3F0FC0
3F0FC0
3F0FC0
3F0FC0
3F0FC0
3F0FC0
3F0FC0
3F0FC0
3F0FC0
3F0FC0
3F0FC0
3F0FC0
3F0FC0
3F0FC0
3F0FC0
3F0FC0
3F0FC0
ENDCHAR
STARTCHAR 2211
ENCODING 8721
SWIDTH 600 0
DWIDTH 20 0
BBX 18 27 1 -3
BITMAP
FFFFC0
FFFFC0
FFFFC0
FFFFC0
7FFFC0
3F8000
1F8000
1FC000
0FE000
07F000
03F800
01FC00
01FC00
00FE00
00FC00
01F800
03F000
07E000
0FC000
0F8000
1F8000
3F0000
7FFFC0
FFFFC0
FFFFC0
FFFFC0
FFFFC0
ENDCHAR
STARTCHAR 2212
ENCODING 8722
SWIDTH 600 0
DWIDTH 20 0
BBX 18 4 1 7
BITMAP
FFFFC0
FFFFC0
FFFFC0
FFFFC0
ENDCHAR
STARTCHAR 2215
ENCODING 8725
SWIDTH 600 0
DWIDTH 20 0
BBX 16 23 2 0
BITMAP
0007
0006
000E
000C
001C
0038
0030
0070
0060
00E0
01C0
0180
0380
0300
0700
0E00
0C00
1C00
3800
3000
7000
6000
E000
ENDCHAR
STARTCHAR 2219
ENCODING 8729
SWIDTH 600 0
DWIDTH 20 0
BBX 6 5 7 7
BITMAP
FC
FC
FC
FC
FC
ENDCHAR
STARTCHAR 221A
ENCODING 8730
SWIDTH 600 0
DWIDTH 20 0
BBX 20 32 0 -5
BITMAP
0001F0
0001E0
0001E0
0001E0
0001E0
0003E0
0003C0
0003C0
0003C0
0003C0
000380
000780
000780
010780
0F0780
3F0700
FF0F00
7F8F00
4F8F00
0F8F00
0F8E00
07DE00
07DE00
07DE00
03DE00
03DC00
03DC00
03FC00
01FC00
01FC00
01F800
01F800
ENDCHAR
STARTCHAR 221E
ENCODING 8734
SWIDTH 600 0
DWIDTH 20 0
BBX 20 12 0 3
BITMAP
1F0FC0
3F9FC0
73DCE0
71F860
60F070
E0E070
E0F070
60F860
71FCE0
7F9FC0
3F0FC0
0C0300
ENDCHAR
STARTCHAR 222B
ENCODING 8747
SWIDTH 600 0
DWIDTH 20 0
BBX 8 33 6 -9
BITMAP
0F
3F
3C
38
38
38
3C
3C
3C
3C
3C
3C
3C
3C
3C
3C
3C
3C
3C
3C
3C
3C
3C
3C
3C
3C
3C
1C
1C
1C
3C
FC
F8
ENDCHAR
STARTCHAR 2248
ENCODING 8776
SWIDTH 600 0
DWIDTH 20 0
BBX 18 14 1 2
BITMAP
000040
3F0040
7FC0C0
FFFFC0
FFFFC0
C07F80
800C00
000000
1E0040
7FC0C0
FFFFC0
FFFFC0
C0FF80
801E00
ENDCHAR
STARTCHAR 2260
ENCODING 8800
SWIDTH 600 0
DWIDTH 20 0
BBX 18 17 1 0
BITMAP
000700
000E00
001E00
FFFFC0
FFFFC0
FFFFC0
FFFFC0
00E000
01E000
01C000
FFFFC0
FFFFC0
FFFFC0
FFFFC0
1E0000
1C0000
380000
ENDCHAR
STARTCHAR 2264
ENCODING 8804
SWIDTH 600 0
DWIDTH 20 0
BBX 17 17 1 0
BITMAP
000380
003F80
03FF80
3FFF80
FFF800
FF0000
FC0000
FFE000
7FFF00
07FF80
007F80
000F80
000080
FFFF80
FFFF80
FFFF80
FFFF80
ENDCHAR
STARTCHAR 2265
ENCODING 8805
SWIDTH 600 0
DWIDTH 20 0
BBX 17 17 2 0
BITMAP
E00000
FE0000
FFE000
FFFE00
0FFF80
007F80
001F80
03FF80
7FFF00
FFF000
FF0000
F00000
800000
FFFF80
FFFF80
FFFF80
FFFF80
ENDCHAR
STARTCHAR 25CA
ENCODING 9674
SWIDTH 600 0
DWIDTH 20 0
BBX 16 23 2 0
BITMAP
03C0
07E0
07E0
0FF0
0F70
1E78
1E38
3C3C
3C3C
781E
781E
F00F
781E
781E
3C1C
3C3C
1E38
1E78
0F70
0FF0
07E0
07E0
03C0
ENDCHAR
STARTCHAR 27E8
ENCODING 10216
SWIDTH 600 0
DWIDTH 20 0
BBX 10 21 5 -1
BITMAP
01C0
0380
0300
0700
0E00
1C00
1C00
3800
7800
7000
E000
7000
7800
3800
1C00
0C00
0E00
0700
0300
0380
01C0
ENDCHAR
STARTCHAR 27E9
ENCODING 10217
SWIDTH 600 0
DWIDTH 20 0
BBX 10 21 5 -1
BITMAP
E000
7000
3000
3800
1C00
0E00
0E00
0700
0780
0380
01C0
0380
0780
0700
0E00
0C00
1C00
3800
3000
7000
E000
ENDCHAR
STARTCHAR FB01
ENCODING 64257
SWIDTH 600 0
DWIDTH 20 0
BBX 17 25 0 0
BITMAP
000F80
07EF80
0FEF80
1FEF80
1F0F80
1F0000
1F0000
1F0000
FFFF80
FFFF80
FFFF80
FFFF80
1F0F80
1F0F80
1F0F80
1F0F80
1F0F80
1F0F80
1F0F80
1F0F80
1F0F80
1F0F80
1F0F80
1F0F80
1F0F80
ENDCHAR
STARTCHAR FB02
ENCODING 64258
SWIDTH 600 0
DWIDTH 20 0
BBX 17 24 0 0
BITMAP
07EF80
0FEF80
1FEF80
1F0F80
1F0F80
1F0F80
1F0F80
FFEF80
FFEF80
FFEF80
FFEF80
1F0F80
1F0F80
1F0F80
1F0F80
1F0F80
1F0F80
1F0F80
1F0F80
1F0F80
1F0F80
1F0F80
1F0F80
1F0F80
ENDCHAR
STARTCHAR FEFF
ENCODING 65279
SWIDTH 0 0
DWIDTH 0 0
BBX 0 0 0 0
BITMAP
ENDCHAR
ENDFONT
